<svg width="201" height="115" viewBox="0 0 201 115" fill="none" xmlns="http://www.w3.org/2000/svg">
<g clip-path="url(#clip0_2497_21599)">
<path d="M90.624 51.7575C90.122 52.912 89.6828 53.941 89.4444 54.4429C89.3816 54.5558 89.3063 54.6186 89.1307 54.6186C88.9048 54.6186 88.4907 54.5433 88.2773 54.4429V54.3676C89.0805 52.6233 91.4647 47.2399 91.929 46.1357L91.7533 45.7341C92.0671 45.6588 92.5439 45.5961 92.7196 45.5961C92.8953 45.5961 92.9831 45.6965 93.0458 45.8345C93.6984 47.3403 94.9282 50.3771 95.5054 51.6696C96.0826 52.9998 96.4465 53.8908 96.6975 54.3927V54.4554C96.3963 54.5558 95.8442 54.606 95.6183 54.606C95.4301 54.606 95.3297 54.5182 95.1917 54.1794C94.878 53.439 94.6521 52.8743 94.1752 51.7575H90.624ZM93.8992 50.8916C93.1337 48.9591 92.6317 47.767 92.431 47.265C91.9541 48.4195 91.4898 49.5489 90.9377 50.8916H93.8866H93.8992Z" fill="white"/>
<path d="M97.7522 49.975C97.7522 49.1091 97.7271 48.6825 97.6895 48.3687C97.9279 48.2935 98.48 48.2307 98.731 48.2307C98.8816 48.2307 98.9318 48.306 98.9318 49.1091C98.9443 50.0503 98.9443 51.0918 98.9443 52.0204C98.9443 53.5263 99.7098 53.727 100.337 53.727C101.002 53.727 101.567 53.3004 101.805 52.9992V48.7954C101.805 48.4566 101.856 48.3813 102.031 48.3186C102.408 48.2809 102.721 48.2307 103.035 48.2307C103.035 48.5444 102.998 49.5483 102.998 50.7906V53.0745C102.998 53.7647 103.173 53.9153 103.562 53.978V54.0408C103.55 54.3043 103.223 54.7058 102.922 54.7058C102.32 54.7058 101.994 54.3043 101.931 53.7019C101.517 54.1411 101.053 54.3796 100.751 54.5302C100.463 54.6431 100.174 54.7184 99.8478 54.7184C98.4173 54.7184 97.7648 53.7647 97.7648 52.3718V49.9875L97.7522 49.975Z" fill="white"/>
<path d="M106.849 48.156C107.376 48.156 107.94 48.3066 108.279 48.6454C108.304 48.8964 108.141 49.2979 107.815 49.2854C107.514 49.1348 107.125 49.0219 106.773 49.0219C106.221 49.0219 105.807 49.3356 105.807 49.825C105.807 50.2391 106.096 50.4775 106.422 50.6657C106.798 50.8665 107.275 51.0799 107.689 51.3183C108.329 51.6696 108.618 52.1841 108.618 52.7488C108.618 54.0915 107.438 54.7064 106.309 54.7064C105.631 54.7064 105.029 54.4931 104.728 54.2421C104.602 54.1292 104.54 53.966 104.577 53.828C104.602 53.6272 104.703 53.4139 104.878 53.3386C105.293 53.6272 105.87 53.8406 106.397 53.8406C107.112 53.8406 107.476 53.4767 107.476 52.9873C107.476 52.6359 107.275 52.3724 106.786 52.1214C106.409 51.9206 106.058 51.77 105.719 51.5818C105.117 51.2555 104.715 50.7536 104.715 50.0258C104.715 48.8713 105.719 48.1686 106.861 48.1686H106.874L106.849 48.156Z" fill="white"/>
<path d="M113.3 53.5134C113.375 53.802 113.325 54.1032 113.074 54.304C112.785 54.5424 112.233 54.693 111.731 54.693C110.464 54.693 109.975 53.9024 109.975 52.8232V49.1465C109.498 49.1465 109.297 48.9959 109.297 48.8453C109.435 48.5441 110.326 47.741 110.527 47.5528C110.715 47.4022 110.916 47.2516 111.254 47.2014C111.229 47.6532 111.204 48.0171 111.204 48.3057H113.463C113.325 49.021 113.011 49.0712 112.748 49.0837C112.271 49.1214 112.208 49.1214 111.192 49.1214C111.116 50.5645 111.142 52.108 111.192 52.7103C111.267 53.5636 111.731 53.7769 112.221 53.7769C112.635 53.7769 113.049 53.6514 113.287 53.4758L113.312 53.5009L113.3 53.5134Z" fill="white"/>
<path d="M114.241 48.6831C114.341 48.4697 114.756 48.156 115.007 48.156C115.421 48.156 115.672 48.6705 115.672 49.574C116.111 48.6329 116.738 48.156 117.391 48.156C117.679 48.156 117.93 48.2815 118.031 48.3819C118.081 48.5074 118.068 48.7709 117.968 48.934C117.93 49.1474 117.717 49.3732 117.554 49.3858C117.341 49.2979 117.165 49.2728 116.989 49.2728C116.676 49.2728 116.211 49.5615 115.91 50.2516C115.81 50.5026 115.747 50.7034 115.747 51.0171V54.217C115.747 54.4304 115.709 54.5307 115.496 54.5558C115.157 54.5935 114.818 54.606 114.517 54.606C114.542 54.0915 114.555 53.2633 114.555 51.9959V49.6242C114.555 49.185 114.479 48.8838 114.229 48.7332V48.6831H114.241Z" fill="white"/>
<path d="M125.496 46.6494C125.496 45.8086 125.471 45.3694 125.434 45.0934C125.722 44.9679 126.274 44.8926 126.488 44.8926C126.651 44.8926 126.688 44.9679 126.688 45.8086V52.6477C126.688 53.3378 126.714 54.1159 126.739 54.5049C126.488 54.5802 125.848 54.6178 125.672 54.6178C125.547 54.6178 125.484 54.5802 125.484 54.4296V46.6368L125.496 46.6494Z" fill="white"/>
<path d="M129.26 45.2691C129.637 45.2691 129.9 45.5703 129.9 45.9593C129.9 46.3483 129.637 46.6871 129.223 46.6871C128.846 46.6871 128.545 46.4487 128.545 45.9844C128.545 45.495 128.959 45.2566 129.26 45.2566H129.273L129.26 45.2691ZM129.837 54.1913C129.837 54.4422 129.75 54.5175 129.536 54.5426C129.348 54.5803 128.997 54.5928 128.595 54.6179C128.608 54.0407 128.633 53.2125 128.633 52.3842V49.9749C128.633 49.109 128.608 48.6698 128.57 48.3687C128.808 48.2808 129.411 48.2306 129.624 48.2306C129.762 48.2306 129.825 48.3059 129.825 49.109V54.1913H129.837Z" fill="white"/>
<path d="M142.237 50.7536C142.237 49.6493 141.748 49.1097 140.92 49.1097C140.192 49.1097 139.64 49.574 139.313 49.963V54.2045C139.313 54.4931 139.251 54.5307 139.012 54.5558C138.698 54.606 138.385 54.5935 138.071 54.606C138.096 54.0915 138.121 53.2508 138.121 51.9959V49.5866C138.121 49.0721 138.046 48.8336 137.883 48.7082V48.658C137.996 48.4321 138.397 48.156 138.648 48.156C139.087 48.156 139.213 48.8085 139.263 49.2101C139.815 48.658 140.581 48.156 141.371 48.156C143.003 48.156 143.442 49.3732 143.442 50.741V52.7237C143.442 53.5519 143.467 54.1417 143.505 54.4931C143.203 54.5307 142.827 54.606 142.451 54.606C142.3 54.606 142.237 54.5307 142.237 54.4053V50.741V50.7536Z" fill="white"/>
<path d="M155.299 53.4256C155.274 53.7519 155.086 54.1032 154.86 54.2915C154.546 54.5048 153.755 54.7432 152.802 54.7432C149.614 54.7432 147.945 52.8735 147.945 50.1379C147.945 47.2642 150.104 45.4196 152.889 45.4196C154.207 45.4196 155.224 45.8588 155.449 46.1348C155.437 46.5489 155.136 46.825 154.847 46.7874C154.358 46.5489 153.668 46.3356 152.839 46.3356C150.944 46.3356 149.301 47.603 149.301 50.0751C149.301 52.2335 150.631 53.8146 153.115 53.8146C153.994 53.8146 154.847 53.5637 155.249 53.388L155.286 53.4256H155.299Z" fill="white"/>
<path d="M157.835 49.1093C158.4 48.6073 159.102 48.1556 159.931 48.1556C161.524 48.1556 161.976 49.4355 161.976 50.7657V52.7108C161.976 53.5892 161.976 54.179 162.001 54.5052C161.725 54.5554 161.361 54.6182 160.96 54.6182C160.822 54.6182 160.759 54.5429 160.759 54.3923C160.759 53.8025 160.771 52.0708 160.771 50.8535C160.771 49.561 160.156 49.1093 159.429 49.1093C158.701 49.1093 158.111 49.5736 157.822 49.8747V54.204C157.822 54.4425 157.76 54.5303 157.559 54.5554C157.233 54.6182 156.894 54.6182 156.593 54.6182C156.618 54.1037 156.643 53.2629 156.643 52.008V46.6623C156.643 45.8215 156.618 45.3698 156.58 45.0811C156.957 44.9682 157.408 44.8804 157.634 44.8804C157.772 44.8804 157.835 44.9557 157.835 45.8215V49.0967V49.1093Z" fill="white"/>
<path d="M164.574 45.2691C164.963 45.2691 165.214 45.5703 165.214 45.9593C165.214 46.3483 164.937 46.6871 164.523 46.6871C164.147 46.6871 163.846 46.4487 163.846 45.9844C163.846 45.495 164.26 45.2566 164.561 45.2566H164.574V45.2691ZM165.151 54.1913C165.151 54.4422 165.063 54.5175 164.85 54.5426C164.661 54.5803 164.31 54.5928 163.908 54.6179C163.921 54.0407 163.946 53.2125 163.946 52.3842V49.9749C163.946 49.109 163.921 48.6698 163.883 48.3687C164.122 48.2808 164.724 48.2306 164.937 48.2306C165.075 48.2306 165.138 48.3059 165.138 49.109V54.1913H165.151Z" fill="white"/>
<path d="M167.096 46.6494C167.096 45.8086 167.071 45.3694 167.033 45.0934C167.322 44.9679 167.874 44.8926 168.087 44.8926C168.238 44.8926 168.288 44.9679 168.288 45.8086V52.6477C168.288 53.3378 168.313 54.1159 168.351 54.5049C168.1 54.5802 167.46 54.6178 167.284 54.6178C167.159 54.6178 167.096 54.5802 167.096 54.4296V46.6368V46.6494Z" fill="white"/>
<path d="M174.423 46.4615C174.423 45.7086 174.398 45.3698 174.361 45.0811C174.612 44.9808 175.189 44.8804 175.402 44.8804C175.565 44.8804 175.616 44.9557 175.616 45.8215V53.0747C175.616 53.7397 175.804 53.9029 176.23 53.9656V54.0033C176.168 54.317 175.879 54.6809 175.578 54.6809C174.925 54.6809 174.637 54.2919 174.561 53.8778C173.997 54.3295 173.156 54.6809 172.554 54.6809C171.048 54.6809 169.793 53.6017 169.793 51.6065C169.793 49.6112 171.311 48.143 173.332 48.143C173.896 48.143 174.248 48.2811 174.423 48.3313V46.4615ZM174.423 49.172C174.223 49.0465 173.809 48.9461 173.319 48.9461C172.253 48.9461 171.073 49.6865 171.073 51.4559C171.073 52.8739 171.951 53.7272 173.081 53.7272C173.532 53.7272 174.085 53.539 174.423 53.2629V49.172Z" fill="white"/>
<path d="M177.361 48.6831C177.462 48.4697 177.876 48.156 178.127 48.156C178.541 48.156 178.792 48.6705 178.792 49.574C179.231 48.6329 179.859 48.156 180.511 48.156C180.8 48.156 181.051 48.2815 181.151 48.3819C181.201 48.5074 181.189 48.7709 181.088 48.934C181.051 49.1474 180.837 49.3732 180.674 49.3858C180.461 49.2979 180.285 49.2728 180.109 49.2728C179.796 49.2728 179.331 49.5615 179.03 50.2516C178.93 50.5026 178.88 50.7034 178.88 51.0171V54.217C178.88 54.4304 178.842 54.5307 178.629 54.5558C178.29 54.5935 177.951 54.606 177.65 54.606C177.675 54.0915 177.688 53.2633 177.688 51.9959V49.6242C177.688 49.185 177.612 48.8838 177.361 48.7332V48.6831Z" fill="white"/>
<path d="M186.558 53.4139C186.558 53.8531 186.257 54.2547 186.018 54.3802C185.793 54.5056 185.19 54.6939 184.626 54.6939C182.655 54.6939 181.576 53.5143 181.576 51.5316C181.576 49.7497 182.655 48.156 184.525 48.156C186.144 48.156 186.847 49.3607 186.872 50.5152C186.872 50.6532 186.859 50.8414 186.834 50.9544C186.796 51.1928 186.106 51.3685 185.629 51.4563C185.24 51.494 183.822 51.5316 182.806 51.4814C182.818 52.9245 183.697 53.7527 184.952 53.7527C185.592 53.7527 186.282 53.5394 186.545 53.4014L186.571 53.4265L186.558 53.4139ZM184.349 48.8964C183.634 48.8964 182.944 49.5364 182.831 50.7285C183.847 50.7536 185.127 50.741 185.391 50.7285C185.579 50.7159 185.692 50.603 185.692 50.4273C185.705 49.5615 185.265 48.8964 184.375 48.8964H184.362H184.349Z" fill="white"/>
<path d="M192.306 50.7536C192.306 49.6493 191.816 49.1097 190.988 49.1097C190.26 49.1097 189.708 49.574 189.382 49.963V54.2045C189.382 54.4931 189.319 54.5307 189.081 54.5558C188.767 54.606 188.453 54.5935 188.139 54.606C188.164 54.0915 188.19 53.2508 188.19 51.9959V49.5866C188.19 49.0721 188.114 48.8336 187.951 48.7082V48.658C188.064 48.4321 188.466 48.156 188.717 48.156C189.156 48.156 189.281 48.8085 189.332 49.2101C189.884 48.658 190.649 48.156 191.44 48.156C193.071 48.156 193.51 49.3732 193.51 50.741V52.7237C193.51 53.5519 193.535 54.1417 193.573 54.4931C193.272 54.5307 192.895 54.606 192.519 54.606C192.368 54.606 192.306 54.5307 192.306 54.4053V50.741V50.7536Z" fill="white"/>
<path d="M196.497 45.6704C196.497 46.4358 195.995 47.4774 195.593 47.8664C195.392 48.0546 195.116 48.1299 194.715 48.1173C195.029 47.5527 195.355 46.6241 195.355 45.8084C195.355 45.6202 195.342 45.4319 195.292 45.2562C195.493 45.1182 195.819 44.9551 196.083 44.9551C196.396 44.9551 196.497 45.2813 196.497 45.6453V45.6704Z" fill="white"/>
<path d="M198.73 48.156C199.257 48.156 199.822 48.3066 200.161 48.6454C200.186 48.8964 200.023 49.2979 199.697 49.2854C199.395 49.1348 199.006 49.0219 198.655 49.0219C198.103 49.0219 197.689 49.3356 197.689 49.825C197.689 50.2391 197.977 50.4775 198.304 50.6657C198.693 50.8665 199.157 51.0799 199.571 51.3183C200.211 51.6696 200.5 52.1841 200.5 52.7488C200.5 54.0915 199.32 54.7064 198.178 54.7064C197.5 54.7064 196.898 54.4931 196.597 54.2421C196.471 54.1292 196.409 53.966 196.446 53.828C196.471 53.6272 196.572 53.4139 196.748 53.3386C197.162 53.6272 197.739 53.8406 198.266 53.8406C198.981 53.8406 199.345 53.4767 199.345 52.9873C199.345 52.6359 199.144 52.3724 198.655 52.1214C198.266 51.9206 197.927 51.77 197.588 51.5818C196.986 51.2555 196.584 50.7536 196.584 50.0258C196.584 48.8713 197.588 48.1686 198.73 48.1686H198.743L198.73 48.156Z" fill="white"/>
<path d="M89.1314 61.9341C89.1314 61.2565 89.1314 60.6792 89.0938 60.1396C89.3824 60.0518 89.809 59.9639 90.198 59.9388H93.8121C93.7619 60.3028 93.6364 60.5663 93.4732 60.7043C93.285 60.8047 92.9713 60.8047 92.3564 60.8047H90.3988V63.8164H93.6991C93.5736 64.5819 93.285 64.6823 92.8207 64.6823H90.3988V67.9198C90.7 68.0077 91.4278 68.0327 92.118 68.0327C92.758 68.0327 93.674 68.0202 94.2387 67.9575V67.9826C94.1509 68.4092 93.925 68.7104 93.5987 68.8359C93.4105 68.861 92.8835 68.8986 91.8796 68.8986C90.7125 68.8986 89.7086 68.8359 89.3573 68.7606L89.1565 68.4971V61.9341H89.1314Z" fill="white"/>
<path d="M99.4449 60.754C99.4449 60.0011 99.4198 59.6623 99.3822 59.3736C99.6331 59.2732 100.21 59.1729 100.424 59.1729C100.574 59.1729 100.637 59.2481 100.637 60.114V67.3671C100.637 68.0322 100.825 68.1954 101.252 68.2581V68.2957C101.189 68.6095 100.901 68.9734 100.599 68.9734C99.9469 68.9734 99.6583 68.5844 99.583 68.1703C99.0183 68.622 98.1775 68.9734 97.5752 68.9734C96.0693 68.9734 94.8145 67.8942 94.8145 65.8864C94.8145 63.8786 96.3328 62.423 98.3532 62.423C98.9179 62.423 99.2818 62.561 99.4449 62.6112V60.7414V60.754ZM99.4449 63.4645C99.2441 63.339 98.83 63.2386 98.3406 63.2386C97.274 63.2386 96.0944 63.979 96.0944 65.7484C96.0944 67.1664 96.9728 68.0197 98.1022 68.0197C98.554 68.0197 99.1061 67.8314 99.4575 67.5554V63.4645H99.4449Z" fill="white"/>
<path d="M102.647 64.2678C102.647 63.4019 102.622 62.9753 102.584 62.6616C102.822 62.5863 103.375 62.5235 103.626 62.5235C103.776 62.5235 103.826 62.5988 103.826 63.4019C103.839 64.3431 103.839 65.3846 103.839 66.3132C103.839 67.8191 104.604 68.0199 105.232 68.0199C105.897 68.0199 106.462 67.5932 106.7 67.292V63.0882C106.7 62.7494 106.738 62.6741 106.926 62.5988C107.302 62.5612 107.616 62.511 107.93 62.511C107.93 62.8247 107.892 63.8286 107.892 65.0709V67.3548C107.892 68.045 108.068 68.1955 108.457 68.2583V68.321C108.444 68.5846 108.118 68.9861 107.817 68.9861C107.214 68.9861 106.888 68.5845 106.825 67.9822C106.411 68.4214 105.947 68.6598 105.646 68.8104C105.357 68.9234 105.069 68.9987 104.73 68.9987C103.299 68.9987 102.647 68.045 102.647 66.6521V64.2678Z" fill="white"/>
<path d="M114.566 67.7942C114.554 68.1205 114.416 68.4719 114.202 68.635C113.876 68.8483 113.274 68.9864 112.684 68.9864C111.241 68.9864 109.459 68.2962 109.459 65.8115C109.459 63.8414 110.952 62.4485 112.885 62.4485C113.826 62.4485 114.491 62.7748 114.679 62.9755C114.679 63.2893 114.491 63.6657 114.152 63.6406C113.776 63.4524 113.299 63.3394 112.847 63.3394C111.617 63.3394 110.726 64.2806 110.726 65.686C110.726 67.5433 112.057 68.0578 113.035 68.0578C113.55 68.0578 114.14 67.9448 114.541 67.7691L114.566 67.7942Z" fill="white"/>
<path d="M125.448 67.8193C125.523 68.1079 125.473 68.4091 125.222 68.6099C124.933 68.8483 124.381 68.9989 123.891 68.9989C122.624 68.9989 122.135 68.2083 122.135 67.1291V63.4524C121.658 63.4524 121.457 63.3018 121.457 63.1512C121.595 62.85 122.473 62.0469 122.699 61.8587C122.888 61.6956 123.076 61.5575 123.427 61.5073C123.402 61.9591 123.377 62.323 123.377 62.6116H125.636C125.498 63.3269 125.184 63.3771 124.92 63.3896C124.444 63.4273 124.381 63.4273 123.364 63.4273C123.289 64.8829 123.314 66.4139 123.364 67.0162C123.44 67.8695 123.904 68.0828 124.381 68.0828C124.795 68.0828 125.209 67.9574 125.448 67.7817L125.473 67.8068L125.448 67.8193Z" fill="white"/>
<path d="M127.304 59.5628C127.68 59.5628 127.944 59.864 127.944 60.253C127.944 60.642 127.668 60.9808 127.254 60.9808C126.877 60.9808 126.576 60.7424 126.576 60.2781C126.576 59.7762 126.99 59.5503 127.291 59.5503H127.304V59.5628ZM127.881 68.485C127.881 68.7359 127.793 68.8112 127.58 68.8363C127.392 68.874 127.04 68.8865 126.639 68.9116C126.651 68.3344 126.677 67.5062 126.677 66.6779V64.2686C126.677 63.4027 126.651 62.9635 126.614 62.6624C126.852 62.5745 127.455 62.5243 127.668 62.5243C127.806 62.5243 127.869 62.5996 127.869 63.4027V68.485H127.881Z" fill="white"/>
<path d="M132.512 62.4485C134.494 62.4485 135.536 63.8539 135.536 65.661C135.536 67.468 134.331 68.9989 132.411 68.9989C130.341 68.9989 129.324 67.468 129.324 65.7864C129.324 63.9167 130.617 62.4485 132.486 62.4485H132.499H132.512ZM132.374 63.2265C131.42 63.2265 130.604 64.0798 130.604 65.6233C130.604 67.355 131.483 68.2083 132.524 68.2083C133.377 68.2083 134.256 67.4931 134.256 65.7488C134.256 64.4437 133.691 63.214 132.399 63.214H132.386L132.374 63.2265Z" fill="white"/>
<path d="M141.183 65.0464C141.183 63.9421 140.693 63.4025 139.865 63.4025C139.137 63.4025 138.585 63.8668 138.259 64.2558V68.4973C138.259 68.7859 138.196 68.8236 137.958 68.8487C137.644 68.8989 137.33 68.8863 137.016 68.8989C137.041 68.3844 137.067 67.5436 137.067 66.2887V63.8794C137.067 63.3649 136.991 63.1265 136.828 63.001V62.9382C136.941 62.7124 137.343 62.4363 137.594 62.4363C138.033 62.4363 138.158 63.0888 138.208 63.4904C138.761 62.9382 139.526 62.4363 140.317 62.4363C141.948 62.4363 142.387 63.6535 142.387 65.0213V67.004C142.387 67.8322 142.412 68.422 142.45 68.7734C142.149 68.811 141.772 68.8863 141.396 68.8863C141.245 68.8863 141.183 68.811 141.183 68.6855V65.0213V65.0464Z" fill="white"/>
<path d="M155.048 68.7732C154.835 68.8736 154.396 69.0116 153.956 69.0116C153.781 69.0116 153.63 68.9238 153.417 68.723C153.178 68.4846 152.789 68.1081 152.212 67.5685C151.284 68.7481 150.317 68.9739 149.564 68.9739C148.021 68.9739 146.967 68.083 146.967 66.6022C146.967 65.3474 148.021 64.6948 148.761 64.1803C148.146 63.578 147.82 62.9004 147.82 62.2102C147.82 60.9553 148.761 60.0895 149.991 60.0895C151.058 60.0895 151.999 60.6542 151.999 61.9592C151.999 63.0761 150.982 63.6784 150.242 64.1803C150.97 64.858 152.062 65.8744 152.313 66.1003C152.814 65.1968 153.379 64.0925 153.781 63.4776C154.007 63.1388 154.157 62.9882 154.345 62.9882C154.684 62.9882 154.948 63.1639 155.098 63.327V63.3898C154.609 63.8917 153.906 64.9709 152.927 66.6901C154.358 68.0077 154.885 68.5347 155.061 68.723V68.7732H155.048ZM149.866 68.0704C150.405 68.0704 151.058 67.8822 151.66 67.054C150.857 66.3011 149.69 65.1717 149.251 64.6948C148.598 65.1717 148.171 65.7238 148.171 66.4517C148.171 67.3928 148.924 68.0704 149.866 68.0704ZM148.887 62.1098C148.887 62.5992 149.138 63.1639 149.765 63.716C150.531 63.189 150.957 62.6745 150.957 61.9843C150.957 61.2941 150.468 60.8424 149.928 60.8424C149.288 60.8424 148.874 61.3318 148.874 62.0973L148.887 62.1098Z" fill="white"/>
<path d="M166.492 67.7193C166.467 68.0456 166.279 68.397 166.053 68.5852C165.739 68.7985 164.949 69.0369 163.995 69.0369C160.808 69.0369 159.139 67.1672 159.139 64.4316C159.139 61.5705 161.297 59.7133 164.083 59.7133C165.4 59.7133 166.417 60.1525 166.643 60.4285C166.63 60.8426 166.329 61.1187 166.04 61.0811C165.551 60.8426 164.861 60.6293 164.033 60.6293C162.125 60.6293 160.494 61.8967 160.494 64.3688C160.494 66.5272 161.824 68.0958 164.309 68.0958C165.187 68.0958 166.04 67.8448 166.442 67.6691L166.48 67.7068L166.492 67.7193Z" fill="white"/>
<path d="M173.934 62.9755C174.034 62.7622 174.448 62.4485 174.699 62.4485C175.113 62.4485 175.364 62.963 175.364 63.8665C175.803 62.9253 176.431 62.4485 177.083 62.4485C177.372 62.4485 177.623 62.574 177.723 62.6744C177.786 62.7998 177.773 63.0634 177.673 63.2265C177.635 63.4398 177.422 63.6657 177.259 63.6783C177.046 63.5904 176.87 63.5653 176.694 63.5653C176.381 63.5653 175.916 63.8539 175.615 64.5441C175.515 64.7951 175.465 64.9959 175.465 65.3096V68.5095C175.465 68.7228 175.427 68.8232 175.214 68.8483C174.875 68.886 174.536 68.8985 174.235 68.8985C174.26 68.384 174.272 67.5558 174.272 66.2884V63.9167C174.272 63.4775 174.197 63.1763 173.946 63.0257V62.963L173.934 62.9755Z" fill="white"/>
<path d="M183.12 67.7187C183.12 68.1579 182.819 68.5595 182.581 68.685C182.355 68.8105 181.753 68.9987 181.188 68.9987C179.218 68.9987 178.139 67.8191 178.139 65.8364C178.139 64.0419 179.218 62.4608 181.088 62.4608C182.706 62.4608 183.397 63.6655 183.434 64.82C183.434 64.958 183.422 65.1462 183.397 65.2592C183.359 65.4976 182.669 65.6733 182.192 65.7611C181.815 65.7988 180.385 65.8364 179.368 65.7862C179.381 67.2293 180.259 68.0575 181.514 68.0575C182.154 68.0575 182.844 67.8442 183.108 67.7062L183.133 67.7313L183.12 67.7187ZM180.924 63.1886C180.209 63.1886 179.519 63.8286 179.406 65.0207C180.423 65.0458 181.702 65.0333 181.966 65.0207C182.154 65.0082 182.267 64.8953 182.267 64.7196C182.28 63.8537 181.841 63.1886 180.95 63.1886H180.937H180.924Z" fill="white"/>
<path d="M93.1712 74.0184C95.9696 74.0184 97.6637 76.0764 97.6637 78.5861C97.6637 80.6567 96.6849 82.3884 94.7147 83.0409C95.1037 83.2291 95.5806 83.5429 95.9821 83.8189C96.9358 84.4715 97.7892 84.9232 98.5421 85.0487V85.0864C98.3413 85.4628 97.877 85.6385 97.5005 85.6385C96.6598 85.6385 95.7437 85.0487 94.3759 84.0825C93.7485 83.6182 93.2591 83.3923 92.5689 83.3044C90.0717 82.9531 88.6035 81.1712 88.6035 78.7618C88.6035 76.0513 90.3227 74.0059 93.1587 74.0059H93.1712V74.0184ZM93.0332 74.8215C91.2889 74.8215 89.9713 76.1893 89.9713 78.6489C89.9713 81.1084 91.6026 82.4888 93.2465 82.4888C95.0786 82.4888 96.3084 81.1963 96.3084 78.6489C96.3084 76.4654 95.041 74.8215 93.0458 74.8215H93.0332Z" fill="white"/>
<path d="M99.2073 78.5613C99.2073 77.6954 99.1822 77.2688 99.1445 76.9551C99.383 76.8798 99.9476 76.817 100.186 76.817C100.337 76.817 100.387 76.8923 100.387 77.6954C100.399 78.6366 100.399 79.6781 100.399 80.6067C100.399 82.1126 101.165 82.3133 101.792 82.3133C102.457 82.3133 103.022 81.8867 103.26 81.5855V77.3817C103.26 77.0429 103.298 76.9676 103.486 76.9049C103.863 76.8672 104.177 76.817 104.49 76.817C104.49 77.1307 104.453 78.1346 104.453 79.377V81.6608C104.453 82.351 104.628 82.5016 105.017 82.5769V82.6271C105.005 82.9031 104.679 83.2921 104.377 83.2921C103.775 83.2921 103.449 82.8906 103.386 82.2882C102.972 82.7274 102.508 82.9659 102.206 83.1165C101.93 83.2294 101.629 83.3047 101.303 83.3047C99.8724 83.3047 99.2198 82.351 99.2198 80.9581V78.5738L99.2073 78.5613Z" fill="white"/>
<path d="M112.91 75.2357C112.91 74.3949 112.885 73.9557 112.848 73.6797C113.136 73.5542 113.688 73.4789 113.902 73.4789C114.052 73.4789 114.103 73.5542 114.103 74.4075V81.2465C114.103 81.9367 114.128 82.7147 114.165 83.1037C113.914 83.179 113.274 83.2167 113.099 83.2167C112.973 83.2167 112.91 83.179 112.91 83.0284V75.2357Z" fill="white"/>
<path d="M116.674 73.8551C117.051 73.8551 117.314 74.1563 117.314 74.5453C117.314 74.9343 117.051 75.2731 116.637 75.2731C116.26 75.2731 115.959 75.0347 115.959 74.5829C115.959 74.081 116.373 73.8551 116.674 73.8551ZM117.239 82.7772C117.239 83.0282 117.151 83.1035 116.938 83.1286C116.75 83.1662 116.398 83.1788 115.997 83.2039C116.009 82.6141 116.034 81.7984 116.034 80.9702V78.5609C116.034 77.695 116.009 77.2558 115.972 76.9546C116.21 76.8668 116.812 76.8166 117.026 76.8166C117.164 76.8166 117.226 76.8919 117.226 77.695V82.7772H117.239Z" fill="white"/>
<path d="M122.573 82.1119C122.649 82.4005 122.598 82.7017 122.347 82.9025C122.059 83.1409 121.507 83.2915 121.005 83.2915C119.737 83.2915 119.248 82.5009 119.248 81.4217V77.745C118.771 77.745 118.57 77.5944 118.57 77.4438C118.708 77.1426 119.587 76.3395 119.8 76.1513C119.988 76.0007 120.189 75.8501 120.528 75.7999C120.503 76.2517 120.465 76.6156 120.465 76.9042H122.724C122.586 77.6195 122.272 77.6697 122.009 77.6822C121.519 77.7199 121.469 77.7199 120.44 77.7199C120.365 79.163 120.39 80.7065 120.44 81.3088C120.515 82.1621 120.98 82.3754 121.469 82.3754C121.883 82.3754 122.297 82.25 122.536 82.0743L122.561 82.0994L122.573 82.1119Z" fill="white"/>
<path d="M123.814 85.7259C124.279 85.1613 125.107 83.9942 125.722 82.8021C125.646 82.7017 125.508 82.4131 125.408 82.1621C125.195 81.61 124.015 78.4101 123.375 77.0673C123.639 76.9168 124.128 76.7411 124.366 76.7411C124.555 76.7411 124.605 76.8415 124.68 76.9921C125.031 77.8579 125.985 80.5684 126.349 81.5849C126.914 80.3049 127.717 77.9081 127.968 76.7411C128.194 76.7411 128.495 76.7787 128.708 76.8666C128.922 76.9544 128.947 77.0799 128.871 77.3811C128.52 78.6359 127.98 80.33 127.165 82.0994C126.224 84.1448 124.906 86.1275 124.655 86.1275C124.316 86.1275 123.94 85.9393 123.814 85.7761V85.7385V85.7259Z" fill="white"/>
<path d="M134.669 80.3424C134.179 81.4969 133.728 82.5259 133.489 83.0278C133.427 83.1408 133.351 83.2035 133.176 83.2035C132.95 83.2035 132.536 83.1282 132.322 83.0278V82.9526C133.125 81.2083 135.51 75.8249 135.974 74.7206L135.811 74.3191C136.125 74.2438 136.601 74.181 136.777 74.181C136.953 74.181 137.041 74.2814 137.103 74.4195C137.756 75.9253 138.986 78.9621 139.563 80.2546C140.14 81.5848 140.504 82.4757 140.755 82.9777V83.0404C140.454 83.1408 139.902 83.191 139.676 83.191C139.488 83.191 139.387 83.1031 139.249 82.7643C138.935 82.024 138.71 81.4593 138.233 80.3424H134.681H134.669ZM137.932 79.4766C137.166 77.5441 136.664 76.352 136.463 75.85C135.974 77.0045 135.522 78.1339 134.97 79.4766H137.919H137.932Z" fill="white"/>
<path d="M141.785 78.5613C141.785 77.6954 141.76 77.2688 141.723 76.9551C141.961 76.8798 142.513 76.817 142.764 76.817C142.915 76.817 142.965 76.8923 142.965 77.6954C142.978 78.6366 142.978 79.6781 142.978 80.6067C142.978 82.1126 143.743 82.3133 144.37 82.3133C145.036 82.3133 145.6 81.8867 145.839 81.5855V77.3817C145.839 77.0429 145.876 76.9676 146.065 76.9049C146.441 76.8672 146.755 76.817 147.068 76.817C147.068 77.1307 147.031 78.1346 147.031 79.377V81.6608C147.031 82.351 147.206 82.5016 147.595 82.5769V82.6271C147.583 82.9031 147.257 83.2921 146.955 83.2921C146.366 83.2921 146.027 82.8906 145.964 82.2882C145.55 82.7274 145.086 82.9659 144.785 83.1165C144.508 83.2294 144.207 83.3047 143.881 83.3047C142.45 83.3047 141.798 82.351 141.798 80.9581V78.5738L141.785 78.5613Z" fill="white"/>
<path d="M152.463 82.1119C152.538 82.4005 152.488 82.7017 152.237 82.9025C151.949 83.1409 151.396 83.2915 150.907 83.2915C149.64 83.2915 149.15 82.5009 149.15 81.4217V77.745C148.661 77.745 148.473 77.5944 148.473 77.4438C148.611 77.1426 149.502 76.3395 149.702 76.1513C149.891 76.0007 150.091 75.8501 150.43 75.7999C150.405 76.2517 150.368 76.6156 150.368 76.9042H152.626C152.488 77.6195 152.175 77.6697 151.911 77.6822C151.422 77.7199 151.371 77.7199 150.342 77.7199C150.267 79.163 150.292 80.7065 150.342 81.3088C150.418 82.1621 150.882 82.3754 151.371 82.3754C151.786 82.3754 152.2 82.25 152.438 82.0743L152.463 82.0994V82.1119Z" fill="white"/>
<path d="M154.912 77.6956C155.477 77.1936 156.18 76.7419 157.008 76.7419C158.602 76.7419 159.053 78.0219 159.053 79.352V81.2971C159.053 82.1755 159.053 82.7653 159.078 83.0915C158.815 83.1417 158.438 83.2045 158.049 83.2045C157.911 83.2045 157.849 83.1292 157.849 82.9786C157.849 82.3888 157.861 80.6571 157.861 79.4399C157.861 78.1473 157.246 77.6956 156.518 77.6956C155.791 77.6956 155.201 78.1599 154.912 78.461V82.7903C154.912 83.0288 154.849 83.1166 154.649 83.1417C154.322 83.2045 153.984 83.2045 153.682 83.2045C153.708 82.69 153.733 81.8492 153.733 80.5943V75.2486C153.733 74.4078 153.708 73.9561 153.67 73.6674C154.046 73.5545 154.498 73.4667 154.724 73.4667C154.862 73.4667 154.925 73.542 154.925 74.4078V77.683L154.912 77.6956Z" fill="white"/>
<path d="M163.682 76.7411C165.664 76.7411 166.706 78.1465 166.706 79.9535C166.706 81.7606 165.501 83.2915 163.581 83.2915C161.511 83.2915 160.494 81.7606 160.494 80.079C160.494 78.2093 161.787 76.7411 163.656 76.7411H163.669H163.682ZM163.556 77.5191C162.602 77.5191 161.774 78.3724 161.774 79.9159C161.774 81.6476 162.653 82.5009 163.694 82.5009C164.547 82.5009 165.426 81.7857 165.426 80.0414C165.426 78.7363 164.861 77.5191 163.569 77.5191H163.556Z" fill="white"/>
<path d="M167.924 77.2681C168.024 77.0548 168.438 76.7411 168.689 76.7411C169.103 76.7411 169.354 77.2556 169.354 78.1591C169.794 77.2179 170.421 76.7411 171.074 76.7411C171.362 76.7411 171.613 76.8666 171.714 76.967C171.776 77.0925 171.751 77.356 171.663 77.5191C171.626 77.7324 171.4 77.9583 171.249 77.9709C171.036 77.883 170.86 77.8579 170.685 77.8579C170.371 77.8579 169.907 78.1465 169.605 78.8367C169.505 79.0877 169.455 79.2885 169.455 79.6022V82.8021C169.455 83.0154 169.417 83.1158 169.204 83.1409C168.865 83.1786 168.526 83.2037 168.225 83.2037C168.25 82.6892 168.263 81.861 168.263 80.5935V78.2218C168.263 77.7826 168.187 77.4815 167.936 77.3309V77.2807L167.924 77.2681Z" fill="white"/>
<path d="M173.446 73.8551C173.822 73.8551 174.086 74.1563 174.086 74.5453C174.086 74.9343 173.822 75.2731 173.408 75.2731C173.032 75.2731 172.73 75.0347 172.73 74.5829C172.73 74.081 173.145 73.8551 173.446 73.8551ZM174.023 82.7772C174.023 83.0282 173.935 83.1035 173.722 83.1286C173.534 83.1662 173.182 83.1788 172.781 83.2039C172.793 82.6141 172.818 81.7984 172.818 80.9702V78.5609C172.818 77.695 172.793 77.2558 172.756 76.9546C172.994 76.8668 173.596 76.8166 173.81 76.8166C173.948 76.8166 174.01 76.8919 174.01 77.695V82.7772H174.023Z" fill="white"/>
<path d="M179.356 82.1119C179.431 82.4005 179.381 82.7017 179.13 82.9025C178.841 83.1409 178.289 83.2915 177.8 83.2915C176.532 83.2915 176.043 82.5009 176.043 81.4217V77.745C175.566 77.745 175.365 77.5944 175.365 77.4438C175.503 77.1426 176.382 76.3395 176.608 76.1513C176.796 76.0007 176.984 75.8501 177.335 75.7999C177.31 76.2517 177.285 76.6156 177.285 76.9042H179.544C179.406 77.6195 179.092 77.6697 178.829 77.6822C178.352 77.7199 178.289 77.7199 177.273 77.7199C177.197 79.163 177.222 80.7065 177.273 81.3088C177.348 82.1621 177.812 82.3754 178.302 82.3754C178.716 82.3754 179.117 82.25 179.368 82.0743L179.393 82.0994L179.356 82.1119Z" fill="white"/>
<path d="M180.597 85.7259C181.062 85.1613 181.89 83.9942 182.505 82.8021C182.43 82.7017 182.291 82.4131 182.191 82.1621C181.978 81.61 180.798 78.4101 180.158 77.0673C180.422 76.9168 180.911 76.7411 181.15 76.7411C181.338 76.7411 181.388 76.8415 181.463 76.9921C181.815 77.8579 182.768 80.5684 183.132 81.5849C183.697 80.3049 184.5 77.9081 184.751 76.7411C184.977 76.7411 185.278 76.7787 185.491 76.8666C185.705 76.9544 185.73 77.0799 185.667 77.3811C185.316 78.6359 184.776 80.33 183.96 82.0994C183.019 84.1448 181.702 86.1275 181.451 86.1275C181.112 86.1275 180.735 85.9393 180.61 85.7761V85.7385L180.597 85.7259Z" fill="white"/>
<path d="M122.699 49.7237C122.699 48.9708 122.674 48.632 122.636 48.3434C122.887 48.243 123.464 48.1426 123.678 48.1426C123.841 48.1426 123.891 48.2179 123.891 49.0837V53.1119C123.891 53.7769 124.079 53.9401 124.506 54.0028V54.0405C124.443 54.3542 124.154 54.7181 123.853 54.7181C123.201 54.7181 122.912 54.3291 122.837 53.915C122.272 54.3667 121.431 54.7181 120.829 54.7181C119.323 54.7181 118.068 53.6389 118.068 51.6437C118.068 49.6484 119.587 48.1802 121.607 48.1802C122.172 48.1802 122.523 48.3183 122.699 48.3685V49.7237ZM122.699 49.2092C122.498 49.0837 122.084 48.9833 121.595 48.9833C120.528 48.9833 119.348 49.7237 119.348 51.4931C119.348 52.9111 120.227 53.7644 121.356 53.7644C121.808 53.7644 122.36 53.5762 122.699 53.3001V49.2092Z" fill="white"/>
<path d="M135.435 49.7237C135.435 48.9708 135.41 48.632 135.385 48.3434C135.636 48.243 136.201 48.1426 136.427 48.1426C136.577 48.1426 136.64 48.2179 136.64 49.0837V53.1119C136.64 53.7769 136.828 53.9401 137.255 54.0028V54.0405C137.192 54.3542 136.903 54.7181 136.602 54.7181C135.95 54.7181 135.661 54.3291 135.573 53.915C135.009 54.3667 134.168 54.7181 133.565 54.7181C132.06 54.7181 130.805 53.6389 130.805 51.6437C130.805 49.6484 132.323 48.1802 134.343 48.1802C134.908 48.1802 135.259 48.3183 135.435 48.3685V49.7237ZM135.435 49.2092C135.234 49.0837 134.82 48.9833 134.331 48.9833C133.264 48.9833 132.085 49.7237 132.085 51.4931C132.085 52.9111 132.963 53.7644 134.092 53.7644C134.544 53.7644 135.096 53.5762 135.435 53.3001V49.2092Z" fill="white"/>
<path d="M119.512 64.0052C119.512 63.2523 119.487 62.9135 119.449 62.6249C119.7 62.5245 120.265 62.4241 120.491 62.4241C120.642 62.4241 120.704 62.4994 120.704 63.3652V67.3934C120.704 68.0584 120.893 68.2216 121.319 68.2843V68.322C121.256 68.6357 120.968 68.9996 120.667 68.9996C120.014 68.9996 119.725 68.6106 119.638 68.1965C119.073 68.6482 118.232 68.9996 117.63 68.9996C116.124 68.9996 114.869 67.9204 114.869 65.9126C114.869 63.9048 116.388 62.4492 118.408 62.4492C118.973 62.4492 119.336 62.5872 119.5 62.6374V63.9927L119.512 64.0052ZM119.512 63.4907C119.311 63.3652 118.897 63.2648 118.408 63.2648C117.341 63.2648 116.162 64.0052 116.162 65.7746C116.162 67.1926 117.04 68.0459 118.157 68.0459C118.609 68.0459 119.161 67.8577 119.512 67.5816V63.4907Z" fill="white"/>
<path d="M110.074 78.3099C110.074 77.557 110.049 77.2182 110.011 76.9295C110.262 76.8292 110.839 76.7288 111.053 76.7288C111.203 76.7288 111.266 76.8041 111.266 77.6699V81.698C111.266 82.3631 111.454 82.5263 111.881 82.589V82.6266C111.818 82.9404 111.529 83.3043 111.228 83.3043C110.576 83.3043 110.287 82.9153 110.212 82.4886C109.647 82.9404 108.806 83.3043 108.204 83.3043C106.698 83.3043 105.443 82.2251 105.443 80.2173C105.443 78.2095 106.962 76.7539 108.982 76.7539C109.547 76.7539 109.898 76.8919 110.074 76.9421V78.2973V78.3099ZM110.074 77.7954C109.873 77.6699 109.471 77.5695 108.97 77.5695C107.903 77.5695 106.723 78.3099 106.723 80.0793C106.723 81.4973 107.602 82.3506 108.731 82.3506C109.183 82.3506 109.735 82.1623 110.074 81.8863V77.7954Z" fill="white"/>
<path d="M171.639 64.0052C171.639 63.2523 171.614 62.9135 171.576 62.6249C171.827 62.5245 172.405 62.4241 172.618 62.4241C172.768 62.4241 172.831 62.4994 172.831 63.3652V67.3934C172.831 68.0584 173.019 68.2216 173.446 68.2843V68.322C173.383 68.6357 173.095 68.9996 172.794 68.9996C172.141 68.9996 171.852 68.6106 171.765 68.1965C171.2 68.6482 170.359 68.9996 169.757 68.9996C168.251 68.9996 166.996 67.9204 166.996 65.9126C166.996 63.9048 168.514 62.4492 170.535 62.4492C171.1 62.4492 171.463 62.5872 171.627 62.6374V63.9927L171.639 64.0052ZM171.639 63.4907C171.438 63.3652 171.024 63.2648 170.535 63.2648C169.468 63.2648 168.289 64.0052 168.289 65.7746C168.289 67.1926 169.167 68.0459 170.284 68.0459C170.736 68.0459 171.288 67.8577 171.639 67.5816V63.4907Z" fill="white"/>
<mask id="mask0_2497_21599" style="mask-type:luminance" maskUnits="userSpaceOnUse" x="0" y="19" width="88" height="35">
<path d="M34.7328 44.6043C28.9981 39.7354 23.05 37.7025 17.1521 37.7025C11.2542 37.7025 5.85829 39.5723 0.5 42.6091C1.20273 46.0223 2.16898 49.4481 3.3862 52.8488C5.18066 51.5688 10.288 48.4693 17.3152 48.4693C21.8202 48.4693 27.1283 49.7493 32.8505 53.5892C44.5835 41.1032 55.8021 33.6493 67.6606 33.3607C71.5883 32.3317 75.5788 31.7544 79.5567 31.7544C81.5269 31.7544 83.4845 31.8925 85.4295 32.1937C86.6593 28.0526 87.4122 24.0997 87.6883 20.4104C84.7017 19.5195 81.6273 19.1179 78.5403 19.1179C59.4914 19.1179 39.8527 34.465 34.7328 44.5918" fill="white"/>
</mask>
<g mask="url(#mask0_2497_21599)">
<path d="M73.4697 -13.0793L-12.2383 24.7582L14.7183 85.8191L100.426 47.9816L73.4697 -13.0793Z" fill="url(#paint0_radial_2497_21599)"/>
</g>
<mask id="mask1_2497_21599" style="mask-type:luminance" maskUnits="userSpaceOnUse" x="3" y="33" width="65" height="24">
<path d="M32.851 53.6017C27.1163 49.7492 21.8207 48.4818 17.3158 48.4818C10.2885 48.4818 5.19373 51.5813 3.38672 52.8613C3.5624 53.3633 3.75063 53.8652 3.93886 54.3671C3.93886 54.3671 3.95141 54.3672 3.96396 54.3546C6.54899 52.8111 10.0375 51.0543 15.2452 51.0543C19.7502 51.0543 25.5352 52.3719 33.1271 56.2745C33.1397 56.2495 33.1522 56.2369 33.1648 56.2118C33.1648 56.2118 33.1773 56.1993 33.1899 56.1867C33.1899 56.1742 33.2024 56.1616 33.2149 56.1491C33.2275 56.124 33.2526 56.1114 33.2651 56.0863C33.2651 56.0738 33.2902 56.0612 33.3028 56.0361C40.8069 46.3109 53.7697 37.0123 67.6485 33.3857C55.79 33.6744 44.5715 41.1283 32.8385 53.6142" fill="white"/>
</mask>
<g mask="url(#mask1_2497_21599)">
<path d="M57.1828 9.63279L-5.06055 37.1113L13.8785 80.0112L76.1218 52.5327L57.1828 9.63279Z" fill="url(#paint1_radial_2497_21599)"/>
</g>
<mask id="mask2_2497_21599" style="mask-type:luminance" maskUnits="userSpaceOnUse" x="3" y="31" width="83" height="35">
<path d="M79.557 31.7793C75.5916 31.7793 71.5886 32.3565 67.6609 33.3855C53.782 37.0121 40.8192 46.3107 33.3151 56.0359C33.3151 56.0485 33.29 56.0736 33.2775 56.0861C33.2649 56.1112 33.2398 56.1237 33.2273 56.1488C33.2273 56.1488 33.2147 56.1739 33.2022 56.1865C33.2022 56.1865 33.1896 56.199 33.1771 56.2116C33.1771 56.2116 33.152 56.2492 33.1394 56.2743C25.5475 52.3717 19.7625 51.0541 15.2575 51.0541C10.0498 51.0541 6.5613 52.8109 3.97627 54.3544C3.97627 54.3544 3.96372 54.3544 3.95117 54.3669C4.03901 54.5928 4.12685 54.8187 4.21469 55.0446C5.62015 58.6209 7.28912 62.1722 9.23417 65.6231C8.9581 65.1212 8.69458 64.6318 8.43105 64.1298C11.5933 61.8334 15.5085 60.4029 19.6747 60.4029C23.8408 60.4029 28.0948 61.7707 32.2234 65.0208C45.5752 54.0281 56.1035 46.2228 66.1676 45.6958C69.8192 44.5162 73.4709 43.826 77.0222 43.826C78.2896 43.826 79.5445 43.9139 80.7742 44.1021C80.7868 44.1021 80.7993 44.1021 80.8119 44.1021C82.7569 40.0112 84.3004 36.0333 85.4298 32.2185C83.4848 31.9173 81.5272 31.7793 79.557 31.7793Z" fill="white"/>
</mask>
<g mask="url(#mask2_2497_21599)">
<path d="M70.6746 0.410185L-9.0918 37.9114L18.6871 96.998L98.4534 59.4968L70.6746 0.410185Z" fill="url(#paint2_radial_2497_21599)"/>
</g>
<mask id="mask3_2497_21599" style="mask-type:luminance" maskUnits="userSpaceOnUse" x="8" y="45" width="59" height="23">
<path d="M32.2103 65.0211C28.0943 61.771 23.7525 60.4032 19.6616 60.4032C15.5707 60.4032 11.5802 61.8212 8.41797 64.1302C8.68149 64.6321 8.94502 65.1341 9.22109 65.6235C9.22109 65.6235 9.22109 65.636 9.23364 65.6486C9.23364 65.6486 9.24618 65.6486 9.25873 65.636C11.7057 64.1804 14.4539 63.1012 17.9926 63.1012C21.7572 63.1012 26.4253 64.3184 32.5993 67.5811C32.5993 67.5811 32.6871 67.6313 32.7248 67.6438C32.7624 67.6689 32.8126 67.6815 32.8503 67.7066C32.8628 67.694 32.8754 67.6815 32.8879 67.6689C32.8879 67.6689 32.8879 67.6564 32.9005 67.6564C40.2791 60.215 53.1791 49.8874 66.1419 45.6962C56.0779 46.2358 45.5495 54.041 32.1977 65.0211" fill="white"/>
</mask>
<g mask="url(#mask3_2497_21599)">
<path d="M55.7104 23.4615L-0.0488281 49.676L18.878 89.9339L74.6372 63.7194L55.7104 23.4615Z" fill="url(#paint3_radial_2497_21599)"/>
</g>
<mask id="mask4_2497_21599" style="mask-type:luminance" maskUnits="userSpaceOnUse" x="9" y="43" width="72" height="35">
<path d="M77.009 43.826C73.4703 43.826 69.8061 44.5162 66.1544 45.6958C53.1916 49.8745 40.3041 60.2146 32.9129 67.656C32.9129 67.656 32.9129 67.656 32.9004 67.6686C32.8878 67.6811 32.8753 67.6937 32.8627 67.7062C32.8251 67.6811 32.7749 67.656 32.7372 67.6435C32.6996 67.6184 32.6494 67.5933 32.6118 67.5807C26.4378 64.3181 21.7697 63.1008 18.0051 63.1008C14.4663 63.1008 11.7182 64.18 9.27119 65.6357C9.27119 65.6357 9.25864 65.6357 9.24609 65.6482C11.1535 69.0615 13.3244 72.3869 15.7212 75.5993C15.4075 75.1727 15.1063 74.746 14.7926 74.3194C17.0765 73.2402 19.398 72.4998 21.845 72.4998C25.208 72.4998 28.8095 73.8927 32.8502 77.6824C44.5205 68.0701 53.8943 60.3778 62.8666 58.37C66.2924 56.8265 69.417 55.9104 71.9393 55.9104C72.7048 55.9104 73.4201 55.9983 74.0726 56.174C76.6953 52.0705 78.9541 48.0424 80.8238 44.1021C80.8113 44.1021 80.7987 44.1021 80.7862 44.1021C79.5564 43.9139 78.3015 43.826 77.0341 43.826H77.009Z" fill="white"/>
</mask>
<g mask="url(#mask4_2497_21599)">
<path d="M67.9276 16.3217L-3.77148 49.9232L22.1299 105.192L93.829 71.5902L67.9276 16.3217Z" fill="url(#paint4_radial_2497_21599)"/>
</g>
<mask id="mask5_2497_21599" style="mask-type:luminance" maskUnits="userSpaceOnUse" x="14" y="58" width="49" height="23">
<path d="M32.8369 77.6825C28.8087 73.8927 25.2073 72.4998 21.8317 72.4998C19.3847 72.4998 17.0632 73.2402 14.7793 74.3194C15.093 74.7461 15.3942 75.1727 15.7079 75.5994C17.6404 75.1476 19.3345 74.7837 21.1038 74.7837C24.3916 74.7837 27.9429 76.0386 33.8408 80.3302C40.5292 72.6253 52.9022 62.8624 62.8533 58.3826C53.881 60.3778 44.5197 68.0827 32.8369 77.695" fill="white"/>
</mask>
<g mask="url(#mask5_2497_21599)">
<path d="M54.2119 39.9171L6.36328 62.3412L23.4569 98.8157L71.3056 76.3916L54.2119 39.9171Z" fill="url(#paint5_radial_2497_21599)"/>
</g>
<mask id="mask6_2497_21599" style="mask-type:luminance" maskUnits="userSpaceOnUse" x="15" y="55" width="60" height="42">
<path d="M33.841 80.3305C24.7683 73.7299 21.2421 74.3197 15.7207 75.5997C21.5056 83.3171 28.6584 90.3695 36.9907 96.1544C53.2413 83.2042 65.6017 69.3881 74.0595 56.1743C73.407 55.9986 72.7043 55.9108 71.9263 55.9108C62.0756 55.9108 42.8133 69.9778 33.841 80.3305Z" fill="white"/>
</mask>
<g mask="url(#mask6_2497_21599)">
<path d="M67.5577 37.5476L3.05859 60.4006L22.2362 114.526L86.7352 91.6734L67.5577 37.5476Z" fill="url(#paint6_radial_2497_21599)"/>
</g>
</g>
<defs>
<radialGradient id="paint0_radial_2497_21599" cx="0" cy="0" r="1" gradientUnits="userSpaceOnUse" gradientTransform="translate(5.65569 54.1735) rotate(-23.82) scale(99.4358 99.4358)">
<stop stop-color="#E38D20"/>
<stop offset="0.03" stop-color="#E38D20"/>
<stop offset="0.23" stop-color="#E89D19"/>
<stop offset="0.64" stop-color="#F8C907"/>
<stop offset="0.8" stop-color="#FFDD00"/>
<stop offset="0.89" stop-color="#FFD801"/>
<stop offset="0.98" stop-color="#FFCC05"/>
<stop offset="1" stop-color="#FFC907"/>
</radialGradient>
<radialGradient id="paint1_radial_2497_21599" cx="0" cy="0" r="1" gradientUnits="userSpaceOnUse" gradientTransform="translate(5.7611 54.0799) rotate(-23.82) scale(99.4358 99.4358)">
<stop stop-color="#BE7618"/>
<stop offset="0.03" stop-color="#BE7618"/>
<stop offset="0.22" stop-color="#C18113"/>
<stop offset="0.56" stop-color="#CC9E09"/>
<stop offset="0.8" stop-color="#D5B700"/>
<stop offset="1" stop-color="#D2A70A"/>
</radialGradient>
<radialGradient id="paint2_radial_2497_21599" cx="0" cy="0" r="1" gradientUnits="userSpaceOnUse" gradientTransform="translate(10.3544 65.6479) rotate(-25.18) scale(92.7976 92.7975)">
<stop stop-color="#006299"/>
<stop offset="0.1" stop-color="#006299"/>
<stop offset="0.24" stop-color="#076BA2"/>
<stop offset="0.46" stop-color="#1A85BA"/>
<stop offset="0.75" stop-color="#3AAFE1"/>
<stop offset="0.81" stop-color="#3FB7E9"/>
<stop offset="0.89" stop-color="#1CA1D9"/>
<stop offset="0.96" stop-color="#0793CE"/>
<stop offset="1" stop-color="#008FCB"/>
</radialGradient>
<radialGradient id="paint3_radial_2497_21599" cx="0" cy="0" r="1" gradientUnits="userSpaceOnUse" gradientTransform="translate(10.2949 65.6902) rotate(-25.18) scale(92.7975 92.7975)">
<stop stop-color="#005282"/>
<stop offset="0.1" stop-color="#005282"/>
<stop offset="0.27" stop-color="#085D8C"/>
<stop offset="0.57" stop-color="#207DA9"/>
<stop offset="0.81" stop-color="#379BC5"/>
<stop offset="0.88" stop-color="#1B89B7"/>
<stop offset="0.95" stop-color="#077CAE"/>
<stop offset="1" stop-color="#0078AB"/>
</radialGradient>
<radialGradient id="paint4_radial_2497_21599" cx="0" cy="0" r="1" gradientUnits="userSpaceOnUse" gradientTransform="translate(19.1468 77.6652) rotate(-25.11) scale(90.8274 90.8274)">
<stop stop-color="#2D8E5C"/>
<stop offset="0.16" stop-color="#459B5A"/>
<stop offset="0.5" stop-color="#85BC57"/>
<stop offset="0.72" stop-color="#B3D455"/>
<stop offset="1" stop-color="#349C65"/>
</radialGradient>
<radialGradient id="paint5_radial_2497_21599" cx="0" cy="0" r="1" gradientUnits="userSpaceOnUse" gradientTransform="translate(19.1612 77.6554) rotate(-25.11) scale(90.8274 90.8274)">
<stop stop-color="#20784D"/>
<stop offset="0.41" stop-color="#609749"/>
<stop offset="0.72" stop-color="#93B046"/>
<stop offset="0.8" stop-color="#76A449"/>
<stop offset="0.98" stop-color="#2D8654"/>
<stop offset="1" stop-color="#278455"/>
</radialGradient>
<radialGradient id="paint6_radial_2497_21599" cx="0" cy="0" r="1" gradientUnits="userSpaceOnUse" gradientTransform="translate(27.3571 87.4901) rotate(-19.51) scale(67.5872 67.5872)">
<stop stop-color="#A5223C"/>
<stop offset="0.14" stop-color="#A5223C"/>
<stop offset="0.32" stop-color="#B72942"/>
<stop offset="0.68" stop-color="#E63C53"/>
<stop offset="0.74" stop-color="#EF4056"/>
<stop offset="0.81" stop-color="#EB3755"/>
<stop offset="0.94" stop-color="#E11F54"/>
<stop offset="1" stop-color="#DC1254"/>
</radialGradient>
<clipPath id="clip0_2497_21599">
<rect width="200" height="114.682" fill="white" transform="translate(0.5 0.294922)"/>
</clipPath>
</defs>
</svg>
