<svg width="17" height="16" viewBox="0 0 17 16" fill="none" xmlns="http://www.w3.org/2000/svg">
<path d="M9.35938 0.75V9.21875L12.3281 6.25L12.8594 5.71875L13.9219 6.75L13.3906 7.28125L9.14062 11.5312L8.60938 12.0625L8.07812 11.5312L3.82812 7.28125L3.29688 6.75L4.35938 5.71875L4.89062 6.25L7.85938 9.21875V0.75V0H9.35938V0.75ZM4.60938 9.5L6.10938 11H2.10938V14.5H15.1094V11H11.0781L12.5781 9.5H15.1094H16.6094V11V14.5V16H15.1094H2.10938H0.609375V14.5V11V9.5H2.10938H4.60938ZM14.1094 12.75C14.1094 13.1875 13.7656 13.5 13.3594 13.5C12.9219 13.5 12.6094 13.1875 12.6094 12.75C12.6094 12.3438 12.9219 12 13.3594 12C13.7656 12 14.1094 12.3438 14.1094 12.75Z" fill="white"/>
</svg>
