<svg width="226" height="235" viewBox="0 0 226 235" fill="none" xmlns="http://www.w3.org/2000/svg">
<path d="M112.446 38.3975C71.3465 38.3975 37.8965 71.8475 37.8965 112.947C37.8965 151.797 67.8215 183.822 105.846 187.197C103.746 187.047 101.721 186.747 99.6965 186.372V112.872H61.3715V87.5225H99.6965V53.4725H125.196V87.5225H163.521V112.947H125.196V186.447C123.171 186.822 121.146 187.047 119.046 187.272C157.071 183.897 186.996 151.872 186.996 113.022C187.071 71.8475 153.546 38.3975 112.446 38.3975Z" fill="#204199" stroke="#034A9A" stroke-miterlimit="10"/>
<path d="M118.747 187.272C117.772 187.347 116.797 187.422 115.822 187.497C116.872 187.422 117.847 187.347 118.747 187.272Z" fill="#03499A"/>
<path d="M112.447 187.497C111.472 187.497 110.422 187.497 109.447 187.422C110.497 187.497 111.472 187.497 112.447 187.497Z" fill="#03499A"/>
<g opacity="0.5">
<path d="M99.7715 186.222C100.371 186.297 100.896 186.447 101.496 186.522C100.896 186.372 100.296 186.297 99.7715 186.222Z" fill="black"/>
<path d="M101.721 186.523C101.646 186.523 101.571 186.523 101.496 186.448C101.496 186.448 101.646 186.523 101.721 186.523Z" fill="black"/>
<path d="M120.396 186.823C120.696 186.823 120.996 186.748 121.296 186.748C120.996 186.823 120.696 186.823 120.396 186.823Z" fill="black"/>
<path d="M121.297 186.747C122.572 186.597 123.922 186.372 125.197 186.147C123.922 186.447 122.572 186.597 121.297 186.747Z" fill="black"/>
<path d="M106.146 187.047C107.121 187.122 108.096 187.197 109.071 187.272C108.096 187.122 107.121 187.122 106.146 187.047Z" fill="black"/>
<path d="M118.747 187.047C117.772 187.122 116.797 187.197 115.822 187.272C116.797 187.122 117.772 187.122 118.747 187.047Z" fill="black"/>
</g>
<path d="M125.198 53.4724H99.698V87.5224H61.373V113.022H99.698V186.522C103.823 187.272 108.098 187.647 112.448 187.647C116.798 187.647 121.073 187.272 125.198 186.522V113.022H163.523V87.5224H125.198V53.4724Z" fill="#C52032"/>
<path d="M112.448 187.722C108.473 187.722 104.498 187.422 100.598 186.747V112.047H62.2734V88.3474H100.598V54.2974H124.373V88.3474H162.698V112.047H124.373V186.747C120.398 187.422 116.423 187.722 112.448 187.722Z" fill="#EAEBEC"/>
<path d="M112.447 66.0724V99.6724L124.297 88.3474L124.372 54.2974L112.447 66.0724Z" fill="#9C9EA1"/>
<path d="M112.447 99.7474L150.622 99.6724L162.622 112.047H124.297L112.447 99.7474Z" fill="#808184"/>
<path d="M124.372 186.747L112.447 173.922V99.7473L124.297 112.047L124.372 186.747Z" fill="#9C9EA1"/>
<path d="M74.7976 99.7473H112.448L100.598 112.047L62.3477 112.122L74.7976 99.7473Z" fill="#808184"/>
<path d="M100.598 186.747L112.448 173.922L124.373 186.747C124.373 186.747 111.773 188.997 100.598 186.747Z" fill="#898B8D"/>
<path d="M162.623 88.4224V112.047L150.623 99.6724L162.623 88.4224Z" fill="#9C9EA1"/>
<path d="M112.448 224.773C50.798 224.773 0.623047 174.598 0.623047 112.948C0.623047 51.2976 50.798 1.12256 112.448 1.12256C174.098 1.12256 224.273 51.2976 224.273 112.948C224.273 174.598 174.098 224.773 112.448 224.773ZM112.448 38.4726C92.573 38.4726 73.823 46.1976 59.798 60.2975C45.698 74.3975 37.973 93.0725 37.973 113.023C37.973 132.973 45.698 151.648 59.798 165.748C73.898 179.848 92.573 187.573 112.448 187.573C132.323 187.573 151.073 179.848 165.098 165.748C179.198 151.648 186.923 132.973 186.923 113.023C186.923 93.0725 179.198 74.3975 165.098 60.2975C151.073 46.1976 132.398 38.4726 112.448 38.4726Z" fill="#E6E7E8"/>
<path d="M112.447 225.072C50.5723 225.072 0.322266 174.747 0.322266 112.948C0.322266 51.1475 50.6473 0.82251 112.447 0.82251C174.247 0.82251 224.572 51.1475 224.572 112.948C224.572 174.747 174.322 225.072 112.447 225.072ZM112.447 1.49751C50.9473 1.49751 0.997264 51.5225 0.997264 112.948C0.997264 174.447 51.0223 224.397 112.447 224.397C173.947 224.397 223.897 174.372 223.897 112.948C223.972 51.4475 173.947 1.49751 112.447 1.49751ZM112.447 187.798C92.4223 187.798 73.6723 179.997 59.4973 165.898C45.3973 151.798 37.5973 132.972 37.5973 112.948C37.5973 92.9225 45.3973 74.1725 59.4973 59.9975C73.6723 45.8975 92.4223 38.0975 112.447 38.0975C132.472 38.0975 151.222 45.8975 165.397 59.9975C179.497 74.1725 187.297 92.9225 187.297 112.948C187.297 132.972 179.497 151.723 165.397 165.898C151.222 179.997 132.472 187.798 112.447 187.798ZM112.447 38.7725C92.6473 38.7725 73.9723 46.4975 60.0223 60.5225C45.9973 74.5475 38.2723 93.1475 38.2723 112.948C38.2723 132.747 45.9973 151.422 60.0223 165.372C74.0473 179.397 92.6473 187.122 112.447 187.122C132.247 187.122 150.922 179.397 164.872 165.372C178.897 151.347 186.622 132.747 186.622 112.948C186.622 93.1475 178.897 74.4725 164.872 60.5225C150.922 46.4975 132.247 38.7725 112.447 38.7725Z" fill="#929497"/>
<path d="M112.447 2.92261C51.6969 2.92261 2.42188 52.1976 2.42188 112.948C2.42188 173.698 51.6969 222.973 112.447 222.973C173.197 222.973 222.472 173.698 222.472 112.948C222.472 52.1976 173.197 2.92261 112.447 2.92261ZM166.447 166.873C152.047 181.273 132.847 189.223 112.522 189.223C92.1969 189.223 72.9969 181.273 58.5969 166.873C44.1969 152.473 36.2469 133.273 36.2469 112.948C36.2469 92.5476 44.1969 73.4226 58.5969 59.0226C72.9969 44.6226 92.1969 36.6726 112.522 36.6726C132.847 36.6726 152.047 44.6226 166.447 59.0226C180.847 73.4226 188.797 92.6226 188.797 112.948C188.797 133.348 180.847 152.473 166.447 166.873Z" fill="#C52032"/>
<path d="M206.948 196.873H20.7227C10.3727 196.873 1.97266 205.273 1.97266 215.548C1.97266 225.898 10.3727 234.223 20.7227 234.223H206.948C217.298 234.223 225.698 225.823 225.698 215.548C225.623 205.273 217.223 196.873 206.948 196.873ZM207.098 232.573H20.9477C11.5727 232.573 3.99766 224.998 3.99766 215.623C3.99766 206.248 11.5727 198.673 20.9477 198.673H207.173C216.548 198.673 224.123 206.248 224.123 215.623C224.048 224.998 216.473 232.573 207.098 232.573Z" fill="#E6E7E8"/>
<path d="M206.947 234.673H20.7219C10.2219 234.673 1.67188 226.123 1.67188 215.623C1.67188 205.123 10.2219 196.573 20.7219 196.573H206.947C217.447 196.573 225.997 205.123 225.997 215.623C225.997 226.123 217.447 234.673 206.947 234.673ZM20.7219 197.248C10.5969 197.248 2.34687 205.498 2.34687 215.623C2.34687 225.748 10.5969 233.998 20.7219 233.998H206.947C217.072 233.998 225.322 225.748 225.322 215.623C225.322 205.498 217.072 197.248 206.947 197.248H20.7219ZM207.097 232.873H20.9469C11.4219 232.873 3.69688 225.148 3.69688 215.623C3.69688 211.048 5.49687 206.698 8.72187 203.398C11.9469 200.173 16.2969 198.373 20.9469 198.373H207.172C211.747 198.373 216.097 200.173 219.397 203.398C222.622 206.623 224.422 210.973 224.422 215.623C224.422 220.198 222.622 224.548 219.397 227.848C216.097 231.073 211.747 232.873 207.097 232.873ZM20.9469 199.048C16.5219 199.048 12.3219 200.773 9.24687 203.923C6.09687 207.073 4.37187 211.198 4.37187 215.623C4.37187 224.773 11.7969 232.198 20.9469 232.198H207.172C211.597 232.198 215.797 230.473 218.872 227.323C222.022 224.173 223.747 220.048 223.747 215.623C223.747 211.198 222.022 206.998 218.872 203.923C215.722 200.773 211.597 199.048 207.172 199.048H20.9469Z" fill="#929497"/>
<path d="M20.9461 198.673H207.171C216.546 198.673 224.121 206.248 224.121 215.623C224.121 224.998 216.546 232.573 207.171 232.573H20.9461C11.5711 232.573 3.99609 224.998 3.99609 215.623C3.99609 206.248 11.5711 198.673 20.9461 198.673Z" fill="#204199"/>
<path d="M166.746 179.623L167.946 182.473L173.046 178.123L175.521 181.048L171.921 184.123L173.871 186.373L177.471 183.223L179.496 185.623L174.996 189.523L177.321 191.398L183.696 185.773L173.421 173.923L166.746 179.623Z" fill="white"/>
<path d="M56.7223 175.723L48.3223 185.398L45.3223 182.848L43.4473 185.023L51.3973 191.923L53.8723 190.198L50.5723 187.423L59.1223 177.598L56.7223 175.723Z" fill="white"/>
<path d="M193.821 168.073C193.296 166.798 192.471 165.598 191.271 164.698C187.596 161.848 182.421 162.598 179.646 166.198C179.196 166.723 178.821 167.398 178.521 168.073C177.771 169.723 177.321 171.598 177.546 172.648L183.246 177.148L187.371 171.898L185.646 169.348L182.796 172.948L180.621 171.298C180.696 170.248 181.146 168.973 181.746 168.073C181.746 167.998 181.821 167.998 181.821 167.923C183.321 166.048 186.546 165.073 189.021 167.023C189.396 167.323 189.771 167.698 190.071 168.073C191.571 169.948 191.796 172.498 190.296 174.448C189.021 176.098 187.671 176.398 186.096 176.848L186.846 179.773C188.946 179.398 190.896 178.498 192.546 176.323C194.421 173.923 194.871 170.773 193.821 168.073Z" fill="white"/>
<path d="M50.0465 168.823L44.7965 172.948L40.9715 168.073L40.8215 167.923L46.2965 163.723L44.2715 161.398L35.7215 168.073L31.5215 171.373L33.6965 173.473L38.5715 169.723L42.4715 174.748L37.3715 178.723L39.4715 180.898L52.0715 171.148L50.0465 168.823Z" fill="white"/>
<path d="M35.4206 162.523C39.4706 160.423 41.0456 155.398 39.0206 151.348C36.9206 147.298 31.9706 145.573 27.9206 147.673C23.8706 149.773 22.2956 154.798 24.3206 158.848C26.3456 162.973 31.3706 164.623 35.4206 162.523ZM27.0956 157.498C25.8206 155.023 26.8706 151.873 29.3456 150.598C31.8206 149.323 34.9706 150.373 36.2456 152.848C37.5206 155.323 36.4706 158.473 33.9956 159.748C31.5206 161.023 28.3706 159.973 27.0956 157.498Z" fill="white"/>
<path d="M186.396 157.273L188.571 159.448L191.646 153.523L195.021 155.248L192.921 159.523L195.471 160.873L197.646 156.598L200.421 158.023L197.721 163.348L200.571 164.173L204.396 156.673L190.371 149.473L186.396 157.273Z" fill="white"/>
<path d="M33.8457 139.423L25.8207 140.023V139.948L32.7207 134.323L24.0207 132.373V132.298L31.5207 129.298L30.5457 126.448L15.4707 132.973V133.048L26.9457 135.673L17.7957 143.023V143.098L34.1457 142.348L33.8457 139.423Z" fill="white"/>
<path d="M194.272 139.348L192.697 144.148L191.797 146.923L194.347 148.573L195.772 144.148L196.072 143.098L199.297 144.148L208.672 147.148L209.272 144.223L209.122 144.148L194.272 139.348Z" fill="white"/>
<path d="M195.096 136.873L197.796 138.223L199.071 132.673L211.971 135.598L212.271 132.598L196.896 129.073L195.096 136.873Z" fill="white"/>
<path d="M30.8465 122.848L26.6465 121.423L26.4965 120.298L26.0465 115.423L29.8715 113.173L29.0465 109.948L13.8965 119.773V119.848L15.1715 120.298L30.6965 126.148L30.8465 122.848ZM23.0465 120.298L19.3715 119.248L23.4965 116.998L23.7965 120.298V120.523L23.0465 120.298Z" fill="white"/>
<path d="M18.6963 107.173C24.2463 107.848 23.3463 100.798 26.4213 101.173C27.3963 101.323 28.1463 102.298 27.9963 103.423C27.7713 105.148 26.8713 105.523 25.9713 106.198L27.8463 108.523C29.6463 107.398 30.6213 105.823 30.9213 103.873C31.2963 100.948 29.7213 98.3226 26.8713 98.0226C20.7213 97.2726 21.7713 104.323 19.1463 104.023C17.7213 103.873 17.3463 102.823 17.4963 101.773C17.5713 100.948 18.3963 99.8976 19.2213 99.2226L17.2713 97.0476C15.9213 97.7976 14.7963 99.5976 14.6463 101.173C14.1963 104.323 15.7713 106.798 18.6963 107.173Z" fill="white"/>
<path d="M206.796 110.473C202.221 110.023 198.171 113.398 197.721 117.973C197.646 118.798 197.646 119.548 197.796 120.298C198.471 123.823 201.321 126.748 205.146 127.123C209.496 127.573 213.396 124.498 214.146 120.298C214.221 120.073 214.221 119.848 214.221 119.623C214.671 115.048 211.371 110.923 206.796 110.473ZM210.921 120.298C210.246 122.623 207.921 124.198 205.446 123.973C203.346 123.748 201.621 122.248 201.021 120.298C200.796 119.623 200.796 119.023 200.796 118.348C201.096 115.573 203.646 113.473 206.421 113.698C209.196 113.998 211.296 116.548 211.071 119.323C211.071 119.623 210.996 119.923 210.921 120.298Z" fill="white"/>
<path d="M38.6473 75.7477L40.7473 73.2727L40.2223 72.5227L38.2723 69.5977L41.4973 64.4977L45.8473 65.0227L47.1223 62.0227L29.1973 60.5227V60.5977L36.6223 72.5977L38.6473 75.7477ZM33.9973 63.4477L38.5723 64.1977L36.6973 67.1977L33.9973 63.4477Z" fill="white"/>
<path d="M188.422 75.2227L189.997 77.8477L198.247 74.1727L193.522 86.5477V86.6227L208.597 79.9476L207.022 77.3226L198.622 81.0727L201.997 72.5227L203.497 68.5476V68.4727L194.497 72.5227L188.422 75.2227Z" fill="white"/>
<path d="M34.5223 86.3227L28.2973 83.9227L30.5473 77.9977L36.9973 80.4727L37.8973 77.5477L24.7723 72.5227L22.8223 71.7727L22.6723 72.5227L22.0723 74.7727L27.8473 76.9477L25.5223 82.8727L19.4473 80.5477L18.6973 83.5477L33.6223 89.2477L34.5223 86.3227Z" fill="white"/>
<path d="M204.396 95.1726C203.046 95.3226 201.846 95.7726 200.796 96.4476C198.321 98.0226 196.821 100.873 197.271 104.248C197.346 104.923 197.721 106.123 198.171 106.723L201.996 106.648C201.246 105.898 200.496 104.998 200.346 103.723C200.046 101.098 201.921 98.6226 204.846 98.3226C207.471 98.0226 210.171 99.5976 210.546 102.373C210.696 103.648 210.396 104.773 209.796 105.673L213.396 104.698C213.696 104.023 213.771 102.823 213.621 102.073C213.321 99.5976 211.971 97.5726 210.171 96.3726C208.446 95.3976 206.496 94.8726 204.396 95.1726Z" fill="white"/>
<path d="M180.396 62.7727L184.746 61.9477L188.196 66.8977L186.021 70.7227L187.671 72.4477L188.271 73.0477L188.571 72.4477L196.596 57.1477L178.971 59.8477L180.396 62.7727ZM192.096 60.3727L189.621 64.2727L187.596 61.3477L192.096 60.3727Z" fill="white"/>
<path d="M167.721 49.2725L168.246 48.5975L177.621 36.5225L175.071 34.9475L165.246 47.5475L166.821 48.5975L167.721 49.2725Z" fill="white"/>
<path d="M160.596 40.4976L165.021 33.6726L167.796 29.4726L165.021 28.1226L161.421 33.6726L156.471 41.3226L163.146 45.6725L165.396 43.6476L160.596 40.4976Z" fill="white"/>
<path d="M51.5457 41.9226C50.5707 40.7976 51.0207 39.8226 51.8457 39.1476C52.5207 38.6226 53.7207 38.3226 54.8457 38.4726V35.5476C53.2707 35.2476 51.3207 35.7726 50.1207 36.8226C47.7957 38.8476 47.2707 41.6976 49.2207 44.0226C52.8957 48.2226 56.8707 42.3726 58.9707 44.7726C59.5707 45.5226 59.4207 46.7226 58.6707 47.4726C57.3957 48.5976 56.4207 48.2976 55.2957 48.1476V48.5976L55.1457 51.1476C57.2457 51.5226 58.9707 51.0726 60.4707 49.7226C60.8457 49.3476 61.2207 48.9726 61.5207 48.5976C62.8707 46.7226 62.9457 44.4726 61.4457 42.6726C57.2457 38.0226 53.2707 43.9476 51.5457 41.9226Z" fill="white"/>
<path d="M187.597 45.9726C184.372 42.5226 179.422 42.5976 176.122 45.7476C175.222 46.5726 174.547 47.5476 174.022 48.5976C172.747 51.3726 173.197 54.6726 175.597 57.2976C176.047 57.8226 177.022 58.5726 177.772 58.7976L180.847 56.4726C179.797 56.3226 178.672 56.0226 177.772 55.1226C176.122 53.3976 176.047 50.6226 177.697 48.6726C177.847 48.5226 178.072 48.2976 178.222 48.0726C180.172 46.2726 183.322 45.9726 185.197 47.9976C185.422 48.2226 185.572 48.4476 185.722 48.5976C186.247 49.4226 186.472 50.2476 186.547 51.0726L188.572 48.5976L188.872 48.2226C188.722 47.4726 188.122 46.5726 187.597 45.9726Z" fill="white"/>
<path d="M51.6218 50.9977C46.9718 46.9477 43.8968 53.3977 41.8718 51.5977C40.7468 50.6227 41.0468 49.6477 41.7968 48.8227C41.8718 48.7477 41.9468 48.6727 42.0218 48.5977C42.6218 48.0727 43.6718 47.7727 44.6468 47.6977L44.1968 44.8477C42.6218 44.6977 40.7468 45.5977 39.6968 46.7977C39.1718 47.3977 38.7968 47.9977 38.5718 48.5977C37.7468 50.4727 38.1218 52.4977 39.8468 53.9977C44.0468 57.6727 47.1968 51.2977 49.5968 53.3977C50.3468 53.9977 50.3468 55.2727 49.6718 56.0977C48.5468 57.3727 47.5718 57.2227 46.3718 57.2977L46.5968 60.2977C48.6968 60.3727 50.4218 59.6227 51.6968 58.1977C53.5718 55.8727 53.7968 52.8727 51.6218 50.9977Z" fill="white"/>
<path d="M151.222 28.3477L149.122 30.5977L153.322 32.4727L152.797 33.5977L152.197 34.9477C151.147 35.0977 149.722 35.0227 148.672 34.5727C148.147 34.3477 147.697 34.0477 147.247 33.5977C145.822 32.2477 144.997 29.9977 146.047 27.7477C147.247 24.9727 150.247 23.5477 152.947 24.7477C154.822 25.5727 155.422 26.8477 156.247 28.2727L158.947 26.8477C158.122 24.8977 156.697 23.2477 154.222 22.1227C150.247 20.3977 145.222 21.8977 143.272 26.2477C142.147 28.7227 142.372 31.4227 143.572 33.5977C144.397 35.0977 145.747 36.4477 147.547 37.1977C149.722 38.1727 152.947 38.3227 154.372 37.6477L156.172 33.5977L157.297 31.0477L151.222 28.3477Z" fill="white"/>
<path d="M63.9219 27.2227L64.2969 33.6727L65.0469 45.0727L68.0469 43.8727L67.6719 39.5227L72.9219 36.5227L76.5219 39.0727L79.0719 37.0477L73.8969 33.7477L63.9219 27.2227ZM67.2969 36.5977L66.8469 33.6727L66.6219 32.0977L68.7969 33.6727L70.3719 34.8727L67.2969 36.5977Z" fill="white"/>
<path d="M87.9223 30.6726L82.5973 32.8476L77.6473 20.6226L74.9473 22.1226L79.6723 33.6726L80.8723 36.6726L88.2973 33.6726L87.9223 30.6726Z" fill="white"/>
<path d="M90.9961 18.7475L90.4711 16.5725L87.6211 17.6225L87.8461 18.7475L91.1461 32.9975L98.9461 31.1975L99.0211 28.1225L93.4711 29.4725L90.9961 18.7475Z" fill="white"/>
<path d="M136.222 18.7476L135.022 25.6476L130.297 18.7476L127.372 14.6226H127.297L126.622 18.7476L124.447 30.8226L127.522 30.9726L129.097 22.1226L136.747 32.9976H136.822L139.297 18.7476L139.672 16.7976L136.597 16.5726L136.222 18.7476Z" fill="white"/>
<path d="M115.221 13.7976L112.521 18.7476L106.746 29.4726L109.896 30.0726L111.846 26.1726L117.846 26.3976L119.571 30.4476L122.796 30.0726L117.471 18.7476L115.221 13.7976ZM113.196 23.5476L115.071 19.3476L116.721 23.6976L113.196 23.5476Z" fill="white"/>
<path fill-rule="evenodd" clip-rule="evenodd" d="M17.1965 213.673L18.6965 217.273H15.6965L17.1965 213.673ZM13.2215 222.898L14.7965 219.523H19.8965L21.4715 222.898L24.1715 222.523L17.1965 209.023H17.1215L10.5215 222.523L13.2215 222.898ZM31.7465 222.898L32.7215 216.148H32.7965L36.0965 222.898H36.1715L39.3965 216.148H39.4715L40.5215 222.898L43.0715 222.598L40.5215 208.948L36.1715 217.873L31.8215 208.948H31.7465L29.2715 222.598L31.7465 222.898ZM43.7465 215.923C43.7465 219.748 46.8965 222.898 50.7965 222.898C54.6215 222.898 57.8465 219.823 57.8465 215.923C57.8465 212.023 54.6965 208.948 50.7965 208.948C46.8965 208.948 43.7465 212.098 43.7465 215.923ZM46.3715 215.923C46.3715 213.523 48.3215 211.573 50.7215 211.573C53.1215 211.573 55.0715 213.523 55.0715 215.923C55.0715 218.323 53.1215 220.273 50.7215 220.273C48.3965 220.273 46.3715 218.323 46.3715 215.923ZM59.5715 222.748L62.1215 222.598V215.923H62.1965L66.6965 222.898L69.4715 222.223L65.8715 216.898C67.4465 216.373 68.4215 215.023 68.4215 213.373C68.4215 210.523 66.3965 209.248 63.8465 209.248H59.5715V222.748ZM62.1215 211.798H63.0965C64.3715 211.798 65.4965 211.948 65.4965 213.523C65.4965 215.023 64.2965 215.398 63.0215 215.398H62.1215V211.798ZM77.7215 222.598L78.5465 220.123H72.9215V216.898H76.9715V214.423H72.9215V211.798H77.9465L77.4965 209.323H70.2965V222.673H77.7215V222.598ZM92.8715 222.598L93.6965 220.123H88.0715V216.898H92.1215V214.423H88.0715V211.798H93.0965L92.6465 209.323H85.5215V222.673H92.8715V222.598ZM93.6965 221.998L96.1715 222.898L99.2465 218.098L102.396 222.898L104.871 221.998L100.746 215.773L104.571 209.848L102.171 208.948L99.2465 213.748L96.3215 208.948L93.9965 209.848L97.8215 215.773L93.6965 221.998ZM114.696 219.223C114.021 219.823 113.196 220.348 112.071 220.348C109.821 220.348 107.946 218.473 107.946 215.998C107.946 213.748 109.596 211.648 111.921 211.648C113.046 211.648 113.946 212.023 114.621 212.623L114.171 209.548C113.646 209.248 112.671 209.098 111.996 209.098C108.021 209.098 105.246 212.248 105.246 216.073C105.246 219.973 107.946 223.048 112.071 223.048C112.671 223.048 113.721 222.898 114.246 222.523L114.696 219.223ZM124.146 222.598L124.971 220.123H119.271V216.898H123.321V214.423H119.271V211.798H124.296L123.846 209.323H116.721V222.673H124.146V222.598ZM133.221 222.598L133.896 220.123H129.021V208.948L126.471 209.248V222.598H133.221ZM141.846 222.598L142.521 220.123H137.646V208.948L135.096 209.248V222.598H141.846ZM151.071 222.598L151.896 220.123H146.271V216.898H150.321V214.423H146.271V211.798H151.296L150.846 209.323H143.721V222.673H151.071V222.598ZM155.871 222.598V214.948L163.821 222.898H163.896V208.948L161.346 209.248V216.973L153.396 208.948H153.321V222.898L155.871 222.598ZM165.021 211.798H168.621V222.823L171.171 222.673V211.798H174.471V209.323H165.546L165.021 211.798ZM188.271 216.898L190.896 222.898H190.971L196.746 209.248L194.046 208.948L190.821 217.123L189.546 214.273L191.646 209.248L189.396 208.948L188.346 211.498L187.296 208.948L185.046 209.248L187.071 214.273L185.796 217.273L182.571 209.023L179.946 209.323L185.721 222.973H185.796L188.271 216.898ZM201.621 213.673L203.121 217.273H200.121L201.621 213.673ZM197.571 222.898L199.146 219.523H204.246L205.821 222.898L208.596 222.523L201.621 209.023L194.946 222.523L197.571 222.898ZM211.296 217.873L209.121 222.448L211.746 222.973L217.671 209.698L215.121 209.023L212.496 215.173L209.421 209.023L206.946 209.698L211.296 217.873Z" fill="white"/>
<path d="M99.6976 113.022H63.4727V116.097H99.6976V113.022Z" fill="#003375"/>
<path d="M128.122 56.0225H125.197V87.5225H128.122V56.0225Z" fill="#003375"/>
<path d="M163.522 89.9226H166.597V116.023H128.647V185.398C127.897 185.548 126.022 185.923 125.197 186.073V113.098H163.522V89.9226Z" fill="#003375"/>
<path d="M171.173 67.4226C157.523 51.2976 137.198 41.0226 114.398 41.0226C73.373 41.0226 40.073 74.3976 40.073 115.348C40.073 132.448 45.923 148.273 55.673 160.873C44.723 147.898 38.123 131.173 38.123 112.948C38.123 71.9226 71.498 38.6226 112.448 38.6226C136.298 38.6226 157.598 49.8726 171.173 67.4226Z" fill="#003375"/>
</svg>
