<svg width="171" height="58" viewBox="0 0 171 58" fill="none" xmlns="http://www.w3.org/2000/svg">
<g clip-path="url(#clip0_2497_21688)">
<path d="M43.4639 41.2459C44.1451 38.3496 44.8289 35.4532 45.5152 32.5363H48.8982C48.8162 32.964 48.765 33.3251 48.6728 33.6759C47.5767 37.8374 46.4474 41.9912 45.3974 46.1629C45.1772 47.0412 44.8238 47.3178 43.93 47.2999C41.702 47.2564 41.702 47.2999 41.154 45.1052C40.6137 42.9413 40.0733 40.7773 39.2666 38.6159C38.6802 41.0359 38.0425 43.4432 37.5355 45.8786C37.3152 46.9388 36.9234 47.3614 35.7787 47.305C33.2152 47.177 33.8042 47.5765 33.2024 45.3152C32.0884 41.1179 31.0026 36.9155 29.8477 32.4902C30.9258 32.4902 31.8861 32.4288 32.8285 32.5286C33.0974 32.5568 33.4585 33.0152 33.5379 33.3379C34.1807 35.9295 34.7646 38.5365 35.6071 41.1691C36.0194 39.5378 36.4343 37.9065 36.8466 36.2752C37.0335 35.5326 37.2999 34.7976 37.3895 34.0421C37.5355 32.7796 38.1526 32.4518 39.4049 32.4313C40.7391 32.4083 41.2334 32.818 41.4818 34.1087C41.9479 36.5211 42.6214 38.8925 43.2079 41.2818C43.2898 41.2715 43.3743 41.2613 43.4563 41.2511L43.4639 41.2459Z" fill="white"/>
<path d="M16.8697 47.2719C15.8453 47.2719 14.9439 47.3564 14.0681 47.2361C13.6301 47.1772 13.1538 46.8263 12.8491 46.4755C10.7491 44.0606 8.69018 41.6123 6.61329 39.1769C6.34696 38.8671 6.06014 38.5726 5.58381 38.0553V47.1746H2.25977V32.5647C4.03447 32.4674 5.676 32.1089 7.05632 34.0295C8.93858 36.6493 11.205 38.9951 13.5584 41.7532V32.5468H16.8697V47.2719Z" fill="white"/>
<path d="M33.8664 8.42554C34.0355 8.80455 34.225 9.08625 34.2864 9.391C35.1238 13.6626 35.2186 17.9444 34.2122 22.1955C33.5771 24.8665 31.933 26.7513 29.2927 27.622C26.8368 28.4313 25.2618 27.3531 25.0749 24.782C24.9135 22.5463 25.1671 20.3772 26.0506 18.2773C27.4975 14.8355 31.2492 9.97488 33.869 8.42554H33.8664Z" fill="white"/>
<path d="M24.9922 27.6681C24.0549 27.7219 23.3328 27.9063 22.6695 27.7782C20.0343 27.2661 18.1393 25.7039 17.3095 23.1763C15.7909 18.559 16.0701 13.847 16.9382 9.14003C16.9613 9.01967 17.033 8.90186 17.1098 8.80199C17.1841 8.70467 17.2916 8.63297 17.5221 8.42554C18.0496 8.87625 18.6745 9.25783 19.1047 9.79818C20.9511 12.1235 22.754 14.4846 24.5441 16.8534C25.0947 17.5807 25.0563 18.3567 24.7669 19.2504C23.9013 21.9291 23.5146 24.6488 24.9948 27.6681H24.9922Z" fill="white"/>
<path d="M16.6209 7.28596C15.3098 10.8507 15.174 14.2849 15.3174 17.7293C15.4634 21.2198 15.95 24.636 18.9385 27.1611C16.9769 27.2302 15.1484 26.2904 13.6119 24.4798C11.7655 22.3056 10.6336 19.7268 10.3058 16.9687C9.87553 13.3502 9.79358 9.68039 9.72956 6.02855C9.70139 4.323 10.2392 4.04898 11.8064 4.76859C13.4608 5.52918 15.0409 6.4511 16.6235 7.28339L16.6209 7.28596Z" fill="white"/>
<path d="M32.082 27.3556C35.6724 24.1365 35.8773 20.0954 35.9003 16.0646C35.9131 13.9877 35.5725 11.9057 35.3113 9.83391C35.214 9.05796 34.8888 8.31018 34.584 7.26021C36.2742 6.40999 38.1206 5.46758 39.9798 4.55078C40.8557 4.12055 41.3115 4.5892 41.3858 5.40612C41.9133 11.3372 41.7648 17.1965 38.8582 22.6051C37.4906 25.1506 35.4829 26.9714 32.082 27.353V27.3556Z" fill="white"/>
<path d="M17.8242 45.223C18.5413 44.3703 19.1431 43.6583 19.791 42.8901C20.1521 43.118 20.444 43.369 20.7821 43.5072C21.7578 43.9042 22.7283 44.3959 23.7476 44.5828C24.7719 44.7698 26.0908 44.8492 26.3904 43.4842C26.7003 42.0655 25.3353 41.9553 24.4211 41.625C23.4198 41.2639 22.3647 41.059 21.3685 40.6928C19.2942 39.9322 18.4465 38.7132 18.4721 36.6697C18.4952 34.6926 19.5503 33.1382 21.4812 32.5184C24.2828 31.6196 26.8463 32.2419 29.3483 34.0114C28.79 34.8565 28.265 35.6504 27.6914 36.5186C27.3021 36.3162 26.9897 36.1114 26.6465 35.9885C25.7732 35.6735 24.9025 35.2868 23.996 35.1331C23.0945 34.982 22.0779 35.1075 21.8499 36.2317C21.622 37.3585 22.5926 37.6325 23.4019 37.904C24.6516 38.324 25.9423 38.6339 27.1715 39.1102C28.9436 39.7965 29.863 41.1231 29.8041 43.0719C29.7452 45.0335 28.7669 46.5393 26.8924 47.1616C23.5709 48.2628 20.6207 47.4075 17.8242 45.223Z" fill="white"/>
<path d="M25.7637 0.215273C26.2247 0.963055 26.7599 1.67754 27.1364 2.4663C28.1915 4.69172 29.2081 6.93507 30.1608 9.20402C30.3119 9.56255 30.1838 10.2002 29.9431 10.528C28.5065 12.4666 26.9981 14.3514 25.4769 16.3028C25.0185 15.5781 24.4782 14.6869 23.8994 13.8239C23.5204 13.2605 23.1798 12.6075 22.6599 12.2131C20.5113 10.592 20.8007 8.76355 21.9326 6.70458C23.1081 4.55855 24.1529 2.34338 25.2541 0.156372C25.4257 0.176859 25.5973 0.194786 25.7663 0.215273H25.7637Z" fill="white"/>
<path d="M91.3881 16.6231V18.6666H81.4902V5.36023H91.3087V7.37309H83.836V10.9276H90.4585V13.0506H83.8309V16.6256H91.3881V16.6231Z" fill="white"/>
<path d="M94.1749 53.9607C91.7394 54.2014 91.678 54.2245 90.8918 52.1297C90.5128 51.1181 89.975 50.7622 88.9199 50.839C87.6907 50.9286 86.4461 50.926 85.2168 50.839C84.2821 50.7724 83.7802 51.1207 83.5548 51.9888C83.5138 52.1527 83.4293 52.3038 83.3602 52.46C82.8309 53.6893 81.8066 54.1656 80.2871 53.889C80.9325 52.3883 81.5624 50.9107 82.2001 49.4382C83.3832 46.7031 84.5894 43.9783 85.7393 41.2305C86.0005 40.6082 86.3667 40.3214 86.9839 40.4776C87.5344 40.6159 88.3744 40.726 88.5434 41.0948C90.4615 45.3126 92.2772 49.579 94.1749 53.9607ZM89.4218 48.7032C88.6484 46.8875 87.9544 45.2613 87.1657 43.4098C86.3795 45.2921 85.6906 46.9464 84.9582 48.7032H89.4218Z" fill="white"/>
<path d="M100.58 9.95949V4.89148H102.779V18.6537H100.656C100.613 18.2517 100.569 17.8547 100.508 17.2837C99.3221 18.4514 98.0237 19.2812 96.4718 18.8509C95.4577 18.5692 94.3796 18.0238 93.66 17.276C91.8494 15.3912 91.9954 11.7905 93.7727 9.89291C95.5346 8.01321 97.8445 7.9876 100.58 9.95949ZM100.577 13.6344C100.556 11.8597 99.2146 10.4717 97.5653 10.5126C95.952 10.5536 94.7432 11.9007 94.7356 13.6702C94.7279 15.4552 96.0442 16.8918 97.6703 16.8739C99.2991 16.8534 100.597 15.4065 100.574 13.6344H100.577Z" fill="white"/>
<path d="M129.078 27.6093V22.549H131.326C131.326 24.8691 131.326 27.156 131.326 29.4403C131.326 31.7246 131.326 33.9424 131.326 36.2907H129.083C129.05 35.9168 129.014 35.5199 128.96 34.9309C127.813 36.1371 126.538 36.9156 125.032 36.534C124.012 36.2754 122.922 35.7529 122.187 35.0231C120.379 33.2228 120.422 29.6836 122.084 27.7348C123.81 25.7065 126.112 25.6195 129.078 27.6118V27.6093ZM129.024 31.4071C129.047 29.6093 127.782 28.2034 126.128 28.1829C124.481 28.1624 123.18 29.5735 123.185 31.3687C123.19 33.0819 124.458 34.4955 126.033 34.5416C127.672 34.5903 129.001 33.1972 129.022 31.4071H129.024Z" fill="white"/>
<path d="M158.522 27.5221V22.5745H160.727V36.2855H158.592C158.553 35.9398 158.512 35.5736 158.456 35.0716C156.174 37.0947 153.869 37.2561 151.713 35.0768C150.046 33.3917 149.949 30.042 151.354 28.0497C152.96 25.7781 155.454 25.5605 158.52 27.5221H158.522ZM158.525 31.3968C158.538 29.5555 157.286 28.1751 155.611 28.1828C153.977 28.1931 152.76 29.5222 152.74 31.3174C152.719 33.1382 154.015 34.5671 155.667 34.5441C157.286 34.521 158.512 33.1715 158.525 31.3968Z" fill="white"/>
<path d="M14.7918 27.0792C10.3409 26.8718 6.02839 26.2699 2.18961 23.8576C-0.0409346 22.4568 -0.0819089 21.9267 2.17936 20.572C4.38942 19.2454 6.69678 18.0776 9.1322 16.746C10.1617 20.8511 11.4447 24.5183 14.7918 27.0792Z" fill="white"/>
<path d="M42.0503 16.687C44.7623 18.2287 47.3334 19.6218 49.8277 21.1378C50.8521 21.7601 50.7599 22.5745 49.6613 23.3786C47.2003 25.1815 44.3781 26.1137 41.4049 26.6079C39.7506 26.8819 38.0783 27.0458 36.3574 27.1278C39.7071 24.5336 41.0285 20.8818 42.0529 16.6844L42.0503 16.687Z" fill="white"/>
<path d="M90.5071 24.4645C90.059 25.0996 89.6953 25.6169 89.283 26.2007C88.8707 25.9831 88.5275 25.727 88.1434 25.6117C87.2164 25.3377 86.2791 24.992 85.3315 24.9331C84.4532 24.8768 83.6234 25.2967 83.4621 26.3237C83.3033 27.3352 84.0204 27.7834 84.8271 28.0548C85.9974 28.4467 87.2138 28.7104 88.3611 29.1535C90.3022 29.9012 90.9963 31.0255 90.8708 32.9666C90.7658 34.6235 89.6748 35.9142 87.8771 36.3547C85.1548 37.0231 82.7604 36.2984 80.4863 34.4468C80.9831 33.8629 81.4313 33.3328 81.7924 32.9103C82.9525 33.425 83.9589 33.9756 85.0319 34.3111C85.6491 34.5057 86.4507 34.539 87.0294 34.306C87.6133 34.0704 88.3585 33.4481 88.4174 32.9257C88.4738 32.434 87.8463 31.5991 87.3188 31.3533C86.1715 30.8206 84.8783 30.6234 83.6772 30.1932C81.8282 29.5274 81.1086 28.5363 81.0881 26.823C81.0677 24.969 81.9819 23.6014 83.7643 23.0816C86.169 22.3824 88.3816 22.8588 90.5071 24.467V24.4645Z" fill="white"/>
<path d="M122.85 54.0018H120.542C120.542 52.0862 120.606 50.2244 120.524 48.3652C120.437 46.36 118.842 45.369 117.193 46.2089C116.237 46.6955 115.961 47.5637 115.958 48.5598C115.953 50.3397 115.958 52.1221 115.958 53.9787H113.756V40.2344H115.889V45.2921C116.36 44.9439 116.632 44.7364 116.911 44.5392C118.171 43.6506 119.531 43.5559 120.911 44.1551C122.227 44.7262 122.793 45.8837 122.834 47.2333C122.903 49.4408 122.852 51.6509 122.852 54.0043L122.85 54.0018Z" fill="white"/>
<path d="M135.019 49.0081C135.026 52.012 132.714 54.2656 129.625 54.2656C126.596 54.2656 124.258 52.0402 124.227 49.1285C124.194 46.1476 126.532 43.8325 129.589 43.812C132.719 43.7915 135.013 45.9862 135.019 49.0081ZM129.674 45.8684C127.968 45.8326 126.621 47.154 126.557 48.921C126.493 50.6752 127.874 52.1631 129.605 52.2041C131.318 52.2451 132.662 50.9185 132.698 49.1515C132.734 47.3384 131.41 45.9017 129.674 45.8684Z" fill="white"/>
<path d="M159.055 13.6778C159.055 16.6817 156.74 18.9277 153.651 18.92C150.627 18.9148 148.294 16.6766 148.274 13.7623C148.253 10.7738 150.578 8.48175 153.649 8.46639C156.786 8.45102 159.055 10.638 159.055 13.6778ZM153.657 10.5228C151.948 10.5228 150.617 11.8749 150.594 13.6317C150.571 15.3885 151.984 16.8533 153.708 16.8584C155.421 16.8636 156.737 15.5114 156.742 13.7444C156.748 11.9313 155.401 10.5253 153.657 10.5228Z" fill="white"/>
<path d="M127.328 11.0096C127.149 10.4769 126.965 9.93144 126.755 9.3117C128.752 8.36673 130.732 8.12601 132.755 8.81745C134.028 9.2528 134.852 10.2541 134.914 11.5781C135.021 13.9034 134.944 16.2364 134.944 18.6923C134.084 18.449 132.896 19.5271 132.655 17.7217C131.236 18.8152 129.777 19.2224 128.14 18.7179C126.668 18.2646 125.912 17.2889 125.897 15.8343C125.879 14.2722 126.57 13.1351 128.117 12.8381C129.585 12.5564 131.124 12.6332 132.645 12.5538C132.673 10.5665 131.618 10.2131 127.328 11.007V11.0096ZM130.745 14.034C130.686 13.9341 130.629 13.8317 130.57 13.7318C129.818 14.1697 128.967 14.5052 128.368 15.0968C128.145 15.3144 128.389 16.5257 128.637 16.6077C129.497 16.8843 130.455 16.8766 131.377 16.9457C131.523 16.956 131.748 16.851 131.818 16.7281C132.174 16.1006 132.494 15.4527 132.824 14.8099C132.299 14.5615 131.779 14.3029 131.247 14.075C131.101 14.0135 130.914 14.0442 130.745 14.034Z" fill="white"/>
<path d="M139.549 30.2239C139.521 28.1752 138.195 27.7347 134.248 28.7258C134.064 28.2008 133.877 27.6579 133.644 26.992C135.772 26.0138 137.895 25.6988 140.049 26.6796C141.178 27.1943 141.808 28.2213 141.849 29.4454C141.921 31.699 141.87 33.9551 141.87 36.3086C140.963 36.2471 139.908 36.9667 139.485 35.4532C138.1 36.5237 136.589 36.9104 134.919 36.3598C133.526 35.9014 132.807 34.9155 132.791 33.507C132.776 31.996 133.439 30.8359 134.904 30.5466C136.412 30.2495 137.992 30.3161 139.552 30.2239H139.549ZM137.455 34.8668C137.734 34.7516 138.476 34.6363 138.914 34.2086C139.345 33.7887 139.611 33.0614 139.642 32.4519C139.652 32.2393 138.758 31.909 138.241 31.7707C137.806 31.6554 137.314 31.699 136.855 31.7476C135.667 31.8757 134.948 32.5697 135.088 33.4814C135.26 34.5953 136.103 34.8207 137.457 34.8617L137.455 34.8668Z" fill="white"/>
<path d="M105.855 30.4774C105.622 28.147 104.557 27.8064 100.457 28.7053C100.28 28.1701 100.096 27.622 99.8857 26.9869C101.888 26.0343 103.906 25.7679 105.968 26.5285C107.287 27.0151 108.027 28.1035 108.078 29.4787C108.163 31.7271 108.101 33.9807 108.101 36.347C107.241 36.1549 106.122 37.0845 105.755 35.4276C104.367 36.4751 102.869 36.913 101.194 36.3701C99.7423 35.8989 99.0125 34.9027 99.0176 33.4301C99.0253 31.932 99.709 30.8462 101.194 30.5184C102.334 30.2674 103.55 30.3468 104.731 30.3161C105.095 30.3059 105.461 30.416 105.85 30.4774H105.855ZM103.842 31.7067C103.781 31.6042 103.722 31.5044 103.661 31.4019C102.915 31.8501 102.086 32.206 101.474 32.7925C101.261 32.9974 101.415 33.9244 101.704 34.2496C102.477 35.1127 103.522 34.9513 104.526 34.6184C104.646 34.58 104.813 34.5467 104.864 34.4571C105.238 33.7964 105.589 33.1228 105.947 32.4544C105.415 32.2137 104.887 31.9628 104.344 31.7425C104.196 31.6811 104.009 31.7143 103.842 31.7041V31.7067Z" fill="white"/>
<path d="M165.206 44.127C163.754 47.807 162.412 51.3923 160.927 54.916C159.959 57.208 158.017 57.7125 155.482 56.4167C155.71 55.9046 155.943 55.3847 156.194 54.8264C156.619 54.9186 156.98 55.0364 157.349 55.0671C158.576 55.1721 159.175 54.3706 158.701 53.2412C157.439 50.2245 156.163 47.2154 154.883 44.1833C156.459 43.8897 157.522 44.4548 158.074 45.8786C158.734 47.5816 159.395 49.2846 160.171 51.2821C160.87 49.3282 161.48 47.6354 162.082 45.9375C162.573 44.5547 163.613 43.9503 165.201 44.1244L165.206 44.127Z" fill="white"/>
<path d="M112.4 36.3291H110.17V26.4159H112.311C112.362 26.7385 112.416 27.0894 112.477 27.4863C112.621 27.4223 112.751 27.4018 112.831 27.325C114.132 26.042 115.673 25.7679 117.307 26.4594C118.956 27.156 119.328 28.6233 119.305 30.27C119.279 32.2649 119.3 34.2599 119.3 36.3188H116.984C116.984 34.4263 117.092 32.5133 116.931 30.626C116.867 29.891 116.357 28.8999 115.758 28.5849C115.148 28.2648 113.983 28.3724 113.42 28.7821C112.851 29.197 112.505 30.1983 112.444 30.9742C112.303 32.708 112.4 34.4596 112.4 36.3291Z" fill="white"/>
<path d="M114.096 18.6664H111.94C111.902 18.2899 111.866 17.9596 111.827 17.5883C111.699 17.6241 111.551 17.6215 111.482 17.6933C110.196 19.0172 108.672 19.2989 107.038 18.5435C105.466 17.8162 105.143 16.3821 105.172 14.7866C105.207 12.7943 105.179 10.7993 105.179 8.74036H107.492C107.492 10.6687 107.448 12.5766 107.505 14.4793C107.556 16.2207 108.764 17.1222 110.322 16.6382C111.482 16.2771 111.848 15.3449 111.863 14.2437C111.889 12.4562 111.871 10.6662 111.871 8.77621H114.096V18.6664Z" fill="white"/>
<path d="M169.847 18.6716H167.552C167.552 17.5935 167.552 16.5486 167.552 15.5038C167.552 11.5933 167.122 10.6202 165.376 10.5843C163.504 10.5459 162.968 11.665 162.968 15.5986V18.6178H160.789V8.77376H162.835C162.894 9.03498 162.976 9.38582 163.068 9.78532C163.173 9.75203 163.304 9.74947 163.37 9.68288C164.7 8.34097 166.277 8.08488 167.949 8.81986C169.537 9.51899 169.878 10.9556 169.855 12.5511C169.826 14.5486 169.847 16.5461 169.847 18.6691V18.6716Z" fill="white"/>
<path d="M95.2449 44.0708H97.5549C97.5549 45.9838 97.5139 47.8507 97.5677 49.7125C97.6138 51.3309 98.4153 52.1248 99.8008 52.0762C101.107 52.0301 101.89 51.208 101.929 49.6997C101.975 47.8712 101.939 46.0427 101.939 44.1169H104.134V53.9507H102.034C101.988 53.6537 101.937 53.3336 101.878 52.9622C101.752 53.0032 101.616 53.0032 101.55 53.0724C100.295 54.3477 98.8046 54.6243 97.2092 53.9251C95.6291 53.2337 95.2321 51.815 95.2424 50.217C95.2552 48.2169 95.2449 46.2143 95.2449 44.0708Z" fill="white"/>
<path d="M65.4295 29.4556C65.4295 21.6884 65.4295 13.9212 65.4295 6.15145C65.4295 5.85182 65.3655 5.53427 65.45 5.26025C65.5319 4.99392 65.7675 4.77368 65.9365 4.53296C66.1081 4.78649 66.3309 5.02209 66.4334 5.30123C66.5153 5.52659 66.4538 5.80829 66.4538 6.06438C66.4538 21.6423 66.459 37.2202 66.4334 52.7982C66.4334 53.3155 66.126 53.8328 65.9622 54.3501C65.7854 53.82 65.4551 53.2899 65.4525 52.7572C65.4192 44.99 65.4295 37.2228 65.4295 29.4556Z" fill="white"/>
<path d="M162.248 35.0742C162.645 34.4775 162.95 34.0242 163.173 33.6887C164.376 34.055 165.441 34.521 166.545 34.6516C167.06 34.7131 167.649 34.1215 168.207 33.827C167.81 33.4019 167.488 32.8385 167.004 32.585C166.258 32.1983 165.385 32.0703 164.599 31.7527C163.431 31.2841 162.747 30.4646 162.801 29.1099C162.855 27.7372 163.562 26.8614 164.783 26.4209C166.648 25.7474 168.371 26.234 170.171 27.2558C169.882 27.8064 169.618 28.3109 169.355 28.8179C168.412 28.5413 167.541 28.1316 166.648 28.0829C166.1 28.0522 165.521 28.5721 164.955 28.8461C165.336 29.2405 165.654 29.7629 166.118 29.9985C166.945 30.4185 167.892 30.6003 168.735 30.9972C169.839 31.5171 170.63 32.3417 170.486 33.6862C170.348 34.9974 169.59 35.909 168.363 36.3085C166.166 37.023 164.194 36.4289 162.251 35.0768L162.248 35.0742Z" fill="white"/>
<path d="M125.08 10.2899C124.509 10.733 124.01 11.1197 123.482 11.5294C121.411 10.2182 119.989 10.1926 118.852 11.5345C117.838 12.7305 117.823 14.5871 118.819 15.7856C119.972 17.1736 121.505 17.1634 123.79 15.7088C124.197 16.098 124.62 16.5001 125.034 16.897C123.431 19.2198 119.956 19.6193 117.667 17.7908C115.347 15.9367 115.078 12.3847 117.09 10.1465C119.121 7.89037 122.783 7.88525 125.08 10.2925V10.2899Z" fill="white"/>
<path d="M92.836 28.4236C92.498 28.3494 92.1344 28.2726 91.7246 28.1829V26.4543C92.0883 26.3877 92.4442 26.3237 92.9154 26.2392V23.6399H95.2228V26.2802C96.1626 26.3212 96.9949 26.3596 97.9143 26.4005V28.2521C97.0743 28.2905 96.2369 28.3263 95.2689 28.3699C95.2689 30.0677 95.2356 31.717 95.2843 33.3636C95.3099 34.2062 95.904 34.5263 96.6927 34.4776C97.0641 34.4546 97.4328 34.3649 97.8836 34.2932C97.8759 35.1537 98.4034 36.0423 97.1307 36.4265C95.4738 36.9258 93.7452 36.4572 93.2483 35.1844C93.0102 34.5724 92.9743 33.8604 92.9538 33.1895C92.9077 31.7016 92.9308 30.2112 92.9206 28.7207C92.9206 28.6388 92.8744 28.5594 92.8335 28.4262L92.836 28.4236Z" fill="white"/>
<path d="M137.501 10.7738C137.055 10.6791 136.692 10.5997 136.279 10.5101V8.78147C136.638 8.71489 136.996 8.65086 137.468 8.56379V5.9696H139.772V8.60477C140.71 8.6483 141.542 8.68415 142.466 8.72769V10.5767C141.632 10.6151 140.794 10.6535 139.826 10.6996C139.826 12.3898 139.795 14.039 139.839 15.6856C139.862 16.5333 140.456 16.8483 141.242 16.8022C141.614 16.7817 141.98 16.6895 142.436 16.6153C142.433 17.4834 142.953 18.3695 141.683 18.7536C140.026 19.253 138.3 18.7843 137.806 17.509C137.567 16.897 137.532 16.185 137.516 15.5141C137.478 13.9442 137.503 12.3718 137.503 10.7764L137.501 10.7738Z" fill="white"/>
<path d="M149.201 46.1143C148.712 46.0196 148.387 45.9555 147.992 45.8787V44.1475C148.31 44.0758 148.666 43.9964 149.145 43.8915V41.3177H151.475V43.9504C152.43 43.9964 153.26 44.0374 154.141 44.081V45.9069C153.286 45.9581 152.464 46.0068 151.521 46.0605C151.521 47.7712 151.398 49.4358 151.557 51.0696C151.716 52.6958 153.019 52.03 153.959 51.9916C154.379 53.5819 154.251 53.8918 153.058 54.1734C151.091 54.6395 149.472 53.8431 149.265 52.2016C149.132 51.1516 149.209 50.0735 149.198 49.0081C149.191 48.076 149.198 47.1412 149.198 46.1092L149.201 46.1143Z" fill="white"/>
<path d="M111.784 51.9838C112.04 53.82 111.897 54.0531 110.452 54.2451C108.463 54.5115 107.085 53.6612 106.982 51.9762C106.888 50.4038 106.903 48.8211 106.964 47.2462C106.998 46.3729 106.826 45.8223 105.748 45.9478V44.1603C106.073 44.0784 106.46 43.981 106.962 43.8556V41.2793H109.208V43.9887H111.869V45.9222C110.998 45.9657 110.201 46.0042 109.269 46.0502C109.269 47.7481 109.254 49.3973 109.277 51.0466C109.287 51.8558 109.825 52.1605 110.552 52.1529C110.965 52.1477 111.374 52.0427 111.784 51.9813V51.9838Z" fill="white"/>
<path d="M146.371 36.3599H144.182V26.4518H146.307C146.348 26.9409 146.389 27.4249 146.448 28.1061C147.396 26.9255 148.305 25.9934 149.862 26.2213V28.4928C147.183 29.1125 146.43 30.0396 146.376 32.7644C146.353 33.9449 146.371 35.1281 146.371 36.3599Z" fill="white"/>
<path d="M136.742 44.0911H138.896C138.927 44.6135 138.952 45.0693 138.991 45.7326C139.956 44.6545 140.85 43.6992 142.412 43.8631V46.1065C139.426 47.0694 138.957 47.7275 138.945 50.9824C138.942 51.9556 138.945 52.9287 138.945 53.9787H136.745V44.0911H136.742Z" fill="white"/>
<path d="M45.808 17.4298C41.8437 15.8395 41.7438 15.6653 42.5428 11.7497C42.5941 11.5039 42.9193 11.1479 43.1395 11.1325C44.5762 11.025 46.0231 10.9353 47.4623 10.9661C48.5456 10.9891 48.5661 11.8675 48.2613 12.5462C47.5238 14.1928 46.6505 15.7754 45.808 17.4298Z" fill="white"/>
<path d="M5.39468 17.4425C4.55215 15.783 3.65071 14.1722 2.91061 12.4923C2.50087 11.5678 2.90293 10.8943 4.01948 10.9276C5.53553 10.9711 7.04902 11.0556 8.55739 11.1222C8.69824 12.6024 8.86214 13.9059 8.91592 15.2145C8.92872 15.5244 8.64702 15.993 8.37045 16.139C7.51767 16.5923 6.60087 16.9252 5.39468 17.4425Z" fill="white"/>
<path d="M21.8801 4.24114C21.2194 5.85962 20.6125 7.34494 19.9646 8.93526C18.8173 8.02358 17.7084 7.18361 16.6508 6.28473C16.0771 5.79816 17.0964 1.53939 17.8057 1.41135C18.0542 1.36525 18.3948 1.51378 18.615 1.67768C19.7008 2.49717 20.7585 3.3525 21.8801 4.23857V4.24114Z" fill="white"/>
<path d="M31.2251 8.93528C30.6156 7.47813 30.0291 6.16183 29.5298 4.8148C29.435 4.55871 29.5784 4.06189 29.791 3.87495C30.6847 3.09131 31.6425 2.37682 32.5849 1.64953C33.2303 1.15272 33.7143 1.33454 33.9294 2.08488C34.2469 3.18607 34.544 4.2975 34.7591 5.42429C34.8155 5.71367 34.6234 6.16951 34.3903 6.37182C33.3993 7.23484 32.3519 8.03384 31.2225 8.93528H31.2251Z" fill="white"/>
<path d="M146.282 54.0145H144.182V44.0885H146.282V54.0145Z" fill="white"/>
<path d="M144.275 8.74036H146.416V18.628H144.275V8.74036Z" fill="white"/>
<path d="M27.2305 28.818C28.1473 28.7028 29.1614 28.521 30.1857 28.4595C33.4867 28.2649 36.7877 28.083 40.0939 27.9857C40.6112 27.9704 41.1438 28.4236 41.6688 28.6618C41.2591 29.1305 40.9159 29.9013 40.4293 30.0063C39.1617 30.2752 37.8044 30.4596 36.5291 30.3033C33.4074 29.9192 30.3138 29.3251 27.233 28.8206L27.2305 28.818Z" fill="white"/>
<path d="M23.7765 28.8435C20.9211 29.3147 17.8916 29.9293 14.8339 30.2725C13.3921 30.4338 11.8786 30.1496 10.4266 29.896C10.0629 29.832 9.81195 29.1124 9.50977 28.6924C9.94256 28.444 10.383 27.9626 10.803 27.9831C14.8416 28.1572 18.875 28.4107 22.9084 28.6591C23.2925 28.6822 23.6715 28.8205 23.7765 28.8435Z" fill="white"/>
<path d="M28.2388 52.2757C28.2388 51.5151 28.1978 50.8954 28.2567 50.2859C28.2823 50.0093 28.5103 49.7532 28.646 49.4869C28.7996 49.7302 29.0788 49.9683 29.089 50.2142C29.1351 51.446 29.1095 52.6803 29.1095 54.099C27.3809 53.8199 27.2247 51.9735 25.8546 51.236C25.8546 52.0298 25.8879 52.7315 25.8341 53.4281C25.8162 53.6483 25.5704 53.8532 25.4269 54.0657C25.2963 53.8455 25.0607 53.6278 25.0556 53.4025C25.0198 52.1297 25.0377 50.8544 25.0377 49.4126C26.7048 49.7455 26.9251 51.4639 28.2388 52.2757Z" fill="white"/>
<path d="M21.6666 52.7599C21.4464 53.1952 21.2287 53.6306 21.0085 54.0685C20.8574 53.605 20.6039 53.1466 20.5731 52.6753C20.5066 51.6638 20.5527 50.6471 20.5527 49.4717C21.892 49.5946 23.3338 48.9083 24.1277 50.2732C24.4247 50.7854 23.9561 51.7406 23.8357 52.4935C23.7051 52.4935 23.5771 52.4884 23.4465 52.4858C23.741 52.9417 24.0355 53.3975 24.33 53.8559C24.2506 53.9532 24.1738 54.0505 24.0944 54.1479C23.7205 53.8713 23.3415 53.6049 22.9727 53.3181C22.5655 53.0006 22.1686 52.6702 21.7691 52.345L21.6641 52.7573L21.6666 52.7599ZM21.5181 51.9455C22.2761 51.6868 22.8447 51.5204 23.3824 51.2771C23.4567 51.2438 23.4285 50.665 23.3338 50.6266C22.7883 50.409 22.207 50.2809 21.5181 50.0888V51.9455Z" fill="white"/>
<path d="M33.5407 50.9312C32.9261 51.7968 32.5445 52.3346 32.1117 52.9441C31.6661 52.3448 31.2948 51.8454 30.6853 51.0234C30.6853 52.0221 30.7263 52.6752 30.6648 53.3205C30.6392 53.5792 30.3857 53.8148 30.2371 54.0581C30.1142 53.8301 29.8889 53.6048 29.8837 53.3743C29.8479 52.1067 29.8658 50.839 29.8658 49.5048C31.387 49.3639 31.2333 50.9363 32.1424 51.3614C32.9543 50.985 32.8493 49.3767 34.3807 49.492C34.3807 50.8877 34.396 52.1963 34.3627 53.5049C34.3576 53.6919 34.1246 53.8737 33.9965 54.0581C33.8429 53.8583 33.5766 53.6688 33.5612 53.4614C33.5074 52.7494 33.5407 52.0298 33.5407 50.9363V50.9312Z" fill="white"/>
<path d="M9.04798 49.3999C10.4181 49.4178 11.4757 50.5062 11.4245 51.8532C11.3758 53.167 10.3566 54.1401 9.01981 54.1504C7.59339 54.1606 6.60232 53.1823 6.60744 51.7713C6.61256 50.3935 7.65229 49.382 9.04798 49.3999ZM10.5179 51.7508C10.4206 50.8442 9.96478 50.2552 9.00956 50.2015C8.1491 50.1528 7.38852 50.9723 7.48583 51.8584C7.5857 52.7649 8.08508 53.3744 9.0531 53.3437C10.0186 53.3104 10.4565 52.6906 10.5205 51.7534L10.5179 51.7508Z" fill="white"/>
<path d="M40.3585 51.2847C39.8463 52.2118 40.6914 53.4026 39.457 54.3245V49.3871C40.9782 49.8224 41.2471 51.4204 42.5199 52.2783C42.5199 51.4435 42.4943 50.7469 42.5352 50.0555C42.548 49.8609 42.7555 49.679 42.8758 49.4895C43.0372 49.6816 43.3317 49.866 43.3368 50.0632C43.3778 51.3692 43.3573 52.6778 43.3573 53.9865L42.9501 54.2349C42.105 53.2745 41.2599 52.3116 40.3559 51.2847H40.3585Z" fill="white"/>
<path d="M5.77779 50.419C5.41414 50.3652 5.03513 50.2193 4.68941 50.2756C4.14137 50.3627 3.39615 50.4267 3.1375 50.7878C2.83019 51.2155 2.76617 52.0196 2.95056 52.5318C3.08885 52.9159 3.7598 53.2232 4.24637 53.3282C4.546 53.3922 4.94293 53.0158 5.29634 52.8365C5.01976 52.6188 4.74318 52.4037 4.46917 52.1835C4.37698 52.1092 4.28991 52.0273 3.89041 51.6713C4.77135 51.5842 5.3578 51.5279 5.94168 51.469C6.34887 53.382 6.14656 53.825 4.83282 54.0862C3.36286 54.3807 2.18229 53.6867 1.8801 52.3525C1.57279 50.9978 2.37179 49.6354 3.70346 49.4766C4.40259 49.3921 5.14012 49.6277 5.8623 49.7199C5.83413 49.9529 5.80852 50.1834 5.78035 50.4165L5.77779 50.419Z" fill="white"/>
<path d="M38.5259 50.1246C37.7192 50.1758 36.91 50.2296 35.9753 50.2885C35.8703 52.1913 37.6885 50.8545 38.1674 51.6791C37.983 52.9006 35.7217 51.1797 36.0111 53.2105C36.8869 53.2899 37.7474 53.3693 38.6104 53.4487C38.6027 53.5998 38.5976 53.7534 38.5899 53.9045H35.166V49.6355H38.5285C38.5285 49.7994 38.5285 49.9607 38.5259 50.1246Z" fill="white"/>
<path d="M16.4629 49.4177C17.6204 49.4741 18.6883 49.5253 19.7588 49.5765L19.7536 50.2193C19.1544 50.2193 18.5449 50.1578 17.9585 50.2449C17.6819 50.2859 17.4488 50.6111 17.1979 50.8057C17.4565 51.0004 17.6921 51.3077 17.9789 51.3666C18.4425 51.4613 18.9393 51.3922 19.4207 51.3922C19.4438 51.5612 19.4668 51.7302 19.4924 51.8992C19.0801 51.9786 18.655 52.0145 18.2606 52.1476C17.8893 52.2731 17.5538 52.5036 17.203 52.688C17.5718 52.8954 17.9226 53.1797 18.317 53.2872C18.8138 53.423 19.3516 53.4153 19.8714 53.4691C19.8612 53.6201 19.851 53.7738 19.8433 53.9249H16.468V49.4126L16.4629 49.4177Z" fill="white"/>
<path d="M13.6533 52.6523C14.6008 50.6206 15.3315 49.592 15.8454 49.5664C15.2615 50.98 14.7417 52.3552 14.1219 53.6843C13.8095 54.3527 13.305 54.2656 13.0233 53.628C12.4445 52.3194 11.9247 50.9826 11.5508 49.5562C13.0617 49.9864 12.7237 51.6843 13.6533 52.6548V52.6523Z" fill="white"/>
<path d="M45.3848 50.3448C44.8034 50.2756 44.4372 50.2321 43.6895 50.1424C44.1197 49.7839 44.3246 49.4715 44.4987 49.4869C45.5692 49.5842 46.742 49.113 47.7049 50.1066C47.2747 50.1911 46.847 50.2782 46.2964 50.3883C46.2964 51.3205 46.3297 52.2501 46.2785 53.1745C46.2606 53.4793 46.0199 53.7687 45.8816 54.0657C45.7151 53.784 45.4283 53.5126 45.4078 53.2206C45.3464 52.2962 45.3848 51.364 45.3848 50.3448Z" fill="white"/>
<path d="M143.928 42.3345V40.2832H146.276V42.3345H143.928Z" fill="white"/>
<path d="M146.46 4.96057V6.95807H144.15V4.96057H146.46Z" fill="white"/>
<path d="M21.5176 51.9455V50.0889C22.2065 50.2809 22.7852 50.4115 23.3333 50.6267C23.428 50.6651 23.4562 51.2413 23.3819 51.2771C22.8467 51.5204 22.2756 51.6869 21.5176 51.9455Z" fill="white"/>
</g>
<defs>
<clipPath id="clip0_2497_21688">
<rect width="170" height="56.9595" fill="white" transform="translate(0.5 0.156372)"/>
</clipPath>
</defs>
</svg>
