<svg width="181" height="89" viewBox="0 0 181 89" fill="none" xmlns="http://www.w3.org/2000/svg">
<g clip-path="url(#clip0_2497_21556)">
<path d="M78.7755 3.15152H73.6074V1.547H85.8385V3.15152H80.6704V16.1287H78.7755V3.15152Z" fill="#F0F8FF"/>
<path d="M94.0673 16.1296V11.2456C94.0673 9.64105 93.4177 8.91256 92.176 8.91256C91.5017 8.92401 90.8552 9.18269 90.359 9.63946C89.8629 10.0962 89.5518 10.7193 89.4848 11.3903V16.1296H87.6641V1.547H89.4848V9.27634C89.8428 8.7358 90.3296 8.29286 90.9015 7.98748C91.4734 7.68209 92.1123 7.52385 92.7607 7.52705C94.9461 7.52705 95.8231 9.05826 95.8231 11.0999V16.1296H94.0673Z" fill="#F0F8FF"/>
<path d="M102.513 8.76725C101.981 8.75332 101.462 8.92923 101.049 9.26342C100.635 9.59762 100.355 10.0682 100.257 10.5908H104.408C104.442 10.5221 104.467 10.4486 104.479 10.3727C104.48 9.56903 103.825 8.76725 102.513 8.76725ZM106.081 11.7573H100.112C99.9644 13.0695 100.547 15.0378 103.243 15.0378C104.279 15.007 105.265 14.5911 106.01 13.8713V15.2568C105.106 16.0483 103.933 16.4655 102.732 16.4233C102.146 16.443 101.563 16.3408 101.019 16.1231C100.475 15.9054 99.9827 15.577 99.5725 15.1587C99.1624 14.7404 98.8437 14.2415 98.6367 13.6934C98.4297 13.1454 98.3389 12.5603 98.3701 11.9754C98.3332 11.407 98.4128 10.8371 98.6043 10.3007C98.7957 9.76427 99.0948 9.27267 99.4833 8.85615C99.8717 8.43962 100.341 8.10696 100.863 7.87861C101.385 7.65027 101.948 7.53107 102.517 7.52835C102.972 7.50258 103.428 7.56721 103.858 7.71846C104.288 7.86971 104.683 8.1046 105.022 8.40959C105.361 8.71459 105.636 9.08363 105.831 9.49542C106.026 9.90722 106.138 10.3536 106.16 10.8088C106.17 11.127 106.144 11.4452 106.081 11.7573Z" fill="#F0F8FF"/>
<path d="M82.9274 32.8997L80.3782 26.9215L77.8299 32.8997H82.9274ZM79.7963 24.0039H81.0343L87.2964 38.5151H85.33L83.5826 34.5042H77.1738L75.4263 38.5151H73.5332L79.7963 24.0039Z" fill="#F0F8FF"/>
<path d="M95.45 38.5155V33.7019C95.45 32.0984 94.7958 31.3699 93.5569 31.3699C92.8825 31.3811 92.2358 31.6397 91.7397 32.0965C91.2435 32.5534 90.9324 33.1765 90.8656 33.8476V38.5155H89.0449V30.2758H90.6476L90.7923 31.7327C91.1659 31.1905 91.6663 30.7477 92.25 30.4428C92.8337 30.1379 93.483 29.9803 94.1415 29.9834C96.326 29.9834 97.2039 31.5128 97.2039 33.5563V38.5146L95.45 38.5155Z" fill="#F0F8FF"/>
<path d="M104.263 31.2966C102.879 31.2966 101.566 32.3916 101.566 34.4314C101.566 36.4711 102.878 37.4938 104.263 37.4938C104.651 37.4914 105.035 37.4082 105.389 37.2496C105.743 37.0909 106.061 36.8601 106.321 36.5721C106.582 36.284 106.779 35.9449 106.901 35.5764C107.023 35.2078 107.067 34.8179 107.03 34.4314C107.068 34.0411 107.024 33.6474 106.903 33.2746C106.782 32.9018 106.586 32.5578 106.326 32.2639C106.067 31.97 105.75 31.7326 105.395 31.5662C105.04 31.3998 104.655 31.308 104.263 31.2966ZM103.971 43.4005C102.764 43.3392 101.59 42.9891 100.547 42.3797V40.8485C101.605 41.6105 102.887 41.9951 104.19 41.9408C105.573 41.9408 106.957 41.1399 106.957 38.6612V37.349C106.586 37.8258 106.111 38.2117 105.569 38.4771C105.026 38.7424 104.43 38.8803 103.826 38.8802C102.727 38.7645 101.71 38.246 100.971 37.4248C100.231 36.6036 99.8223 35.5377 99.8223 34.4328C99.8223 33.3278 100.231 32.2619 100.971 31.4407C101.71 30.6195 102.727 30.101 103.826 29.9853C104.449 29.9819 105.063 30.1253 105.62 30.4039C106.177 30.6825 106.661 31.0885 107.031 31.5889L107.103 30.2776H108.704V38.368C108.704 42.4521 106.155 43.3986 103.971 43.3986V43.4005Z" fill="#F0F8FF"/>
<path d="M113.507 24.0057H111.76V38.5151H113.507V24.0057Z" fill="#F0F8FF"/>
<path d="M116.568 38.5145V30.2767H118.316V38.5145H116.568ZM116.568 27.4323V25.5374H118.316V27.4323H116.568Z" fill="#F0F8FF"/>
<path d="M125.377 38.8047C124.793 38.8283 124.21 38.7317 123.665 38.521C123.12 38.3103 122.624 37.9899 122.208 37.5797C121.792 37.1695 121.464 36.6783 121.246 36.1363C121.027 35.5944 120.922 35.0133 120.937 34.4292C120.921 33.8413 121.024 33.2563 121.241 32.7098C121.458 32.1633 121.785 31.6668 122.2 31.2507C122.616 30.8346 123.112 30.5075 123.658 30.2896C124.204 30.0716 124.789 29.9674 125.377 29.9831C126.426 29.9615 127.453 30.295 128.289 30.9297V32.4609C127.928 32.0983 127.495 31.8141 127.019 31.6262C126.543 31.4382 126.033 31.3506 125.522 31.3686C124.753 31.419 124.033 31.7596 123.507 32.3214C122.981 32.8832 122.688 33.6242 122.688 34.3939C122.688 35.1636 122.981 35.9046 123.507 36.4664C124.033 37.0282 124.753 37.3688 125.522 37.4192C126.541 37.449 127.533 37.0832 128.289 36.3984V37.8572C127.453 38.4932 126.427 38.8271 125.377 38.8047Z" fill="#F0F8FF"/>
<path d="M132.004 34.4304C132.004 36.472 133.316 37.4928 134.695 37.4928C135.083 37.4904 135.467 37.4073 135.821 37.2486C136.175 37.0899 136.493 36.8592 136.753 36.5712C137.014 36.2831 137.211 35.944 137.333 35.5755C137.456 35.2069 137.5 34.8169 137.463 34.4304C137.5 34.0401 137.457 33.6464 137.336 33.2736C137.214 32.9007 137.018 32.5567 136.758 32.2629C136.499 31.969 136.182 31.7316 135.827 31.5652C135.472 31.3988 135.087 31.3071 134.695 31.2956C133.314 31.2965 132.004 32.3906 132.004 34.4304ZM137.537 38.5136L137.467 37.2729C136.975 37.7518 136.374 38.1045 135.716 38.3007C135.058 38.497 134.363 38.5309 133.689 38.3997C133.015 38.2685 132.383 37.9761 131.847 37.5474C131.31 37.1186 130.886 36.5664 130.61 35.9379C130.333 35.3094 130.213 34.6233 130.26 33.9384C130.306 33.2534 130.518 32.5899 130.877 32.0046C131.236 31.4193 131.731 30.9297 132.321 30.5775C132.91 30.2254 133.576 30.0212 134.261 29.9825C134.884 29.9792 135.499 30.1227 136.056 30.4013C136.613 30.6799 137.096 31.0858 137.467 31.5861L137.537 30.2748H139.14V38.5127L137.537 38.5136Z" fill="#F0F8FF"/>
<path d="M148.533 38.5155V33.7019C148.533 32.0983 147.883 31.3698 146.642 31.3698C145.971 31.3932 145.331 31.6559 144.837 32.1104C144.344 32.5649 144.029 33.1812 143.951 33.8476V38.5155H142.203V30.2757H143.803L143.877 31.7327C144.257 31.1966 144.759 30.7584 145.341 30.4543C145.923 30.1501 146.569 29.9887 147.226 29.9834C149.484 29.9834 150.357 31.5128 150.357 33.5562V38.5145L148.533 38.5155Z" fill="#F0F8FF"/>
<path d="M74.1914 59.5117L74.6267 57.7624C75.1866 58.3852 75.872 58.8826 76.6377 59.2218C77.4035 59.561 78.2324 59.7345 79.0699 59.7307C80.7403 59.7307 82.1267 58.7841 82.1267 57.1787C82.1267 55.7199 81.3992 54.8466 78.631 54.1163C75.9398 53.3878 74.6257 51.9309 74.6257 49.8883C74.6257 47.8458 76.3008 46.0974 79.288 46.0974C80.7153 46.1127 82.0975 46.5999 83.219 47.4829L82.7819 49.0141C81.7777 48.2318 80.5589 47.774 79.288 47.7019C77.4673 47.7019 76.4474 48.578 76.4474 49.8892C76.4474 50.9815 77.1026 51.8584 79.3585 52.4412C82.4896 53.244 83.9475 54.6286 83.9475 57.0358C83.9475 59.8783 81.544 61.3371 79.069 61.3371C78.1748 61.3784 77.2815 61.2379 76.4432 60.9242C75.6048 60.6104 74.8388 60.1299 74.1914 59.5117Z" fill="#F0F8FF"/>
<path d="M90.3527 61.2612C89.1827 61.2612 88.0607 60.7964 87.2334 59.9692C86.4062 59.1419 85.9414 58.0199 85.9414 56.8499C85.9414 55.68 86.4062 54.558 87.2334 53.7307C88.0607 52.9034 89.1827 52.4387 90.3527 52.4387C91.4033 52.4164 92.4304 52.7507 93.2666 53.3871V54.845C92.5103 54.1605 91.5189 53.7948 90.4993 53.8242C89.7298 53.8728 89.0078 54.2127 88.4801 54.7748C87.9524 55.3369 87.6587 56.0789 87.6587 56.8499C87.6587 57.6209 87.9524 58.3629 88.4801 58.925C89.0078 59.4871 89.7298 59.8271 90.4993 59.8757C91.519 59.9056 92.5106 59.5398 93.2666 58.8549V60.3137C92.4302 60.9497 91.4031 61.2837 90.3527 61.2612Z" fill="#F0F8FF"/>
<path d="M102.081 60.9711V56.0833C102.081 54.5521 101.425 53.8237 100.115 53.8237C99.4588 53.8331 98.8288 54.0837 98.3452 54.5276C97.8616 54.9715 97.5582 55.5777 97.4926 56.2309V60.9702H95.6719V46.46H97.4926V54.115C97.8578 53.6036 98.3382 53.1852 98.8951 52.8939C99.4519 52.6026 100.07 52.4465 100.698 52.4381C102.954 52.4381 103.828 53.9693 103.828 56.011V60.9702L102.081 60.9711Z" fill="#F0F8FF"/>
<path d="M111.107 53.7508C110.701 53.7346 110.295 53.8028 109.917 53.9509C109.538 54.0991 109.194 54.3241 108.906 54.6117C108.618 54.8994 108.393 55.2435 108.245 55.6224C108.097 56.0013 108.029 56.4068 108.045 56.8133C108.028 57.2234 108.094 57.6329 108.241 58.0163C108.388 58.3997 108.612 58.749 108.898 59.0427C109.185 59.3364 109.529 59.5682 109.909 59.7239C110.289 59.8796 110.697 59.9559 111.107 59.948C111.514 59.9538 111.917 59.8755 112.292 59.7181C112.667 59.5606 113.005 59.3274 113.285 59.033C113.565 58.7387 113.782 58.3895 113.921 58.0075C114.06 57.6255 114.118 57.2189 114.093 56.8133C114.117 56.4113 114.057 56.0086 113.917 55.6312C113.777 55.2537 113.559 54.9097 113.278 54.6213C112.997 54.333 112.658 54.1066 112.285 53.9567C111.911 53.8068 111.51 53.7366 111.107 53.7508ZM111.107 61.3345C110.492 61.3779 109.874 61.2941 109.292 61.0884C108.71 60.8826 108.177 60.5594 107.726 60.1386C107.274 59.7179 106.914 59.2088 106.668 58.6429C106.422 58.077 106.295 57.4665 106.295 56.8495C106.295 56.2324 106.422 55.6219 106.668 55.056C106.914 54.4901 107.274 53.981 107.726 53.5603C108.177 53.1395 108.71 52.8162 109.292 52.6105C109.874 52.4048 110.492 52.321 111.107 52.3644C111.717 52.3316 112.326 52.4233 112.899 52.6338C113.472 52.8444 113.995 53.1695 114.438 53.5892C114.881 54.0089 115.234 54.5144 115.475 55.075C115.716 55.6355 115.84 56.2393 115.84 56.8495C115.84 57.4596 115.716 58.0634 115.475 58.6239C115.234 59.1845 114.881 59.69 114.438 60.1097C113.995 60.5294 113.472 60.8544 112.899 61.065C112.326 61.2756 111.717 61.3673 111.107 61.3345Z" fill="#F0F8FF"/>
<path d="M122.539 53.7508C122.133 53.7348 121.727 53.803 121.348 53.9512C120.969 54.0994 120.625 54.3244 120.338 54.6121C120.05 54.8997 119.825 55.2438 119.677 55.6226C119.529 56.0014 119.46 56.4068 119.477 56.8133C119.459 57.2234 119.526 57.6327 119.673 58.0161C119.82 58.3995 120.044 58.7487 120.33 59.0424C120.617 59.336 120.961 59.5679 121.341 59.7236C121.721 59.8794 122.129 59.9557 122.539 59.948C122.945 59.9537 123.348 59.8753 123.723 59.7178C124.097 59.5603 124.435 59.327 124.715 59.0326C124.996 58.7382 125.212 58.3891 125.35 58.0072C125.489 57.6252 125.547 57.2188 125.522 56.8133C125.546 56.4115 125.487 56.0089 125.347 55.6315C125.207 55.2541 124.989 54.9102 124.708 54.6218C124.427 54.3334 124.089 54.1069 123.716 53.9569C123.342 53.807 122.941 53.7367 122.539 53.7508ZM122.539 61.3345C121.923 61.3779 121.306 61.2941 120.724 61.0884C120.142 60.8826 119.609 60.5594 119.157 60.1386C118.706 59.7179 118.346 59.2088 118.1 58.6429C117.854 58.077 117.727 57.4665 117.727 56.8495C117.727 56.2324 117.854 55.6219 118.1 55.056C118.346 54.4901 118.706 53.981 119.157 53.5603C119.609 53.1395 120.142 52.8162 120.724 52.6105C121.306 52.4048 121.923 52.321 122.539 52.3644C123.148 52.3316 123.758 52.4233 124.331 52.6338C124.903 52.8444 125.427 53.1695 125.87 53.5892C126.313 54.0089 126.666 54.5144 126.907 55.075C127.148 55.6355 127.272 56.2393 127.272 56.8495C127.272 57.4596 127.148 58.0634 126.907 58.6239C126.666 59.1845 126.313 59.69 125.87 60.1097C125.427 60.5294 124.903 60.8544 124.331 61.065C123.758 61.2756 123.148 61.3673 122.539 61.3345Z" fill="#F0F8FF"/>
<path d="M131.495 46.4618H129.748V60.9711H131.495V46.4618Z" fill="#F0F8FF"/>
<path d="M137.029 61.3344C135.898 61.2922 134.796 60.966 133.824 60.386L134.187 59.0728C135.042 59.6175 136.017 59.9427 137.028 60.0194C137.973 60.0194 138.63 59.5842 138.63 58.7824C138.63 58.1987 138.119 57.7616 136.81 57.4674C134.989 57.0331 134.261 56.0819 134.261 54.9154C134.261 53.6041 135.062 52.4376 137.174 52.4376C138.116 52.4677 139.037 52.7172 139.866 53.1661L139.502 54.4069C138.805 53.9603 138.001 53.7088 137.173 53.6784C136.153 53.6784 135.79 54.1145 135.79 54.6992C135.79 55.3562 136.301 55.6485 137.318 55.8685C139.284 56.377 140.159 57.3254 140.159 58.5652C140.161 60.2393 138.996 61.3344 137.029 61.3344Z" fill="#F0F8FF"/>
<path d="M74.2607 76.1358C74.2322 75.1206 74.4134 74.1105 74.7931 73.1686C75.1727 72.2266 75.7426 71.3731 76.4671 70.6614C77.1915 69.9498 78.055 69.3952 79.0036 69.0324C79.9522 68.6696 80.9654 68.5065 81.9798 68.5531C83.7721 68.5352 85.5264 69.0698 87.004 70.0843V72.1259C85.6555 70.8311 83.849 70.1231 81.9798 70.1567C78.6307 70.1567 76.2262 72.4896 76.2262 76.1358C76.2262 79.7819 78.6288 82.114 81.9798 82.114C83.8392 82.171 85.6455 81.4897 87.004 80.219V82.2606C85.5041 83.2189 83.7598 83.7251 81.9798 83.7185C77.7565 83.7185 74.2607 80.8741 74.2607 76.1358Z" fill="#F0F8FF"/>
<path d="M93.7757 76.2082C93.3748 76.2001 92.9765 76.2743 92.6055 76.4263C92.2345 76.5783 91.8987 76.8049 91.6188 77.092C91.339 77.3791 91.121 77.7206 90.9785 78.0953C90.836 78.4701 90.7719 78.8702 90.7903 79.2707C90.7743 79.6774 90.8407 80.0831 90.9853 80.4635C91.13 80.844 91.3499 81.1913 91.6321 81.4847C91.9142 81.7781 92.2526 82.0115 92.6271 82.1709C93.0016 82.3303 93.4044 82.4125 93.8114 82.4125C94.2184 82.4125 94.6212 82.3303 94.9957 82.1709C95.3702 82.0115 95.7086 81.7781 95.9908 81.4847C96.2729 81.1913 96.4928 80.844 96.6375 80.4635C96.7821 80.0831 96.8485 79.6774 96.8325 79.2707C96.8491 78.8645 96.7814 78.4594 96.6337 78.0807C96.486 77.702 96.2616 77.358 95.9744 77.0703C95.6873 76.7827 95.3437 76.5576 94.9653 76.4092C94.5869 76.2608 94.1818 76.1924 93.7757 76.2082ZM93.7757 83.791C93.1659 83.825 92.5555 83.7342 91.982 83.5242C91.4084 83.3143 90.8838 82.9895 90.44 82.5698C89.9963 82.1501 89.6429 81.6443 89.4013 81.0834C89.1598 80.5224 89.0352 79.9181 89.0352 79.3073C89.0352 78.6966 89.1598 78.0922 89.4013 77.5313C89.6429 76.9703 89.9963 76.4645 90.44 76.0448C90.8838 75.6251 91.4084 75.3004 91.982 75.0904C92.5555 74.8804 93.1659 74.7897 93.7757 74.8237C94.3905 74.7812 95.0075 74.8657 95.5883 75.0718C96.1691 75.2779 96.7012 75.6013 97.1518 76.0218C97.6023 76.4423 97.9616 76.9509 98.2072 77.5161C98.4528 78.0814 98.5795 78.691 98.5795 79.3073C98.5795 79.9236 98.4528 80.5333 98.2072 81.0985C97.9616 81.6637 97.6023 82.1724 97.1518 82.5929C96.7012 83.0134 96.1691 83.3368 95.5883 83.5429C95.0075 83.749 94.3905 83.8334 93.7757 83.791Z" fill="#F0F8FF"/>
<path d="M102.806 78.6129V83.4237H101.059V75.1858H102.588L102.733 76.5713C103.093 76.0498 103.571 75.6199 104.128 75.3162C104.684 75.0124 105.304 74.8432 105.938 74.822V76.6446C104.409 76.3532 102.806 77.2283 102.806 78.6129Z" fill="#F0F8FF"/>
<path d="M112.562 76.2077C111.801 76.2952 111.099 76.6592 110.59 77.2306C110.08 77.802 109.799 78.5408 109.799 79.3063C109.799 80.0719 110.08 80.8106 110.59 81.382C111.099 81.9534 111.801 82.3175 112.562 82.4049C113.874 82.4049 115.184 81.3108 115.184 79.2692C115.184 77.2276 113.875 76.2077 112.562 76.2077ZM113 83.7171C112.401 83.7318 111.806 83.6078 111.263 83.3549C110.72 83.102 110.243 82.727 109.869 82.2592V88.1641H108.121V75.186H109.65L109.794 76.4982C110.15 75.977 110.628 75.5514 111.187 75.259C111.746 74.9665 112.369 74.8162 113 74.8213C115.184 74.8213 117.005 76.6439 117.005 79.3407C117.037 79.8928 116.959 80.4458 116.774 80.967C116.588 81.4881 116.301 81.9669 115.927 82.375C115.554 82.783 115.103 83.112 114.6 83.3425C114.097 83.5731 113.552 83.7005 113 83.7171Z" fill="#F0F8FF"/>
<path d="M123.776 76.2081C123.374 76.1937 122.973 76.2637 122.599 76.4136C122.225 76.5635 121.887 76.7899 121.606 77.0783C121.325 77.3667 121.107 77.7107 120.967 78.0883C120.827 78.4658 120.767 78.8685 120.792 79.2705C120.773 79.6742 120.836 80.0775 120.978 80.4561C121.119 80.8346 121.336 81.1805 121.615 81.4729C121.894 81.7652 122.229 81.9979 122.601 82.1569C122.972 82.3159 123.372 82.3979 123.777 82.3979C124.181 82.3979 124.581 82.3159 124.952 82.1569C125.324 81.9979 125.659 81.7652 125.938 81.4729C126.217 81.1805 126.434 80.8346 126.576 80.4561C126.717 80.0775 126.78 79.6742 126.761 79.2705C126.786 78.8685 126.726 78.4659 126.586 78.0884C126.445 77.7109 126.228 77.3669 125.947 77.0786C125.665 76.7902 125.327 76.5638 124.953 76.4139C124.58 76.264 124.179 76.1939 123.776 76.2081ZM123.776 83.7908C122.904 83.7301 122.069 83.4165 121.373 82.8884C120.676 82.3604 120.149 81.6407 119.855 80.8175C119.561 79.9943 119.514 79.1034 119.719 78.2537C119.924 77.4041 120.372 76.6326 121.009 76.0338C121.645 75.4349 122.443 75.0347 123.303 74.8821C124.164 74.7294 125.05 74.831 125.854 75.1744C126.658 75.5178 127.344 76.088 127.828 76.8154C128.313 77.5427 128.575 78.3956 128.582 79.2695C128.565 79.8824 128.427 80.4858 128.175 81.0451C127.924 81.6043 127.565 82.1085 127.118 82.5286C126.672 82.9487 126.147 83.2764 125.573 83.493C125 83.7096 124.389 83.8108 123.776 83.7908Z" fill="#F0F8FF"/>
<path d="M132.809 78.6129V83.4237H130.99V75.1858H132.593L132.738 76.5713C133.091 76.0436 133.567 75.6091 134.124 75.3045C134.682 75 135.304 74.8345 135.939 74.822V76.6446C134.336 76.3532 132.809 77.2283 132.809 78.6129Z" fill="#F0F8FF"/>
<path d="M139.142 79.3414C139.142 81.383 140.454 82.4038 141.833 82.4038C142.595 82.3182 143.298 81.9549 143.809 81.3833C144.32 80.8117 144.603 80.0719 144.603 79.3052C144.603 78.5385 144.32 77.7987 143.809 77.2271C143.298 76.6555 142.595 76.2922 141.833 76.2066C140.454 76.2075 139.142 77.3007 139.142 79.3414ZM144.675 83.4246L144.602 82.1124C144.232 82.6128 143.749 83.0188 143.192 83.2976C142.636 83.5764 142.022 83.72 141.399 83.7169C139.215 83.7169 137.394 81.9667 137.394 79.269C137.361 78.7131 137.439 78.1562 137.623 77.6307C137.807 77.1051 138.094 76.6214 138.466 76.2076C138.839 75.7938 139.29 75.4582 139.794 75.2204C140.297 74.9825 140.843 74.8471 141.399 74.822C142.027 74.8333 142.643 74.9908 143.199 75.2819C143.755 75.573 144.235 75.9897 144.602 76.4989L144.675 75.1867H146.278V83.4246H144.675Z" fill="#F0F8FF"/>
<path d="M152.1 76.3533V83.4256H150.281V76.3533H148.605V75.1868H150.281V72.3434H152.1V75.1868H153.703V76.3533H152.1Z" fill="#F0F8FF"/>
<path d="M156.105 83.4247V75.1821H157.853V83.42L156.105 83.4247ZM156.105 72.3434V70.3741H157.853V72.3434H156.105Z" fill="#F0F8FF"/>
<path d="M165.136 76.2082C164.73 76.1925 164.325 76.2611 163.946 76.4095C163.568 76.5579 163.225 76.783 162.937 77.0707C162.65 77.3583 162.426 77.7023 162.278 78.0809C162.13 78.4595 162.063 78.8646 162.079 79.2707C162.061 79.6805 162.128 80.0897 162.274 80.473C162.42 80.8562 162.643 81.2055 162.93 81.4992C163.216 81.793 163.56 82.025 163.939 82.181C164.318 82.3371 164.726 82.4137 165.136 82.4064C165.542 82.4122 165.946 82.3339 166.321 82.1763C166.695 82.0188 167.034 81.7855 167.314 81.491C167.594 81.1966 167.811 80.8473 167.95 80.4652C168.089 80.0831 168.147 79.6764 168.121 79.2707C168.146 78.8687 168.086 78.466 167.945 78.0886C167.805 77.7111 167.587 77.3671 167.306 77.0788C167.025 76.7904 166.687 76.564 166.313 76.4141C165.939 76.2642 165.538 76.194 165.136 76.2082ZM165.136 83.791C164.521 83.8334 163.904 83.749 163.323 83.5429C162.742 83.3368 162.21 83.0134 161.76 82.5929C161.309 82.1724 160.95 81.6637 160.704 81.0985C160.459 80.5333 160.332 79.9236 160.332 79.3073C160.332 78.691 160.459 78.0814 160.704 77.5161C160.95 76.9509 161.309 76.4423 161.76 76.0218C162.21 75.6013 162.742 75.2779 163.323 75.0718C163.904 74.8657 164.521 74.7812 165.136 74.8237C165.746 74.7897 166.356 74.8804 166.93 75.0904C167.503 75.3004 168.028 75.6251 168.472 76.0448C168.915 76.4645 169.269 76.9703 169.51 77.5313C169.752 78.0922 169.876 78.6966 169.876 79.3073C169.876 79.9181 169.752 80.5224 169.51 81.0834C169.269 81.6443 168.915 82.1501 168.472 82.5698C168.028 82.9895 167.503 83.3143 166.93 83.5242C166.356 83.7342 165.746 83.825 165.136 83.791Z" fill="#F0F8FF"/>
<path d="M178.753 83.4247V78.5397C178.753 77.0084 178.096 76.28 176.787 76.28C176.131 76.2892 175.501 76.5396 175.017 76.9833C174.534 77.4271 174.23 78.0332 174.164 78.6863V83.4247H172.344V75.1868H173.946L174.091 76.5723C174.461 76.043 174.951 75.6086 175.52 75.3046C176.09 75.0006 176.723 74.8355 177.369 74.823C179.626 74.823 180.5 76.4266 180.5 78.4673V83.4256L178.753 83.4247Z" fill="#F0F8FF"/>
<path d="M29.4808 38.0762L28.3894 38.2952L27.8048 37.4192L27.2963 38.2952L26.2049 38.0762L26.424 39.097L25.5488 39.6798L26.424 40.2626L26.2049 41.2834L27.2963 41.0644L27.8048 41.9376L28.3894 41.0644L29.4808 41.2834L29.2618 40.2626L30.1369 39.6798L29.2618 39.097L29.4808 38.0762Z" fill="#F0F8FF"/>
<path d="M29.2618 47.3358L29.4808 46.315L28.3894 46.534L27.8048 45.658L27.2963 46.534L26.2049 46.315L26.424 47.3358L25.5488 47.9186L26.424 48.5014L26.2049 49.5222L27.2963 49.3031L27.8048 50.1764L28.3894 49.3031L29.4808 49.5222L29.2618 48.5014L30.1369 47.9186L29.2618 47.3358Z" fill="#F0F8FF"/>
<path d="M38.2899 43.2531L38.5089 42.2323L37.4882 42.4514L36.9053 41.5753L36.3226 42.4514L35.3018 42.2323L35.5208 43.2531L34.6484 43.8359L35.5208 44.4187L35.3018 45.4395L36.3226 45.2233L36.9053 46.0965L37.4882 45.2233L38.5089 45.4395L38.2899 44.4187L39.165 43.8359L38.2899 43.2531Z" fill="#F0F8FF"/>
<path d="M20.1591 43.2531L20.4505 42.2323L19.3582 42.4514L18.7754 41.5753L18.2659 42.4514L17.1737 42.2323L17.3918 43.2531L16.5176 43.8359L17.3918 44.4187L17.1737 45.4395L18.2659 45.2233L18.7754 46.0965L19.3582 45.2233L20.4505 45.4395L20.1591 44.4187L21.1056 43.8359L20.1591 43.2531Z" fill="#F0F8FF"/>
<path d="M2.02842 53.8987H53.7284V64.0316C53.7284 70.9582 52.7076 74.5301 45.9332 78.3228C41.3479 80.9463 30.2787 86.1227 27.8761 87.2168C26.7105 86.7073 17.3896 82.1128 9.30767 77.9572C4.35585 75.4052 2.02565 71.8324 2.02565 66.656L2.02842 53.8987ZM2.02842 35.0872H53.7284V52.3657H2.02842V35.0872ZM0.5 66.6569C0.5 72.3446 3.19123 76.5002 8.65531 79.2703C16.5916 83.4259 25.6934 87.8738 27.5151 88.7489L27.8056 88.8946L28.1712 88.7489C29.5549 88.0919 41.72 82.4784 46.7377 79.6341C54.0198 75.4785 55.2577 71.4677 55.2577 64.0316V33.6274H0.5V66.6569Z" fill="#F0F8FF"/>
<path d="M16.1564 60.604C17.6848 59.9489 23.8746 57.5416 27.0781 59.5832V73.3613C25.5973 72.2274 23.7726 71.6356 21.9082 71.6844C19.2338 71.8104 16.6214 72.533 14.2624 73.7993L16.1564 60.604ZM28.6065 59.6556C32.3937 57.6873 38.6559 60.0936 40.1861 60.7507L41.7146 73.8736C40.2567 73.1179 38.7174 72.531 37.1265 72.1243C33.6317 71.1758 30.6463 71.6129 28.6065 73.2898V59.6556ZM27.2229 75.6961L27.8799 76.4256L28.4617 75.6228C30.1386 73.2898 32.905 72.6337 36.7636 73.5812C38.6745 74.094 40.5104 74.8536 42.2249 75.8409L43.5353 76.6436L41.5688 59.7289L41.206 59.5108C40.8422 59.3651 32.9069 55.7181 27.8817 58.2701C23.5127 55.5 15.5031 59.2167 15.1384 59.3652L14.7737 59.5851L12.3711 76.717L13.7548 75.8419C13.8253 75.7695 22.7814 70.0103 27.2219 75.6961H27.2229Z" fill="#F0F8FF"/>
<path d="M18.9944 13.5064L17.9022 14.5986L16.7376 13.4331L17.8289 12.4123L18.9944 13.5064ZM15.0625 13.434L17.9022 16.2783L20.6695 13.5073L17.8298 10.663L15.0625 13.434Z" fill="#F0F8FF"/>
<path d="M38.072 12.4114L39.2366 13.5064L38.1462 14.5987L36.9807 13.4331L38.072 12.4114ZM40.9126 13.5064L38.072 10.6621L35.3047 13.4341L38.1453 16.2784L40.9126 13.5064Z" fill="#F0F8FF"/>
<path d="M53.7274 15.5468V27.5765C53.7274 29.3257 53.2904 29.4 52.0524 29.4H39.0167C37.7064 29.4 37.3464 29.0362 37.3464 27.5059V26.7756H18.4151V27.5078C18.4151 29.0371 18.0513 29.4019 16.7447 29.4019H3.70346C2.46551 29.4019 2.02842 29.3276 2.02842 27.5783V15.5468H0.5V27.5765C0.5 30.3484 1.81034 30.9312 3.7044 30.9312H16.7373C18.6304 30.9312 19.7226 30.057 19.8683 28.2335H35.8857C36.1056 30.057 37.1255 30.9312 39.0167 30.9312H52.0524C53.9464 30.9312 55.2568 30.3484 55.2568 27.5765V15.5468H53.7274Z" fill="#F0F8FF"/>
<path d="M27.8033 1.91471C35.5224 1.91471 43.1673 6.87024 45.0642 8.11005L44.9166 10.7354C42.1521 9.42225 34.8701 6.14175 27.8052 6.14175C20.7403 6.14175 13.6791 9.20417 10.9851 10.3716L10.9127 8.11005C12.7326 6.87024 20.086 1.91471 27.8033 1.91471ZM44.1872 18.8971C39.8999 18.124 35.5732 17.5887 31.2267 17.2936L31.1525 7.81682C35.9169 8.62926 40.5321 10.1534 44.8433 12.338L44.1872 18.8971ZM43.8967 22.6157H11.8584L11.7127 20.3569C16.1608 19.5269 20.6626 19.0158 25.1836 18.8276H25.9854V7.67204C27.1975 7.60149 28.4128 7.60149 29.625 7.67204L29.6992 18.8294H30.4268C34.9985 19.033 39.5494 19.5689 44.0434 20.433L43.8967 22.6157ZM11.129 11.9715C15.3516 9.96184 19.8385 8.56295 24.4551 7.81682V17.2936C20.1583 17.5691 15.8799 18.0809 11.6394 18.8266L11.129 11.9715ZM9.16345 26.4084C9.82643 26.4421 10.4768 26.2181 10.9784 25.7832C11.48 25.3484 11.794 24.7365 11.8547 24.0754H43.7473C43.8195 24.7318 44.1367 25.3368 44.6357 25.7693C45.1347 26.2019 45.7786 26.4301 46.4385 26.4084C46.8102 26.4393 47.1841 26.3887 47.5342 26.2603C47.8844 26.1319 48.2023 25.9286 48.4658 25.6647C48.7293 25.4008 48.9321 25.0827 49.0601 24.7324C49.1881 24.3821 49.2382 24.0081 49.2068 23.6365V15.5443H47.7554V23.6365C47.7554 24.5125 47.3925 24.8772 46.445 24.8772C45.9337 24.8772 45.4242 24.803 45.2804 23.8564L46.664 7.30456L46.2975 7.08553C45.8623 6.79506 36.9785 0.37793 27.8024 0.37793C18.6263 0.37793 10.11 6.79506 9.74532 7.08553L9.38061 7.37785L10.4014 23.7812C10.2557 24.7306 9.74624 24.8763 9.16345 24.8763C8.28928 24.8763 7.92551 24.5125 7.92551 23.6355V15.5434H6.39709V23.6355C6.3709 24.0061 6.42446 24.3779 6.55415 24.726C6.68385 25.074 6.88666 25.3902 7.14891 25.6533C7.41117 25.9163 7.72677 26.1201 8.07445 26.2508C8.42213 26.3816 8.79379 26.4363 9.16439 26.4112L9.16345 26.4084Z" fill="#F0F8FF"/>
<path d="M4.94041 15.5468H3.48438V19.5567H4.94041V15.5468Z" fill="#F0F8FF"/>
<path d="M52.2715 15.5468H50.7422V19.5567H52.2715V15.5468Z" fill="#F0F8FF"/>
</g>
<defs>
<clipPath id="clip0_2497_21556">
<rect width="180" height="88.5166" fill="white" transform="translate(0.5 0.37793)"/>
</clipPath>
</defs>
</svg>
