<svg width="12" height="17" viewBox="0 0 12 17" fill="none" xmlns="http://www.w3.org/2000/svg">
<path d="M10.5 6.5C10.5 4.03125 8.46875 2 6 2C3.5 2 1.5 4.03125 1.5 6.5C1.5 7.03125 1.71875 7.8125 2.25 8.875C2.78125 9.875 3.46875 10.9375 4.1875 11.9375C4.84375 12.8125 5.46875 13.5938 6 14.2188C6.5 13.5938 7.125 12.8125 7.78125 11.9375C8.5 10.9375 9.1875 9.875 9.71875 8.875C10.25 7.8125 10.5 7.03125 10.5 6.5ZM12 6.5C12 9.125 8.6875 13.3438 6.96875 15.375C6.375 16.0938 6 16.5 6 16.5C6 16.5 5.59375 16.0938 5 15.375C3.28125 13.3438 0 9.125 0 6.5C0 3.1875 2.6875 0.5 6 0.5C9.3125 0.5 12 3.1875 12 6.5ZM7 6.5C7 5.96875 6.53125 5.5 6 5.5C5.4375 5.5 5 5.96875 5 6.5C5 7.0625 5.4375 7.5 6 7.5C6.53125 7.5 7 7.0625 7 6.5ZM3.5 6.5C3.5 5.625 3.96875 4.8125 4.75 4.34375C5.5 3.90625 6.46875 3.90625 7.25 4.34375C8 4.8125 8.5 5.625 8.5 6.5C8.5 7.40625 8 8.21875 7.25 8.6875C6.46875 9.125 5.5 9.125 4.75 8.6875C3.96875 8.21875 3.5 7.40625 3.5 6.5Z" fill="#CECECE"/>
</svg>
