<svg width="31" height="40" viewBox="0 0 31 40" fill="none" xmlns="http://www.w3.org/2000/svg">
<path d="M28.2917 15C28.2917 8.125 22.6667 2.5 15.7917 2.5C8.83862 2.5 3.29175 8.125 3.29175 15C3.29175 16.6406 3.99487 18.8281 5.323 21.4844C6.65112 24.0625 8.448 26.7969 10.2449 29.375C12.1199 31.875 13.9167 34.1406 15.323 35.7812C15.4792 35.9375 15.6355 36.0938 15.7917 36.25C15.8699 36.0938 16.0261 35.9375 16.1824 35.7812C17.5886 34.1406 19.3855 31.875 21.2605 29.375C23.0574 26.7969 24.8542 24.0625 26.1824 21.4844C27.5105 18.8281 28.2917 16.6406 28.2917 15ZM30.7917 15C30.7917 21.9531 21.3386 33.5938 17.4324 38.125C16.4167 39.375 15.7917 40 15.7917 40C15.7917 40 15.0886 39.375 14.073 38.125C10.1667 33.5938 0.791748 21.9531 0.791748 15C0.791748 6.71875 7.5105 0 15.7917 0C24.073 0 30.7917 6.71875 30.7917 15ZM12.0417 15C12.0417 16.4062 12.7449 17.5781 13.9167 18.2812C15.0105 18.9844 16.4949 18.9844 17.6667 18.2812C18.7605 17.5781 19.5417 16.4062 19.5417 15C19.5417 13.6719 18.7605 12.5 17.6667 11.7969C16.4949 11.0938 15.0105 11.0938 13.9167 11.7969C12.7449 12.5 12.0417 13.6719 12.0417 15ZM15.7917 21.25C13.5261 21.25 11.4949 20.0781 10.323 18.125C9.22925 16.25 9.22925 13.8281 10.323 11.875C11.4949 10 13.5261 8.75 15.7917 8.75C17.9792 8.75 20.0105 10 21.1824 11.875C22.2761 13.8281 22.2761 16.25 21.1824 18.125C20.0105 20.0781 17.9792 21.25 15.7917 21.25Z" fill="#A1E7D7"/>
</svg>
