<svg width="26" height="25" viewBox="0 0 26 25" fill="none" xmlns="http://www.w3.org/2000/svg">
<path d="M13.2344 22.5C9.64062 22.5 6.35938 20.625 4.5625 17.5C2.76562 14.4141 2.76562 10.625 4.5625 7.5C6.35938 4.41406 9.64062 2.5 13.2344 2.5C16.7891 2.5 20.0703 4.41406 21.8672 7.5C23.6641 10.625 23.6641 14.4141 21.8672 17.5C20.0703 20.625 16.7891 22.5 13.2344 22.5ZM17.6484 10.6641H17.6094C18 10.3125 18 9.72656 17.6094 9.33594C17.2578 8.98438 16.6719 8.98438 16.3203 9.33594L11.9844 13.7109L10.1484 11.875C9.75781 11.4844 9.17188 11.4844 8.82031 11.875C8.42969 12.2266 8.42969 12.8125 8.82031 13.1641L11.3203 15.6641C11.6719 16.0547 12.2578 16.0547 12.6484 15.6641L17.6484 10.6641Z" fill="#002664"/>
</svg>
