<svg width="33" height="40" viewBox="0 0 33 40" fill="none" xmlns="http://www.w3.org/2000/svg">
<path d="M18.9375 27L17.625 26.25C14.4375 24.375 11.75 21.6875 9.875 18.5L9.125 17.1875L10.1875 16.0625L12.75 13.5625L9.875 6.3125L2.125 7.6875V8C2.125 22.375 13.75 34 28.125 34H28.4375L29.8125 26.25L22.5625 23.375L20.0625 25.9375L18.9375 27ZM22.125 21L32.125 25L30.125 36H28.125C12.625 36 0.125 23.5 0.125 8V6L11.125 4L15.125 14L11.625 17.5C13.3125 20.4375 15.6875 22.8125 18.625 24.5L22.125 21Z" fill="#A1E7D7"/>
</svg>
