<svg width="41" height="41" viewBox="0 0 41 41" fill="none" xmlns="http://www.w3.org/2000/svg">
<path d="M10.5 30.5L10.9688 27.9219L12.375 20.5L30.5781 2.29688L32.375 0.5L34.0938 2.29688L38.7031 6.90625L40.5 8.625L38.7031 10.4219L20.5 28.625L13.0781 30.0312L10.5 30.5ZM19.25 26.3594L32.5312 13.0781L27.9219 8.46875L14.6406 21.75L13.625 27.375L19.25 26.3594ZM34.25 11.3594L36.9062 8.625L32.375 4.09375L29.6406 6.75L34.25 11.2812V11.3594ZM0.5 5.5H1.75H16.75H18V8H16.75H3V38H33V24.25V23H35.5V24.25V39.25V40.5H34.25H1.75H0.5V39.25V6.75V5.5Z" fill="#A1E7D7"/>
</svg>
