<svg width="41" height="41" viewBox="0 0 41 41" fill="none" xmlns="http://www.w3.org/2000/svg">
<path d="M3 20.5L2.92188 20.5781C2.92188 22.1406 3.15625 23.7031 3.625 25.1875L1.20312 25.8906C0.734375 24.1719 0.5 22.375 0.5 20.5C0.5 9.48438 9.40625 0.5 20.5 0.5C31.5156 0.5 40.5 9.48438 40.5 20.5C40.5 30.1875 33.625 38.3125 24.4844 40.1094L23.9375 37.6875C31.9844 36.0469 38 29.0156 38 20.5C38 10.8906 30.1094 3 20.5 3C10.8125 3 3 10.8906 3 20.5ZM17.375 11.8281C15.7344 10.5 13.4688 10.2656 11.6719 11.2812L11.0469 11.5938L10.0312 12.2188L8.78125 10.0312L9.875 9.48438L10.4219 9.17188C13.1562 7.53125 16.5938 7.92188 19.0156 9.95312L20.0312 10.8125L20.9688 11.6719L19.3281 13.5469L18.3906 12.7656L17.375 11.8281ZM14.25 17.375C13.2344 17.375 12.375 16.5938 12.375 15.5C12.375 14.4844 13.2344 13.625 14.25 13.625C15.2656 13.625 16.125 14.4844 16.125 15.5C16.125 16.5938 15.2656 17.375 14.25 17.375ZM13 21.75V24.25V25.5V27.5312L20.2656 24.7188L15.1094 23L15.8906 20.5781L23.8594 23.2344L25.7344 22.5312L26.5938 24.875L27.5312 27.2188L28.4688 29.5625L26.125 30.4219L24.9531 30.8906L22.1406 31.9844L19.5625 38.2344L19.25 39.0156L18.625 40.5H16.9062H16.125H9.25H8H5.5V38V36.75V25.5V24.25V21.75H8H10.5H13ZM13 30.1875L10.5 31.2031V28.5469V26.75V25.5V24.25H8V25.5V26.75V31.2031V34.875V35.5V36.75V38H9.25H10.5H16.125H16.9062L17.2188 37.2188L20.2656 30.0312L22.9219 29.0156L24.0156 28.5469L25.1875 28.0781L24.3281 25.8125L23.1562 26.2031L21.9844 26.6719L19.3281 27.6875L18.3125 28.0781L13 30.1875ZM28.625 16.75C28.625 17.8438 27.7656 18.625 26.75 18.625C25.7344 18.625 24.875 17.8438 24.875 16.75C24.875 15.7344 25.7344 14.875 26.75 14.875C27.7656 14.875 28.625 15.7344 28.625 16.75Z" fill="#A1E7D7"/>
</svg>
