<svg width="27" height="24" viewBox="0 0 27 24" fill="none" xmlns="http://www.w3.org/2000/svg">
<path d="M14.4844 4.96875L17.2969 10.6406L18 12L19.1719 11.0625L23.625 7.5C23.3906 7.21875 23.25 6.79688 23.25 6.375C23.25 5.34375 24.0469 4.5 25.125 4.5C26.1562 4.5 27 5.34375 27 6.375C27 7.45312 26.1562 8.25 25.125 8.25C25.0781 8.25 25.0781 8.25 25.0781 8.25L22.5 22.5H4.5L1.875 8.25C0.796875 8.25 0 7.45312 0 6.375C0 5.34375 0.796875 4.5 1.875 4.5C2.90625 4.5 3.75 5.34375 3.75 6.375C3.75 6.79688 3.60938 7.21875 3.375 7.5L7.78125 11.0625L9 12L9.65625 10.6406L12.5156 4.96875C11.9531 4.64062 11.625 4.07812 11.625 3.375C11.625 2.34375 12.4219 1.5 13.5 1.5C14.5312 1.5 15.375 2.34375 15.375 3.375C15.375 4.07812 15 4.64062 14.4844 4.96875ZM10.3125 12.7031L9.46875 14.3438L8.0625 13.1719L3.65625 9.70312L5.71875 21H21.2344L23.2969 9.70312L18.9375 13.1719L17.4844 14.3438L16.6406 12.7031L13.5 6.375L10.3125 12.7031Z" fill="#002664"/>
</svg>
