<svg width="25" height="24" viewBox="0 0 25 24" fill="none" xmlns="http://www.w3.org/2000/svg">
<path d="M2 12L1.95312 12.0469C1.95312 12.9844 2.09375 13.9219 2.375 14.8125L0.921875 15.2344C0.640625 14.2031 0.5 13.125 0.5 12C0.5 5.39062 5.84375 0 12.5 0C19.1094 0 24.5 5.39062 24.5 12C24.5 17.8125 20.375 22.6875 14.8906 23.7656L14.5625 22.3125C19.3906 21.3281 23 17.1094 23 12C23 6.23438 18.2656 1.5 12.5 1.5C6.6875 1.5 2 6.23438 2 12ZM10.625 6.79688C9.64062 6 8.28125 5.85938 7.20312 6.46875L6.82812 6.65625L6.21875 7.03125L5.46875 5.71875L6.125 5.39062L6.45312 5.20312C8.09375 4.21875 10.1562 4.45312 11.6094 5.67188L12.2188 6.1875L12.7812 6.70312L11.7969 7.82812L11.2344 7.35938L10.625 6.79688ZM8.75 10.125C8.14062 10.125 7.625 9.65625 7.625 9C7.625 8.39062 8.14062 7.875 8.75 7.875C9.35938 7.875 9.875 8.39062 9.875 9C9.875 9.65625 9.35938 10.125 8.75 10.125ZM8 12.75V14.25V15V16.2188L12.3594 14.5312L9.26562 13.5L9.73438 12.0469L14.5156 13.6406L15.6406 13.2188L16.1562 14.625L16.7188 16.0312L17.2812 17.4375L15.875 17.9531L15.1719 18.2344L13.4844 18.8906L11.9375 22.6406L11.75 23.1094L11.375 24H10.3438H9.875H5.75H5H3.5V22.5V21.75V15V14.25V12.75H5H6.5H8ZM8 17.8125L6.5 18.4219V16.8281V15.75V15V14.25H5V15V15.75V18.4219V20.625V21V21.75V22.5H5.75H6.5H9.875H10.3438L10.5312 22.0312L12.3594 17.7188L13.9531 17.1094L14.6094 16.8281L15.3125 16.5469L14.7969 15.1875L14.0938 15.4219L13.3906 15.7031L11.7969 16.3125L11.1875 16.5469L8 17.8125ZM17.375 9.75C17.375 10.4062 16.8594 10.875 16.25 10.875C15.6406 10.875 15.125 10.4062 15.125 9.75C15.125 9.14062 15.6406 8.625 16.25 8.625C16.8594 8.625 17.375 9.14062 17.375 9.75Z" fill="#002664"/>
</svg>
