<svg width="31" height="24" viewBox="0 0 31 24" fill="none" xmlns="http://www.w3.org/2000/svg">
<path d="M14.3281 2.8125L13.8594 2.29688C13.4844 1.78125 12.875 1.5 12.2656 1.5C11.1406 1.5 10.25 2.4375 10.25 3.5625V3.75C10.25 4.3125 10.4844 4.875 10.8594 5.29688L12.0312 6.46875L15.5 9.89062L18.9219 6.46875L20.0938 5.29688C20.5156 4.875 20.75 4.3125 20.75 3.75V3.5625C20.75 2.4375 19.8125 1.5 18.6875 1.5C18.0781 1.5 17.4688 1.78125 17.0938 2.29688L16.6719 2.8125L15.5 4.3125L14.3281 2.8125ZM20 7.5L16.5312 10.9688L15.5 12L14.4219 10.9688L11 7.5L9.82812 6.375C9.125 5.67188 8.75 4.73438 8.75 3.75V3.5625C8.75 1.59375 10.2969 0 12.2656 0C13.0625 0 13.8594 0.28125 14.4688 0.75C14.6562 0.9375 14.8906 1.125 15.0312 1.35938L15.5 1.875L15.9219 1.35938C16.1094 1.125 16.2969 0.9375 16.4844 0.75C17.1406 0.28125 17.8906 0 18.6875 0C20.6562 0 22.25 1.59375 22.25 3.5625V3.75C22.25 4.73438 21.8281 5.67188 21.125 6.375L20 7.5ZM5.75 3H6.5V3.75V12.4688L8.1875 10.7344L8.75 10.2188L9.26562 10.7344L15.5 16.9688L21.6875 10.7344L22.25 10.2188L22.7656 10.7344L24.5 12.4688V3.75V3H25.25H29.75H30.5V3.75V18V18.3281L30.2656 18.5625L25.3906 23.4375L24.875 23.9531L23.7969 22.875L24.3125 22.3594L29 17.7188V4.5H26V13.5V13.8281L25.9062 13.875L25.7656 14.0625L25.3906 14.4375L22.0156 17.8125L21.5 18.3281L21.2656 18.5625L20.75 19.0781L19.6719 18L20.1875 17.4844L20.4219 17.25L20.9375 16.7344L23.7969 13.875L22.25 12.3281L16.25 18.3281V23.25V24H14.75V23.25V18.3281L8.75 12.3281L7.15625 13.875L10.0156 16.7344L10.7656 17.4844L11.2812 18L10.25 19.0781L9.6875 18.5625L8.9375 17.8125L5.5625 14.4375L5.1875 14.0625L5.04688 13.875L5 13.8281V13.5V4.5H2V17.7188L6.64062 22.3594L7.15625 22.875L6.125 23.9531L5.5625 23.4375L0.6875 18.5625L0.5 18.3281V18V3.75V3H1.25H5.75Z" fill="#002664"/>
</svg>
