<svg width="33" height="41" viewBox="0 0 33 41" fill="none" xmlns="http://www.w3.org/2000/svg">
<path d="M27 4.5H27.5H28.5V5.5V33.5V34.5H27.5H27H26.625L26.375 34.25L22.5 30.875C19.6875 28.4375 16.1875 26.9375 12.5 26.6875V35.5V36.5H11.5H5.5H4.5V35.5V26.5H1.5H0.5V25.5V13.5V12.5H1.5H9.4375L12.25 12.375C16 12.1875 19.625 10.6875 22.5 8.1875L26.375 4.75L26.625 4.5H27ZM10.5 26.5625L9.4375 26.5H6.5V34.5H10.5V26.5625ZM23.8125 9.6875C21.125 12 17.9375 13.5625 14.5 14.125V24.9375C17.9375 25.5 21.125 27.0625 23.8125 29.375L26.5 31.6875V7.3125L23.8125 9.6875ZM12.5 14.375H12.4375C12.4375 14.375 12.375 14.375 12.3125 14.375L9.5 14.5H2.5V24.5H9.5L12.3125 24.6875C12.375 24.6875 12.4375 24.6875 12.5 24.6875V14.375ZM32.5 16.5V17.5V21.5V22.5H30.5V21.5V17.5V16.5H32.5Z" fill="#A1E7D7"/>
</svg>
