<svg width="24" height="24" viewBox="0 0 24 24" fill="none" xmlns="http://www.w3.org/2000/svg">
<path d="M3.7773 19.1364V23.5301L5.5448 22.4696L11.1005 19.1364H16.6107C17.8975 19.1364 18.944 18.0899 18.944 16.8031V7.46969C18.944 6.18289 17.8975 5.13639 16.6107 5.13639H2.6107C1.32384 5.13639 0.277344 6.18289 0.277344 7.46969V16.8031C0.277344 18.0899 1.32384 19.1364 2.6107 19.1364H3.7773ZM2.6107 7.46969H16.6107V16.8031H10.4542L6.1107 19.4094V16.8031H2.6107V7.46969ZM21.2773 0.469727H7.2773C5.9905 0.469727 4.944 1.51623 4.944 2.80309H18.944C20.2308 2.80309 21.2773 3.84959 21.2773 5.13639V14.4697C22.5642 14.4697 23.6107 13.4232 23.6107 12.1364V2.80309C23.6107 1.51623 22.5642 0.469727 21.2773 0.469727Z" fill="white"/>
</svg>
