<svg width="15" height="17" viewBox="0 0 15 17" fill="none" xmlns="http://www.w3.org/2000/svg">
<path d="M0.714844 9.17773C0.558594 9.02148 0.496094 8.83398 0.496094 8.61523C0.496094 8.42773 0.558594 8.24023 0.714844 8.08398L6.21484 2.83398C6.52734 2.55273 6.99609 2.55273 7.27734 2.86523C7.55859 3.14648 7.55859 3.64648 7.24609 3.92773L3.08984 7.86523H13.7461C14.1523 7.86523 14.4961 8.20898 14.4961 8.61523C14.4961 9.05273 14.1523 9.36523 13.7461 9.36523H3.08984L7.24609 13.334C7.55859 13.6152 7.55859 14.084 7.27734 14.3965C6.99609 14.709 6.52734 14.709 6.21484 14.4277L0.714844 9.17773Z" fill="#002664"/>
</svg>
