<svg width="140" height="102" viewBox="0 0 140 102" fill="none" xmlns="http://www.w3.org/2000/svg">
<g clip-path="url(#clip0_2457_27219)">
<mask id="path-1-inside-1_2457_27219" fill="white">
<path d="M29.7167 65.6683C27.0752 80.1862 22.6958 90.6058 19.1854 97.0311C17.8299 99.5666 20.6104 102.345 23.0781 100.921C52.378 83.8678 65.2033 58.9651 66.8021 39.0291C68.1923 21.8021 56.4446 4.08892 38.6144 0.858861C20.8189 -2.40593 3.7534 9.40288 0.521029 27.2203C-2.88513 45.8712 10.2877 63.7928 29.6819 65.6683"/>
</mask>
<path d="M19.1854 97.0311L17.4302 96.0722L17.4259 96.0802L17.4216 96.0882L19.1854 97.0311ZM23.0781 100.921L24.0777 102.653L24.0842 102.65L23.0781 100.921ZM66.8021 39.0291L64.8085 38.8682L64.8085 38.8692L66.8021 39.0291ZM38.6144 0.858861L38.2535 2.82603L38.2579 2.82683L38.6144 0.858861ZM0.521029 27.2203L2.48849 27.5796L2.48891 27.5773L0.521029 27.2203ZM27.749 65.3103C25.1471 79.6105 20.8418 89.8279 17.4302 96.0722L20.9405 97.99C24.5498 91.3837 29.0032 80.7619 31.6844 66.0264L27.749 65.3103ZM17.4216 96.0882C15.1904 100.262 19.7347 105.16 24.0777 102.653L22.0785 99.1888C21.8662 99.3113 21.7022 99.3208 21.5739 99.299C21.4263 99.2738 21.2586 99.1929 21.1117 99.0462C20.8212 98.7558 20.7377 98.3695 20.9491 97.9741L17.4216 96.0882ZM24.0842 102.65C53.9092 85.2907 67.1408 59.8241 68.7957 39.189L64.8085 38.8692C63.2657 58.1061 50.8469 82.4449 22.0721 99.1926L24.0842 102.65ZM68.7956 39.19C70.2582 21.0662 57.9346 2.32628 38.9709 -1.10911L38.2579 2.82683C54.9546 5.85155 66.1264 22.538 64.8085 38.8682L68.7956 39.19ZM38.9753 -1.10831C20.0904 -4.57296 1.9827 7.95899 -1.44685 26.8633L2.48891 27.5773C5.5241 10.8468 21.5475 -0.238889 38.2535 2.82603L38.9753 -1.10831ZM-1.44643 26.861C-5.06101 46.6532 8.91892 65.6698 29.4894 67.6591L29.8744 63.6776C11.6564 61.9159 -0.709243 45.0893 2.48849 27.5796L-1.44643 26.861Z" fill="#A1E7D7" mask="url(#path-1-inside-1_2457_27219)"/>
<mask id="path-3-inside-2_2457_27219" fill="white">
<path d="M102.81 65.6677C100.169 80.1856 95.7895 90.6052 92.279 97.0305C90.9235 99.566 93.7041 102.344 96.1718 100.92C125.472 83.8672 138.297 58.9645 139.896 39.0285C141.286 21.8015 129.538 4.0883 111.708 0.858249C93.9126 -2.37181 76.8471 9.437 73.6147 27.2544C70.2433 45.9054 83.3813 63.827 102.81 65.7025"/>
</mask>
<path d="M92.279 97.0305L90.5239 96.0716L90.5196 96.0796L90.5153 96.0876L92.279 97.0305ZM96.1718 100.92L97.1714 102.653L97.1779 102.649L96.1718 100.92ZM139.896 39.0285L137.902 38.8676L137.902 38.8686L139.896 39.0285ZM111.708 0.858249L111.351 2.8261L111.352 2.82622L111.708 0.858249ZM73.6147 27.2544L71.6468 26.8974L71.6466 26.8986L73.6147 27.2544ZM100.843 65.3097C98.2407 79.6099 93.9354 89.8273 90.5239 96.0716L94.0342 97.9894C97.6435 91.383 102.097 80.7613 104.778 66.0258L100.843 65.3097ZM90.5153 96.0876C88.284 100.261 92.8284 105.159 97.1714 102.653L95.1722 99.1882C94.9599 99.3107 94.7958 99.3202 94.6675 99.2983C94.52 99.2732 94.3523 99.1923 94.2054 99.0456C93.9149 98.7552 93.8314 98.3689 94.0428 97.9735L90.5153 96.0876ZM97.1779 102.649C127.003 85.2901 140.234 59.8235 141.889 39.1883L137.902 38.8686C136.359 58.1055 123.941 82.4443 95.1657 99.1919L97.1779 102.649ZM141.889 39.1894C143.352 21.0656 131.028 2.32567 112.065 -1.10972L111.352 2.82622C128.048 5.85094 139.22 22.5374 137.902 38.8676L141.889 39.1894ZM112.065 -1.1096C93.1834 -4.53685 75.0765 7.99264 71.6468 26.8974L75.5826 27.6114C78.6177 10.8814 94.6419 -0.206762 111.351 2.8261L112.065 -1.1096ZM71.6466 26.8986C68.0697 46.6861 82.0104 65.7039 102.618 67.6932L103.003 63.7117C84.7523 61.95 72.4168 45.1246 75.5828 27.6102L71.6466 26.8986Z" fill="#A1E7D7" mask="url(#path-3-inside-2_2457_27219)"/>
</g>
<defs>
<clipPath id="clip0_2457_27219">
<rect width="140" height="101" fill="white" transform="translate(0 0.302734)"/>
</clipPath>
</defs>
</svg>
