<svg width="141" height="102" viewBox="0 0 141 102" fill="none" xmlns="http://www.w3.org/2000/svg">
<g clip-path="url(#clip0_4166_12204)">
<mask id="path-1-inside-1_4166_12204" fill="white">
<path d="M110.537 35.9763C113.178 21.4584 117.558 11.0388 121.068 4.61346C122.423 2.07804 119.643 -0.700503 117.175 0.723499C87.8753 17.7768 75.0501 42.6795 73.4513 62.6155C72.061 79.8425 83.8087 97.5557 101.639 100.786C119.434 104.016 136.5 92.207 139.732 74.3896C143.104 55.7386 129.966 37.817 110.571 35.9415"/>
</mask>
<path d="M121.068 4.61346L122.823 5.57236L122.827 5.5644L122.832 5.55641L121.068 4.61346ZM117.175 0.723499L116.176 -1.00879L116.169 -1.00504L117.175 0.723499ZM73.4513 62.6155L75.4448 62.7764L75.4448 62.7754L73.4513 62.6155ZM101.639 100.786L101.996 98.8179L101.995 98.8178L101.639 100.786ZM139.732 74.3896L141.7 74.7466L141.7 74.7454L139.732 74.3896ZM112.504 36.3343C115.106 22.0341 119.412 11.8167 122.823 5.57236L119.313 3.65456C115.703 10.2609 111.25 20.8827 108.569 35.6182L112.504 36.3343ZM122.832 5.55641C125.063 1.38297 120.519 -3.51492 116.176 -1.00878L118.175 2.45577C118.387 2.33328 118.551 2.3238 118.679 2.34564C118.827 2.37076 118.995 2.45167 119.142 2.59842C119.432 2.88876 119.516 3.27508 119.304 3.6705L122.832 5.55641ZM116.169 -1.00504C86.3441 16.3539 73.1125 41.8205 71.4577 62.4556L75.4448 62.7754C76.9876 43.5385 89.4064 19.1997 118.181 2.45204L116.169 -1.00504ZM71.4577 62.4546C69.9951 80.5784 82.3188 99.3183 101.282 102.754L101.995 98.8178C85.2987 95.7931 74.1269 79.1066 75.4448 62.7764L71.4577 62.4546ZM101.282 102.754C120.164 106.181 138.271 93.6514 141.7 74.7466L137.764 74.0326C134.729 90.7626 118.705 101.851 101.996 98.8179L101.282 102.754ZM141.7 74.7454C145.277 54.9592 131.338 35.9404 110.764 33.9508L110.379 37.9322C128.593 39.6936 140.93 56.5181 137.764 74.0338L141.7 74.7454Z" fill="#A1E7D7" mask="url(#path-1-inside-1_4166_12204)"/>
<mask id="path-3-inside-2_4166_12204" fill="white">
<path d="M37.4422 35.9763C40.0837 21.4584 44.4631 11.0388 47.9735 4.61346C49.3638 2.07804 46.5485 -0.700503 44.0807 0.723499C14.7808 17.7768 1.92087 42.6448 0.322061 62.6155C-1.06821 79.8425 10.7143 97.5557 28.5097 100.786C46.3052 104.016 63.3707 92.207 66.6031 74.3896C69.9745 55.7386 56.8365 37.817 37.4422 35.9415"/>
</mask>
<path d="M47.9735 4.61346L46.2198 3.65186L46.2184 3.65456L47.9735 4.61346ZM44.0807 0.723499L43.0811 -1.00879L43.0747 -1.00504L44.0807 0.723499ZM0.322061 62.6155L2.31558 62.7764L2.31568 62.7751L0.322061 62.6155ZM66.6031 74.3896L68.571 74.7466L68.5712 74.7454L66.6031 74.3896ZM39.4099 36.3343C42.0118 22.0341 46.3171 11.8167 49.7286 5.57236L46.2184 3.65456C42.609 10.261 38.1556 20.8827 35.4745 35.6182L39.4099 36.3343ZM49.7272 5.57506C52.0521 1.33506 47.3688 -3.483 43.0811 -1.00878L45.0804 2.45577C45.2909 2.33425 45.4575 2.3232 45.5914 2.3459C45.7444 2.37183 45.9158 2.45495 46.0638 2.60208C46.2116 2.74896 46.3007 2.92472 46.3304 3.08984C46.3569 3.23699 46.3462 3.42139 46.2198 3.65186L49.7272 5.57506ZM43.0747 -1.00504C13.2518 16.3527 -0.0165837 41.7835 -1.67156 62.4559L2.31568 62.7751C3.85832 43.506 16.3099 19.2009 45.0868 2.45204L43.0747 -1.00504ZM-1.67146 62.4546C-3.13426 80.5803 9.22598 99.3182 28.1526 102.754L28.8669 98.8179C12.2026 95.7932 0.99784 79.1047 2.31558 62.7764L-1.67146 62.4546ZM28.1526 102.754C47.0344 106.181 65.1413 93.6514 68.571 74.7466L64.6352 74.0326C61.6001 90.7626 45.5759 101.851 28.8669 98.8179L28.1526 102.754ZM68.5712 74.7454C72.1478 54.9592 58.2088 35.9404 37.6347 33.9508L37.2497 37.9322C55.4641 39.6936 67.8012 56.5181 64.635 74.0338L68.5712 74.7454Z" fill="#A1E7D7" mask="url(#path-3-inside-2_4166_12204)"/>
</g>
<defs>
<clipPath id="clip0_4166_12204">
<rect width="140" height="101" fill="white" transform="translate(0.21875 0.306641)"/>
</clipPath>
</defs>
</svg>
