<svg width="40" height="40" viewBox="0 0 40 40" fill="none" xmlns="http://www.w3.org/2000/svg">
<path d="M18.4375 7.75L17.8125 7.0625C17.3125 6.375 16.5 6 15.6875 6C14.1875 6 13 7.25 13 8.75V9C13 9.75 13.3125 10.5 13.8125 11.0625L15.375 12.625L20 17.1875L24.5625 12.625L26.125 11.0625C26.6875 10.5 27 9.75 27 9V8.75C27 7.25 25.75 6 24.25 6C23.4375 6 22.625 6.375 22.125 7.0625L21.5625 7.75L20 9.75L18.4375 7.75ZM26 14L21.375 18.625L20 20L18.5625 18.625L14 14L12.4375 12.5C11.5 11.5625 11 10.3125 11 9V8.75C11 6.125 13.0625 4 15.6875 4C16.75 4 17.8125 4.375 18.625 5C18.875 5.25 19.1875 5.5 19.375 5.8125L20 6.5L20.5625 5.8125C20.8125 5.5 21.0625 5.25 21.3125 5C22.1875 4.375 23.1875 4 24.25 4C26.875 4 29 6.125 29 8.75V9C29 10.3125 28.4375 11.5625 27.5 12.5L26 14ZM12.6875 23H13H26H27V24V28L33.4375 24.1875L34.3125 23.6875L34.8125 24.5L37.3125 28.5L37.875 29.3125L37 29.875L27.5 35.875L27.25 36H27H3H2V34H3H26.6875L35.125 28.6875L33.625 26.375L27.75 29.875L27.5625 30H27.25H27H26H22H21H18H17V28H18H21H22H25V25H13.25L7.5 28.875L7.25 29H7H3H2V27H3H6.6875L12.4375 23.1875L12.6875 23Z" fill="white"/>
</svg>
