<svg width="40" height="40" viewBox="0 0 40 40" fill="none" xmlns="http://www.w3.org/2000/svg">
<path d="M5.8125 11.25C5.5 10.5 4.8125 10 4 10C2.875 10 2 10.9375 2 12C2 13 2.6875 13.8125 3.625 14C4.1875 12.9375 4.9375 12.0625 5.8125 11.25ZM0 12C0 9.8125 1.75 8 4 8C5.4375 8 6.6875 8.8125 7.4375 10C9.3125 8.75 11.5625 8 14 8C16.875 8 19.6875 9 22 10.8125L26.875 14.6875L26 18L28 19.5L30.8125 17.8125L38.375 23.8125L40 25L38.625 26.5L33.5 32L23.75 26.9375C21.5625 30 18 32 14 32C7.375 32 2 26.625 2 20C2 18.5625 2.25 17.125 2.75 15.8125C1.125 15.3125 0 13.8125 0 12ZM23.125 24.375L24.6875 25.1875L33.0625 29.5625L37.0625 25.25L30.6875 20.25L29 21.25L27.875 21.9375L26.75 21.125L24.75 19.625L23.6875 18.8125L24.0625 17.5L24.625 15.4375L20.75 12.375C18.8125 10.875 16.4375 10 14 10C8.4375 10 4 14.5 4 20C4 25.5625 8.4375 30 14 30C17.3125 30 20.3125 28.375 22.125 25.8125L23.125 24.375ZM16 20C16 18.9375 15.0625 18 14 18C12.875 18 12 18.9375 12 20C12 21.125 12.875 22 14 22C15.0625 22 16 21.125 16 20ZM14 16C15.375 16 16.6875 16.8125 17.4375 18C18.125 19.25 18.125 20.8125 17.4375 22C16.6875 23.25 15.375 24 14 24C12.5625 24 11.25 23.25 10.5 22C9.8125 20.8125 9.8125 19.25 10.5 18C11.25 16.8125 12.5625 16 14 16Z" fill="white"/>
</svg>
