<svg width="40" height="40" viewBox="0 0 40 40" fill="none" xmlns="http://www.w3.org/2000/svg">
<path d="M20 22L7.875 17.8125L5 20.4375V26.1875C5.9375 27.8125 6.5625 30.375 5 34L2 33.4375L0 33C0 33 0.3125 32.3125 0.8125 31.125C1.3125 29.9375 1.9375 28.1875 2.4375 26.1875C2.625 25.5 2.8125 24.75 3 24V20V19.5625L3.3125 19.3125L5.75 17.0625L0 15V13L20 6L40 13V15L20 22ZM3.1875 14L7.375 15.5L7.4375 15.4375L7.625 15.375L19.625 10.875L20.3125 12.75L10.3125 16.5L20 19.9375L36.75 14L20 8.125L3.1875 14ZM8.9375 20.3125L10.875 20.9375L10 29.4375C10.0625 29.5 10.125 29.5625 10.25 29.625C10.625 30 11.25 30.375 12.1875 30.75C14.125 31.5 16.875 32 20 32C23.0625 32 25.8125 31.5 27.75 30.75C28.6875 30.375 29.3125 30 29.6875 29.6875C29.8125 29.5625 29.875 29.5 29.9375 29.4375L29.0625 21L31 20.3125L32 29.5C32 31.75 26.625 34 20 34C13.375 34 8 31.75 8 29.5L8.9375 20.3125ZM30 29.3125C30 29.3125 30 29.3125 30 29.375C30 29.3125 30 29.3125 30 29.3125ZM9.9375 29.3125C9.9375 29.3125 9.9375 29.3125 9.9375 29.375C9.9375 29.3125 9.9375 29.3125 9.9375 29.3125ZM3.6875 31.75C4 30.5 4 29.5 3.8125 28.6875C3.5625 29.625 3.25 30.4375 2.9375 31.125C2.9375 31.25 2.875 31.4375 2.8125 31.5625L3.6875 31.75Z" fill="white"/>
</svg>
