<svg width="40" height="40" viewBox="0 0 40 40" fill="none" xmlns="http://www.w3.org/2000/svg">
<path d="M15.125 5L20 7.625L24.8125 5L26.625 4L27.1875 6L28.75 11.25L34 12.8125L36 13.375L35 15.1875L32.375 20L35 24.875L36 26.625L34 27.25L28.75 28.8125L27.1875 34.0625L26.625 36L24.8125 35.0625L20 32.4375L15.125 35.0625L13.375 36L12.75 34.0625L11.1875 28.8125L5.9375 27.25L4 26.625L4.9375 24.875L7.5625 20L4.9375 15.1875L4 13.375L5.9375 12.8125L11.1875 11.25L12.75 6L13.375 4L15.125 5ZM20.9375 9.375L20 9.875L19 9.375L14.5625 6.9375L13.125 11.8125L12.8125 12.875L11.75 13.1875L6.875 14.625L9.3125 19.0625L9.8125 20L9.3125 21L6.875 25.4375L11.75 26.875L12.8125 27.1875L13.125 28.25L14.5625 33.125L19 30.6875L20 30.1875L20.9375 30.6875L25.375 33.125L26.875 28.25L27.1875 27.1875L28.1875 26.875L33.0625 25.4375L30.625 21L30.125 20L30.625 19.0625L33.0625 14.625L28.1875 13.125L27.125 12.8125L26.8125 11.8125L25.375 6.9375L20.9375 9.375ZM20 12C22.8125 12 25.4375 13.5625 26.875 16C28.3125 18.5 28.3125 21.5625 26.875 24C25.4375 26.5 22.8125 28 20 28C17.125 28 14.5 26.5 13.0625 24C11.625 21.5625 11.625 18.5 13.0625 16C14.5 13.5625 17.125 12 20 12ZM26 20C26 17.875 24.8125 15.9375 23 14.8125C21.125 13.75 18.8125 13.75 17 14.8125C15.125 15.9375 14 17.875 14 20C14 22.1875 15.125 24.125 17 25.25C18.8125 26.3125 21.125 26.3125 23 25.25C24.8125 24.125 26 22.1875 26 20Z" fill="white"/>
</svg>
