<svg width="40" height="40" viewBox="0 0 40 40" fill="none" xmlns="http://www.w3.org/2000/svg">
<path d="M4 36L4.375 33.875L6 26L26.5625 5.4375L28 4L29.375 5.4375L34.5625 10.625L36 12L34.5625 13.4375L14 34L6.125 35.625L4 36ZM15 29V30.1875L28.875 16.3125L23.6875 11.125L9.8125 25H11H12V26V28H14H15V29ZM13 32V30H11H10V29V27H8C7.9375 27 7.875 27 7.8125 27L6.5 33.5L13 32.1875C13 32.125 13 32.0625 13 32ZM30.25 14.9375L33.125 12L28 6.875L25.0625 9.75L30.25 14.875V14.9375ZM24.6875 16.6875L16.6875 24.6875L16 25.4375L14.5625 24L15.25 23.3125L23.25 15.3125L24 14.5625L25.375 16L24.6875 16.6875Z" fill="white"/>
</svg>
