<svg width="40" height="40" viewBox="0 0 40 40" fill="none" xmlns="http://www.w3.org/2000/svg">
<path d="M12 30H6V34H12V30ZM12 12H6V28H12V12ZM12 6H6V10H12V6ZM14 4H20H22V5.625L26.0625 4.5625L28 4L28.5 5.9375L29.625 10L29.875 10.9375L30.125 11.9375L33.8125 25.6875L34.0625 26.625L34.3125 27.625L35.375 31.625L35.875 33.5625L34 34.0625L28.625 35.5L26.6875 36.0625L26.1875 34.125L25.0625 30.0625L24.8125 29.125L24.5625 28.125L22 18.4375V28V29V30V34V36H20H14H12H6H4V34V30V29V28V12V11V10V6V4H6H12H14ZM22 7.6875V10V10.6875L22.3125 11.9375L27.6875 10.5L26.5625 6.5L22 7.6875ZM20 34V30H14V34H20ZM20 10V6H14V10H20ZM20 28V12H14V28H20ZM28.125 33.5625L33.4375 32.125L32.375 28.125L27 29.5625L28.125 33.5625ZM26.5 27.625L31.875 26.1875L28.1875 12.4375L22.8125 13.875L26.5 27.625Z" fill="white"/>
</svg>
