<svg width="40" height="40" viewBox="0 0 40 40" fill="none" xmlns="http://www.w3.org/2000/svg">
<path d="M18.6875 12.25L18 12.9375L16.5625 11.5L17.25 10.8125L23 5.125V5H23.0625L23.25 4.8125L24 4.125L24.6875 4.8125L24.875 5H25V5.125L30.6875 10.8125L31.375 11.5L30 12.9375L29.25 12.25L25 7.9375V21V22V28V29V34H35H36V36H35H24H23V35V29V28V23H7.875L12.1875 27.3125L12.875 28L11.5 29.4375L10.75 28.75L4.75 22.75L4.0625 22L4.75 21.3125L10.75 15.3125L11.5 14.625L12.875 16L12.1875 16.75L7.875 21H23V7.9375L18.6875 12.25Z" fill="white"/>
</svg>
