<svg width="27" height="25" viewBox="0 0 27 25" fill="none" xmlns="http://www.w3.org/2000/svg">
<path d="M20.8125 20.0469C22.7812 18.125 24 15.4531 24 12.5C24 6.73438 19.2656 2 13.5 2C7.6875 2 3 6.73438 3 12.5C3 15.4531 4.21875 18.125 6.14062 20.0469C6.79688 17.4688 9.1875 15.5 12 15.5H15C17.7656 15.5 20.1562 17.4688 20.8125 20.0469ZM19.4531 21.125V21.1719C19.2656 18.8281 17.3438 17 15 17H12C9.60938 17 7.6875 18.8281 7.5 21.1719C9.1875 22.3438 11.25 23 13.5 23C15.7031 23 17.7656 22.3438 19.4531 21.125ZM13.5 24.5C9.1875 24.5 5.25 22.25 3.09375 18.5C0.9375 14.7969 0.9375 10.25 3.09375 6.5C5.25 2.79688 9.1875 0.5 13.5 0.5C17.7656 0.5 21.7031 2.79688 23.8594 6.5C26.0156 10.25 26.0156 14.7969 23.8594 18.5C21.7031 22.25 17.7656 24.5 13.5 24.5ZM13.5 12.5C14.2969 12.5 15 12.0781 15.4219 11.375C15.8438 10.7188 15.8438 9.82812 15.4219 9.125C15 8.46875 14.2969 8 13.5 8C12.6562 8 11.9531 8.46875 11.5312 9.125C11.1094 9.82812 11.1094 10.7188 11.5312 11.375C11.9531 12.0781 12.6562 12.5 13.5 12.5ZM9.75 10.25C9.75 8.9375 10.4531 7.71875 11.625 7.01562C12.75 6.35938 14.2031 6.35938 15.375 7.01562C16.5 7.71875 17.25 8.9375 17.25 10.25C17.25 11.6094 16.5 12.8281 15.375 13.5312C14.2031 14.1875 12.75 14.1875 11.625 13.5312C10.4531 12.8281 9.75 11.6094 9.75 10.25Z" fill="white"/>
</svg>
