<svg width="14" height="17" viewBox="0 0 14 17" fill="none" xmlns="http://www.w3.org/2000/svg">
<path d="M0.21875 8.75952C0.0625 8.60327 0 8.41577 0 8.19702C0 8.00952 0.0625 7.82202 0.21875 7.66577L5.71875 2.41577C6.03125 2.13452 6.5 2.13452 6.78125 2.44702C7.0625 2.72827 7.0625 3.22827 6.75 3.50952L2.59375 7.44702H13.25C13.6562 7.44702 14 7.79077 14 8.19702C14 8.63452 13.6562 8.94702 13.25 8.94702H2.59375L6.75 12.9158C7.0625 13.197 7.0625 13.6658 6.78125 13.9783C6.5 14.2908 6.03125 14.2908 5.71875 14.0095L0.21875 8.75952Z" fill="#A1E7D7"/>
</svg>
