<svg width="25" height="24" viewBox="0 0 25 24" fill="none" xmlns="http://www.w3.org/2000/svg">
<path d="M18.6875 19.3125L12.5 13.0781L6.26562 19.3125C5.98438 19.5938 5.51562 19.5938 5.1875 19.3125C4.90625 18.9844 4.90625 18.5156 5.1875 18.2344L11.4219 12L5.23438 5.8125C4.90625 5.53125 4.90625 5.0625 5.23438 4.73438C5.51562 4.45312 5.98438 4.45312 6.26562 4.73438L12.5 10.9688L18.6875 4.73438C18.9688 4.45312 19.4375 4.45312 19.7656 4.73438C20.0469 5.0625 20.0469 5.53125 19.7656 5.8125L13.5312 12L19.7656 18.2344C20.0469 18.5156 20.0469 18.9844 19.7656 19.3125C19.4375 19.5938 18.9688 19.5938 18.6875 19.3125Z" fill="white"/>
</svg>
