<svg width="24" height="24" viewBox="0 0 24 24" fill="none" xmlns="http://www.w3.org/2000/svg">
<path d="M24 12C24 18.1406 19.3594 23.2031 13.4531 23.9531V15.7031H16.6875L17.3438 12H13.4531V10.7344C13.4531 8.76562 14.2031 8.01562 16.1719 8.01562C16.7812 8.01562 17.25 8.0625 17.5312 8.0625V4.78125C17.0156 4.59375 15.7031 4.45312 14.9531 4.45312C10.9219 4.45312 9.09375 6.375 9.09375 10.4531V12H6.60938V15.7031H9.09375V23.6719C3.84375 22.3594 0 17.625 0 12C0 5.39062 5.34375 0 12 0C18.6094 0 24 5.39062 24 12Z" fill="white"/>
</svg>
