<svg width="24" height="24" viewBox="0 0 24 24" fill="none" xmlns="http://www.w3.org/2000/svg">
<path d="M12 6.60938C14.9531 6.60938 17.3906 9.04688 17.3906 12C17.3906 15 14.9531 17.3906 12 17.3906C9 17.3906 6.60938 15 6.60938 12C6.60938 9.04688 9 6.60938 12 6.60938ZM12 15.5156C13.9219 15.5156 15.4688 13.9688 15.4688 12C15.4688 10.0781 13.9219 8.53125 12 8.53125C10.0312 8.53125 8.48438 10.0781 8.48438 12C8.48438 13.9688 10.0781 15.5156 12 15.5156ZM18.8438 6.42188C18.8438 5.71875 18.2812 5.15625 17.5781 5.15625C16.875 5.15625 16.3125 5.71875 16.3125 6.42188C16.3125 7.125 16.875 7.6875 17.5781 7.6875C18.2812 7.6875 18.8438 7.125 18.8438 6.42188ZM22.4062 7.6875C22.5 9.42188 22.5 14.625 22.4062 16.3594C22.3125 18.0469 21.9375 19.5 20.7188 20.7656C19.5 21.9844 18 22.3594 16.3125 22.4531C14.5781 22.5469 9.375 22.5469 7.64062 22.4531C5.95312 22.3594 4.5 21.9844 3.23438 20.7656C2.01562 19.5 1.64062 18.0469 1.54688 16.3594C1.45312 14.625 1.45312 9.42188 1.54688 7.6875C1.64062 6 2.01562 4.5 3.23438 3.28125C4.5 2.0625 5.95312 1.6875 7.64062 1.59375C9.375 1.5 14.5781 1.5 16.3125 1.59375C18 1.6875 19.5 2.0625 20.7188 3.28125C21.9375 4.5 22.3125 6 22.4062 7.6875ZM20.1562 18.1875C20.7188 16.8281 20.5781 13.5469 20.5781 12C20.5781 10.5 20.7188 7.21875 20.1562 5.8125C19.7812 4.92188 19.0781 4.17188 18.1875 3.84375C16.7812 3.28125 13.5 3.42188 12 3.42188C10.4531 3.42188 7.17188 3.28125 5.8125 3.84375C4.875 4.21875 4.17188 4.92188 3.79688 5.8125C3.23438 7.21875 3.375 10.5 3.375 12C3.375 13.5469 3.23438 16.8281 3.79688 18.1875C4.17188 19.125 4.875 19.8281 5.8125 20.2031C7.17188 20.7656 10.4531 20.625 12 20.625C13.5 20.625 16.7812 20.7656 18.1875 20.2031C19.0781 19.8281 19.8281 19.125 20.1562 18.1875Z" fill="white"/>
</svg>
