<svg width="12" height="16" viewBox="0 0 12 16" fill="none" xmlns="http://www.w3.org/2000/svg">
<path d="M7.73438 5.73438L4.42969 9.03906L4.28906 10.2109L5.46094 10.0703L8.76562 6.76562L7.73438 5.73438ZM9.96094 7.16406L9.5625 7.5625L6 11.125L4.14844 11.3594L3 11.5L3.14062 10.3516L3.375 8.5L6.9375 4.9375L7.33594 4.53906L7.73438 4.14062L8.57812 3.29688L9.375 2.5L10.1484 3.29688L11.2031 4.35156L12 5.125L11.2031 5.92188L10.3594 6.76562L9.96094 7.16406ZM9.5625 5.99219L10.4062 5.125L9.375 4.09375L8.50781 4.9375L9.5625 5.99219ZM0.5625 4H4.6875H5.25V5.125H4.6875H1.125V13.375H9.375V9.8125V9.25H10.5V9.8125V13.9375V14.5H9.9375H0.5625H0V13.9375V4.5625V4H0.5625Z" fill="white"/>
</svg>
