<svg width="75" height="77" viewBox="0 0 75 77" fill="none" xmlns="http://www.w3.org/2000/svg">
<path d="M37.0792 12.6973C23.5867 12.6973 12.6055 23.6574 12.6055 37.124C12.6055 49.8535 22.4294 60.3466 34.9125 61.4525C34.2231 61.4033 33.5584 61.305 32.8936 61.1822V37.0995H20.312V28.7934H32.8936V17.6367H41.2649V28.7934H53.8465V37.124H41.2649V61.2067C40.6001 61.3296 39.9353 61.4033 39.2459 61.4771C51.729 60.3712 61.553 49.878 61.553 37.1486C61.5776 23.6574 50.5964 12.6973 37.0792 12.6973Z" fill="#204199" stroke="#034A9A" stroke-miterlimit="10"/>
<path d="M37.0786 61.5509C36.7585 61.5509 36.4138 61.5509 36.0938 61.5264C36.4385 61.5509 36.7585 61.5509 37.0786 61.5509Z" fill="#03499A"/>
<g opacity="0.5">
<path d="M32.918 61.1328C33.1149 61.1574 33.2873 61.2065 33.4843 61.2311C33.2873 61.182 33.0903 61.1574 32.918 61.1328Z" fill="black"/>
<path d="M33.5582 61.2316C33.5336 61.2316 33.509 61.2316 33.4844 61.207C33.509 61.207 33.5336 61.2316 33.5582 61.2316Z" fill="black"/>
<path d="M39.6895 61.3293C39.7879 61.3293 39.8864 61.3047 39.9849 61.3047C39.8864 61.3293 39.7879 61.3293 39.6895 61.3293Z" fill="black"/>
<path d="M39.9844 61.305C40.4029 61.2558 40.8461 61.1821 41.2647 61.1084C40.8461 61.2067 40.4029 61.2558 39.9844 61.305Z" fill="black"/>
<path d="M35.0117 61.4033C35.3318 61.4279 35.6519 61.4525 35.972 61.477C35.6519 61.4279 35.3318 61.4279 35.0117 61.4033Z" fill="black"/>
<path d="M39.1477 61.4033C38.8277 61.4279 38.5076 61.4525 38.1875 61.477C38.5322 61.4279 38.8277 61.4279 39.1477 61.4033Z" fill="black"/>
</g>
<path d="M41.2888 17.6367H32.9175V28.7934H20.3359V37.1486H32.9175V61.2314C34.2717 61.4771 35.6751 61.6 37.1032 61.6C38.5312 61.6 39.9346 61.4771 41.2888 61.2314V37.1486H53.8704V28.7934H41.2888V17.6367Z" fill="#C52032"/>
<path d="M37.0792 61.6247C35.7743 61.6247 34.4693 61.5264 33.189 61.3053V36.8294H20.6074V29.0639H33.189V17.9072H40.994V29.0639H53.5756V36.8294H40.994V61.3053C39.6891 61.5264 38.3841 61.6247 37.0792 61.6247Z" fill="#EAEBEC"/>
<path d="M37.0781 21.7654V32.7746L40.9683 29.0639L40.9929 17.9072L37.0781 21.7654Z" fill="#9C9EA1"/>
<path d="M37.0781 32.799L49.6105 32.7744L53.5499 36.8292H40.9683L37.0781 32.799Z" fill="#808184"/>
<path d="M40.9929 61.3049L37.0781 57.1027V32.7988L40.9683 36.829L40.9929 61.3049Z" fill="#9C9EA1"/>
<path d="M24.718 32.7988H37.078L33.1878 36.829L20.6309 36.8536L24.718 32.7988Z" fill="#808184"/>
<path d="M33.1875 61.3047L37.0777 57.1025L40.9925 61.3047C40.9925 61.3047 36.8561 62.0419 33.1875 61.3047Z" fill="#898B8D"/>
<path d="M53.5508 29.0879V36.8288L49.6113 32.774L53.5508 29.0879Z" fill="#9C9EA1"/>
<path d="M37.0778 73.7647C16.839 73.7647 0.367188 57.3245 0.367188 37.1245C0.367188 16.9245 16.839 0.484375 37.0778 0.484375C57.3167 0.484375 73.7885 16.9245 73.7885 37.1245C73.7885 57.3245 57.3167 73.7647 37.0778 73.7647ZM37.0778 12.7223C30.5531 12.7223 24.3978 15.2535 19.7935 19.8734C15.1647 24.4688 12.6287 30.6124 12.6287 37.1245C12.6287 43.6367 15.1647 49.7802 19.7935 54.4002C24.4224 59.0201 30.5531 61.5513 37.0778 61.5513C43.6025 61.5513 49.7579 59.0201 54.3621 54.4002C58.991 49.7802 61.527 43.6613 61.527 37.1245C61.527 30.5878 58.991 24.4688 54.3621 19.8489C49.7579 15.2535 43.6271 12.7223 37.0778 12.7223Z" fill="#E6E7E8"/>
<path d="M37.0787 73.8626C16.7659 73.8626 0.269531 57.3733 0.269531 37.1242C0.269531 16.875 16.7906 0.385742 37.0787 0.385742C57.3668 0.385742 73.8878 16.875 73.8878 37.1242C73.8878 57.3733 57.3914 73.8626 37.0787 73.8626ZM37.0787 0.60691C16.889 0.60691 0.491125 16.9979 0.491125 37.1242C0.491125 57.275 16.9137 73.6415 37.0787 73.6415C57.2683 73.6415 73.6662 57.2505 73.6662 37.1242C73.6908 16.9733 57.2683 0.60691 37.0787 0.60691ZM37.0787 61.6493C30.5047 61.6493 24.3493 59.0935 19.6959 54.4736C15.067 49.8536 12.5064 43.6855 12.5064 37.1242C12.5064 30.5629 15.067 24.4193 19.6959 19.7748C24.3493 15.1548 30.5047 12.5991 37.0787 12.5991C43.6526 12.5991 49.808 15.1548 54.4614 19.7748C59.0903 24.4193 61.6509 30.5629 61.6509 37.1242C61.6509 43.6855 59.0903 49.8291 54.4614 54.4736C49.808 59.0935 43.6526 61.6493 37.0787 61.6493ZM37.0787 12.8203C30.5786 12.8203 24.4478 15.3514 19.8682 19.9468C15.264 24.5422 12.728 30.6366 12.728 37.1242C12.728 43.6118 15.264 49.7308 19.8682 54.3016C24.4725 58.8969 30.5786 61.4281 37.0787 61.4281C43.5787 61.4281 49.7095 58.8969 54.2891 54.3016C58.8933 49.7062 61.4293 43.6118 61.4293 37.1242C61.4293 30.6366 58.8933 24.5176 54.2891 19.9468C49.7095 15.3514 43.6034 12.8203 37.0787 12.8203Z" fill="#929497"/>
<path d="M37.0787 1.07422C17.1353 1.07422 0.958984 17.2195 0.958984 37.1246C0.958984 57.0297 17.1353 73.1749 37.0787 73.1749C57.0221 73.1749 73.1984 57.0297 73.1984 37.1246C73.1984 17.2195 57.0467 1.07422 37.0787 1.07422ZM54.8062 54.7934C50.0789 59.5117 43.7758 62.1166 37.1033 62.1166C30.4309 62.1166 24.1278 59.5117 19.4005 54.7934C14.6732 50.0752 12.0633 43.7842 12.0633 37.1246C12.0633 30.4404 14.6732 24.174 19.4005 19.4557C24.1278 14.7375 30.4309 12.1326 37.1033 12.1326C43.7758 12.1326 50.0789 14.7375 54.8062 19.4557C59.5335 24.174 62.1434 30.465 62.1434 37.1246C62.1434 43.8088 59.5335 50.0752 54.8062 54.7934Z" fill="#C52032"/>
<path d="M68.1011 64.623H6.96592C3.56815 64.623 0.810547 67.3754 0.810547 70.742C0.810547 74.1333 3.56815 76.861 6.96592 76.861H68.1011C71.4988 76.861 74.2565 74.1087 74.2565 70.742C74.2318 67.3754 71.4988 64.623 68.1011 64.623ZM68.1503 76.3204H7.03979C3.9621 76.3204 1.47533 73.8384 1.47533 70.7666C1.47533 67.6948 3.9621 65.2128 7.03979 65.2128H68.1749C71.2526 65.2128 73.7394 67.6948 73.7394 70.7666C73.7148 73.8384 71.228 76.3204 68.1503 76.3204Z" fill="#E6E7E8"/>
<path d="M68.1019 77.0081H6.96675C3.51974 77.0081 0.712891 74.2067 0.712891 70.7663C0.712891 67.3259 3.51974 64.5244 6.96675 64.5244H68.1019C71.5489 64.5244 74.3558 67.3259 74.3558 70.7663C74.3558 74.2067 71.5489 77.0081 68.1019 77.0081ZM6.96675 64.7456C3.64285 64.7456 0.934484 67.4487 0.934484 70.7663C0.934484 74.0838 3.64285 76.7869 6.96675 76.7869H68.1019C71.4258 76.7869 74.1342 74.0838 74.1342 70.7663C74.1342 67.4487 71.4258 64.7456 68.1019 64.7456H6.96675ZM68.1512 76.4183H7.04062C3.91369 76.4183 1.37767 73.8872 1.37767 70.7663C1.37767 69.2672 1.96859 67.8419 3.02731 66.7607C4.08604 65.704 5.51408 65.1142 7.04062 65.1142H68.1758C69.6777 65.1142 71.1057 65.704 72.1891 66.7607C73.2478 67.8174 73.8387 69.2427 73.8387 70.7663C73.8387 72.2653 73.2478 73.6906 72.1891 74.7719C71.1057 75.8286 69.6777 76.4183 68.1512 76.4183ZM7.04062 65.3354C5.58795 65.3354 4.20914 65.9006 3.19966 66.9327C2.16556 67.9648 1.59926 69.3164 1.59926 70.7663C1.59926 73.7643 4.03679 76.1972 7.04062 76.1972H68.1758C69.6284 76.1972 71.0072 75.632 72.0167 74.5998C73.0508 73.5677 73.6171 72.2161 73.6171 70.7663C73.6171 69.3164 73.0508 67.9402 72.0167 66.9327C70.9826 65.9006 69.6284 65.3354 68.1758 65.3354H7.04062Z" fill="#929497"/>
<path d="M7.04102 65.2129H68.1762C71.2539 65.2129 73.7406 67.6949 73.7406 70.7667C73.7406 73.8384 71.2539 76.3204 68.1762 76.3204H7.04102C3.96333 76.3204 1.47656 73.8384 1.47656 70.7667C1.47656 67.6949 3.96333 65.2129 7.04102 65.2129Z" fill="#204199"/>
<path d="M54.9277 58.9702L55.2971 59.904L56.9713 58.4787L57.7838 59.4371L56.602 60.4446L57.2422 61.1819L58.424 60.1497L59.0888 60.9361L57.6361 62.214L58.3747 62.8283L60.4676 60.9853L57.0944 57.1025L54.9277 58.9702Z" fill="white"/>
<path d="M18.7838 57.6924L16.0262 60.8625L15.0413 60.0269L14.4258 60.7396L17.0357 63.0004L17.8482 62.4352L16.7648 61.526L19.5717 58.3067L18.7838 57.6924Z" fill="white"/>
<path d="M63.7916 55.1863C63.6193 54.7686 63.3484 54.3754 62.9545 54.0805C61.748 53.1467 60.0492 53.3924 59.1382 54.572C58.9904 54.744 58.8673 54.9652 58.7688 55.1863C58.5226 55.727 58.3749 56.3413 58.4488 56.6854L60.32 58.1598L61.6742 56.4396L61.1079 55.6041L60.1723 56.7837L59.4582 56.243C59.4829 55.899 59.6306 55.4812 59.8276 55.1863C59.8276 55.1618 59.8522 55.1618 59.8522 55.1372C60.3446 54.5228 61.4033 54.2034 62.2159 54.8423C62.339 54.9406 62.4621 55.0635 62.5606 55.1863C63.053 55.8007 63.1268 56.6362 62.6344 57.2751C62.2159 57.8158 61.7727 57.9141 61.2556 58.0615L61.5018 59.0199C62.1912 58.897 62.8314 58.6021 63.3731 57.8895C63.9886 57.1031 64.1363 56.071 63.7916 55.1863Z" fill="white"/>
<path d="M16.5913 55.4319L14.8678 56.7834L13.6121 55.1861L13.5875 55.137L15.3602 53.7608L14.6954 52.999L11.9132 55.1861L10.5098 56.2674L11.2238 56.9555L12.8242 55.7268L14.1045 57.3732L12.4302 58.6757L13.1443 59.3883L17.2561 56.1937L16.5913 55.4319Z" fill="white"/>
<path d="M11.7907 53.3671C13.1202 52.6791 13.6373 51.0326 12.9725 49.7056C12.2831 48.3786 10.6581 47.8134 9.32852 48.5014C7.99896 49.1895 7.48191 50.836 8.14669 52.163C8.81147 53.5146 10.4611 54.0552 11.7907 53.3671ZM9.05768 51.7207C8.63912 50.9097 8.98382 49.8776 9.79633 49.4598C10.6088 49.0421 11.6429 49.3861 12.0615 50.1971C12.4801 51.008 12.1354 52.0401 11.3229 52.4579C10.5103 52.8756 9.47625 52.5316 9.05768 51.7207Z" fill="white"/>
<path d="M61.3535 51.6475L62.0675 52.3602L63.077 50.4188L64.2096 50.984L63.4956 52.3847L64.3327 52.8271L65.0467 51.4263L65.9824 51.8933L65.096 53.638L66.007 53.9083L67.2873 51.4509L62.6585 49.0918L61.3535 51.6475Z" fill="white"/>
<path d="M11.2991 45.7982L8.63995 45.9948V45.9702L10.9051 44.1272L8.04904 43.4882V43.4637L10.5112 42.4807L10.1911 41.5469L5.24219 43.6848V43.7094L9.00928 44.5695L6.00545 46.9778V47.0024L11.3976 46.7566L11.2991 45.7982Z" fill="white"/>
<path d="M63.9395 45.7744L63.4224 47.3472L63.127 48.2564L63.9641 48.797L64.4319 47.3472L64.5304 47.0031L65.5891 47.3472L68.6668 48.3301L68.8638 47.3717L68.8145 47.3472L63.9395 45.7744Z" fill="white"/>
<path d="M64.2109 44.9629L65.0973 45.4053L65.5159 43.5868L69.7508 44.5452L69.8493 43.5622L64.8019 42.4072L64.2109 44.9629Z" fill="white"/>
<path d="M10.2891 40.3674L8.91026 39.9005L8.86102 39.5319L8.71329 37.9345L9.96899 37.1973L9.69815 36.1406L4.72461 39.3598V39.3844L5.14317 39.5319L10.2398 41.4487L10.2891 40.3674ZM7.72843 39.5319L6.52198 39.1878L7.87616 38.4506L7.97465 39.5319V39.6056L7.72843 39.5319Z" fill="white"/>
<path d="M6.32521 35.2316C8.1472 35.4527 7.85175 33.1428 8.86123 33.2656C9.18131 33.3148 9.42752 33.6343 9.37828 34.0029C9.30441 34.5681 9.00896 34.6909 8.7135 34.9121L9.32903 35.6739C9.91995 35.3053 10.24 34.7892 10.3385 34.1503C10.4616 33.1919 9.94457 32.3318 9.00896 32.2335C6.98999 31.9878 7.33469 34.2978 6.47294 34.1995C6.00513 34.1503 5.88203 33.8063 5.93127 33.4622C5.95589 33.1919 6.22673 32.8479 6.49756 32.6267L5.8574 31.9141C5.41422 32.1598 5.0449 32.7496 4.99565 33.2656C4.8233 34.2978 5.34035 35.1087 6.32521 35.2316Z" fill="white"/>
<path d="M68.052 36.313C66.5501 36.1655 65.2205 37.2714 65.0728 38.7704C65.0482 39.0407 65.0482 39.2865 65.0974 39.5322C65.319 40.6872 66.2546 41.6456 67.5103 41.7685C68.9384 41.9159 70.2187 40.9084 70.4649 39.5322C70.4895 39.4585 70.4895 39.3848 70.4895 39.311C70.6373 37.812 69.5539 36.4604 68.052 36.313ZM69.4062 39.5322C69.1846 40.294 68.4213 40.8101 67.6088 40.7364C66.9194 40.6626 66.3531 40.1711 66.1562 39.5322C66.0823 39.311 66.0823 39.1145 66.0823 38.8933C66.1808 37.984 67.0179 37.296 67.9289 37.3697C68.8399 37.468 69.5293 38.3035 69.4554 39.2127C69.4554 39.311 69.4308 39.4093 69.4062 39.5322Z" fill="white"/>
<path d="M12.8504 24.9349L13.5398 24.1239L13.3674 23.8782L12.7272 22.9198L13.786 21.2487L15.214 21.4207L15.6326 20.4378L9.74805 19.9463V19.9709L12.1856 23.9027L12.8504 24.9349ZM11.3238 20.9047L12.8257 21.1504L12.2102 22.1334L11.3238 20.9047Z" fill="white"/>
<path d="M62.0195 24.7634L62.5366 25.6235L65.2449 24.4194L63.6938 28.4741V28.4987L68.6427 26.3116L68.1257 25.4515L65.3927 26.6802L66.476 23.8788L66.9931 22.5763L66.9685 22.5518L64.0139 23.8788L62.0195 24.7634Z" fill="white"/>
<path d="M11.4959 28.4002L9.45233 27.6138L10.191 25.6725L12.3084 26.4834L12.6039 25.525L8.29512 23.8786L7.65496 23.6328L7.60572 23.8786L7.40875 24.6158L9.3046 25.3284L8.56596 27.2698L6.547 26.508L6.30078 27.491L11.2005 29.3586L11.4959 28.4002Z" fill="white"/>
<path d="M67.2636 31.3001C66.8204 31.3492 66.4264 31.4967 66.0817 31.7178C65.2692 32.2339 64.7768 33.1677 64.9245 34.2735C64.9491 34.4947 65.0723 34.8879 65.22 35.0845L66.4757 35.0599C66.2295 34.8142 65.9832 34.5193 65.934 34.1015C65.8355 33.2414 66.4511 32.4305 67.4113 32.3322C68.273 32.2339 69.1594 32.7499 69.2825 33.6592C69.3318 34.0769 69.2333 34.4456 69.0363 34.7404L70.2181 34.421C70.3166 34.1998 70.3413 33.8066 70.292 33.5609C70.1935 32.7499 69.7503 32.0864 69.1594 31.6932C68.5931 31.3738 67.953 31.2018 67.2636 31.3001Z" fill="white"/>
<path d="M59.3838 20.6839L60.8119 20.4136L61.9445 22.0355L61.2304 23.2888L61.7721 23.854L61.9691 24.0506L62.0676 23.854L64.7021 18.8408L58.916 19.7255L59.3838 20.6839ZM63.2248 19.8975L62.4123 21.1754L61.7475 20.217L63.2248 19.8975Z" fill="white"/>
<path d="M55.2227 16.2601L55.395 16.0389L58.4973 12.0825L57.6356 11.5664L54.4102 15.6949L54.9272 16.0389L55.2227 16.2601Z" fill="white"/>
<path d="M52.8835 13.3848L54.3608 11.1486L55.2471 9.77241L54.3361 9.33008L53.1543 11.1486L51.5293 13.6551L53.7452 15.0804L54.4593 14.4169L52.8835 13.3848Z" fill="white"/>
<path d="M17.084 13.8516C16.764 13.483 16.9117 13.1635 17.1825 12.9423C17.4041 12.7703 17.7981 12.672 18.1674 12.7212V11.7628C17.6503 11.6645 17.0102 11.8365 16.6162 12.1805C15.853 12.844 15.6806 13.7779 16.3208 14.5397C17.5272 15.9158 18.8322 13.999 19.5216 14.7854C19.7185 15.0312 19.6693 15.4243 19.4231 15.6701C19.0045 16.0387 18.6844 15.9404 18.3151 15.8912V16.0387L18.2659 16.8742C18.9553 16.9971 19.5216 16.8496 20.014 16.4073C20.1371 16.2844 20.2602 16.1616 20.3587 16.0387C20.8019 15.4243 20.8265 14.6871 20.3341 14.0973C18.9553 12.5737 17.6503 14.5151 17.084 13.8516Z" fill="white"/>
<path d="M61.7474 15.179C60.6887 14.0486 59.0637 14.0731 57.9803 15.1052C57.6849 15.3756 57.4633 15.695 57.2909 16.0391C56.8724 16.9483 57.0201 18.0296 57.808 18.8897C57.9557 19.0617 58.2758 19.3074 58.522 19.3812L59.5315 18.6194C59.1868 18.5702 58.8175 18.4719 58.522 18.177C57.9803 17.6118 57.9557 16.7026 58.4974 16.0636C58.5466 16.0145 58.6205 15.9408 58.6697 15.867C59.3099 15.2773 60.344 15.179 60.9595 15.8425C61.0334 15.9162 61.0826 15.9899 61.1319 16.0391C61.3042 16.3094 61.3781 16.5797 61.4027 16.85L62.0675 16.0391L62.166 15.9162C62.1167 15.6705 61.9198 15.3756 61.7474 15.179Z" fill="white"/>
<path d="M17.1093 16.8251C15.5828 15.4981 14.5733 17.6115 13.9086 17.0217C13.5392 16.7023 13.6377 16.3828 13.8839 16.1125C13.9086 16.0879 13.9332 16.0633 13.9578 16.0388C14.1548 15.8667 14.4995 15.7684 14.8196 15.7439L14.6718 14.81C14.1548 14.7609 13.5392 15.0558 13.1945 15.449C13.0222 15.6456 12.8991 15.8422 12.8252 16.0388C12.5544 16.6531 12.6775 17.3166 13.2438 17.8081C14.6226 19.0122 15.6567 16.9234 16.4446 17.6115C16.6908 17.8081 16.6908 18.2259 16.4692 18.4962C16.0999 18.9139 15.7798 18.8648 15.3858 18.8894L15.4597 19.8723C16.1491 19.8969 16.7154 19.6512 17.134 19.1843C17.7495 18.4225 17.8234 17.4395 17.1093 16.8251Z" fill="white"/>
<path d="M49.8075 9.40455L49.1181 10.1418L50.4969 10.7561L50.3246 11.1247L50.1276 11.5671C49.7829 11.6162 49.3151 11.5917 48.9704 11.4442C48.798 11.3705 48.6503 11.2722 48.5026 11.1247C48.0348 10.6824 47.7639 9.94518 48.1086 9.20796C48.5026 8.29871 49.4874 7.8318 50.3738 8.22499C50.9894 8.4953 51.1863 8.91306 51.4572 9.37997L52.3435 8.91306C52.0727 8.27413 51.6049 7.7335 50.7924 7.36489C49.4874 6.79968 47.8378 7.29117 47.1976 8.71647C46.8283 9.52742 46.9022 10.4121 47.2961 11.1247C47.567 11.6162 48.0102 12.0586 48.6011 12.3043C49.3151 12.6238 50.3738 12.6729 50.8416 12.4517L51.4325 11.1247L51.8019 10.2892L49.8075 9.40455Z" fill="white"/>
<path d="M21.1465 9.03516L21.2696 11.1485L21.5158 14.8838L22.5007 14.4906L22.3776 13.0653L24.1011 12.0824L25.2829 12.9179L26.12 12.2544L24.4211 11.1731L21.1465 9.03516ZM22.2545 12.1069L22.1067 11.1485L22.0329 10.6325L22.7469 11.1485L23.2639 11.5417L22.2545 12.1069Z" fill="white"/>
<path d="M29.0251 10.166L27.277 10.8786L25.652 6.87305L24.7656 7.36453L26.3168 11.149L26.7107 12.1319L29.1483 11.149L29.0251 10.166Z" fill="white"/>
<path d="M30.0357 6.25855L29.8634 5.5459L28.9277 5.88994L29.0016 6.25855L30.0849 10.9277L32.6456 10.3379L32.6702 9.33033L30.8482 9.77266L30.0357 6.25855Z" fill="white"/>
<path d="M44.8832 6.25881L44.4892 8.51963L42.9381 6.25881L41.9778 4.90723L41.7316 6.25881L41.0176 10.2153L42.0271 10.2644L42.5441 7.36465L45.0555 10.9279H45.0801L45.8926 6.25881L46.0157 5.61988L45.0063 5.54616L44.8832 6.25881Z" fill="white"/>
<path d="M38.0127 4.63672L37.1263 6.25862L35.2305 9.77273L36.2646 9.96932L36.9047 8.69146L38.8744 8.76519L39.4407 10.0922L40.4995 9.96932L38.7513 6.25862L38.0127 4.63672ZM37.3233 7.83137L37.9388 6.45521L38.4805 7.88051L37.3233 7.83137Z" fill="white"/>
<path fill-rule="evenodd" clip-rule="evenodd" d="M5.80892 70.1273L6.30135 71.3068H5.31649L5.80892 70.1273ZM4.50398 73.1499L4.99641 72.0441H6.67067L7.18772 73.1499L8.07409 73.027L5.78429 68.6037H5.75967L3.56836 73.027L4.50398 73.1499ZM10.6101 73.1499L10.9302 70.9382H10.9548L12.0382 73.1499H12.0628L13.1215 70.9382H13.1461L13.4908 73.1499L14.328 73.0516L13.4908 68.5791H13.4662L12.0382 71.5034L10.6101 68.5791H10.5855L9.77298 73.0516L10.6101 73.1499ZM14.5249 70.8645C14.5249 72.1178 15.559 73.1499 16.8393 73.1499C18.095 73.1499 19.1538 72.1424 19.1538 70.8645C19.1538 69.5866 18.1197 68.5791 16.8393 68.5791C15.559 68.5791 14.5249 69.6112 14.5249 70.8645ZM15.4113 70.8645C15.4113 70.0781 16.0515 69.4392 16.8393 69.4392C17.6272 69.4392 18.2674 70.0781 18.2674 70.8645C18.2674 71.6509 17.6272 72.2898 16.8393 72.2898C16.0515 72.2898 15.4113 71.6509 15.4113 70.8645ZM19.7201 73.1008L20.5572 73.0516V70.8645H20.5818L22.0591 73.1499L22.9701 72.9287L21.7883 71.184C22.3053 71.012 22.6254 70.5696 22.6254 70.029C22.6254 69.0952 21.9606 68.6774 21.1235 68.6774H19.7201V73.1008ZM20.5572 69.5129H20.8773C21.2958 69.5129 21.6652 69.5621 21.6652 70.0781C21.6652 70.5696 21.2712 70.6925 20.8526 70.6925H20.5572V69.5129ZM25.6785 73.0516L25.9493 72.2407H24.1027V71.184H25.4322V70.373H24.1027V69.5129H25.7523L25.6046 68.702H23.2409V73.0762H25.6785V73.0516ZM30.652 73.0516L30.9228 72.2407H29.0762V71.184H30.4058V70.373H29.0762V69.5129H30.7259L30.5781 68.702H28.2391V73.0762H30.652V73.0516ZM30.9475 72.855L31.76 73.1499L32.7695 71.5772L33.8036 73.1499L34.6161 72.855L33.2619 70.8154L34.5176 68.874L33.7297 68.5791L32.7695 70.1518L31.8092 68.5791L31.0459 68.874L32.3016 70.8154L30.9475 72.855ZM37.8169 71.9458C37.5953 72.1424 37.3244 72.3144 36.9551 72.3144C36.2165 72.3144 35.6009 71.7 35.6009 70.8891C35.6009 70.1518 36.1426 69.4638 36.9059 69.4638C37.2752 69.4638 37.5706 69.5866 37.7922 69.7832L37.6445 68.7757C37.4722 68.6774 37.1521 68.6283 36.9305 68.6283C35.6255 68.6283 34.7145 69.6604 34.7145 70.9137C34.7145 72.1915 35.6009 73.1991 36.9551 73.1991C37.1521 73.1991 37.4968 73.1499 37.6691 73.027L37.8169 71.9458ZM40.9192 73.0516L41.19 72.2407H39.3434V71.184H40.6729V70.373H39.3434V69.5129H40.993L40.8453 68.702H38.4816V73.0762H40.9192V73.0516ZM43.8984 73.0516L44.12 72.2407H42.5196V68.5791L41.6824 68.6774V73.0516H43.8984ZM46.7298 73.0516L46.9514 72.2407H45.351V68.5791L44.5139 68.6774V73.0516H46.7298ZM49.7583 73.0516L50.0291 72.2407H48.1825V71.184H49.5121V70.373H48.1825V69.5129H49.8321L49.6844 68.702H47.3454V73.0762H49.7583V73.0516ZM51.3341 73.0516V70.545L53.9439 73.1499H53.9686V68.5791L53.1314 68.6774V71.2085L50.5215 68.5791H50.4969V73.1499L51.3341 73.0516ZM54.3379 69.5129H55.5197V73.1253L56.3568 73.0762V69.5129H57.4402V68.702H54.5102L54.3379 69.5129ZM61.9705 71.184L62.8323 73.1499H62.8569L64.7528 68.6774L63.8664 68.5791L62.8077 71.2577L62.3645 70.3239L63.0539 68.6774L62.3152 68.5791L61.9705 69.4146L61.6258 68.5791L60.8872 68.6774L61.552 70.3239L61.1334 71.3068L60.0747 68.6037L59.2129 68.702L61.1088 73.1745H61.1334L61.9705 71.184ZM66.3532 70.1273L66.8456 71.3068H65.8607L66.3532 70.1273ZM65.0236 73.1499L65.5407 72.0441H67.2149L67.732 73.1499L68.643 73.027L66.3532 68.6037L64.1618 73.027L65.0236 73.1499ZM69.5293 71.5034L68.8153 73.0025L69.6771 73.1745L71.6222 68.8248L70.785 68.6037L69.9233 70.6188L68.9138 68.6037L68.1013 68.8248L69.5293 71.5034Z" fill="white"/>
<path d="M32.8922 37.1484H21V38.156H32.8922V37.1484Z" fill="#003375"/>
<path d="M42.2493 18.4727H41.2891V28.7938H42.2493V18.4727Z" fill="#003375"/>
<path d="M53.8453 29.5801H54.8547V38.1319H42.3963V60.863C42.15 60.9122 41.5345 61.0351 41.2637 61.0842V37.1735H53.8453V29.5801Z" fill="#003375"/>
<path d="M56.357 22.208C51.8759 16.9245 45.2035 13.5579 37.7432 13.5579C24.2752 13.5579 13.3433 24.4934 13.3433 37.9109C13.3433 43.5138 15.2638 48.699 18.4646 52.8274C14.8698 48.5761 12.7031 43.0961 12.7031 37.1245C12.7031 23.6824 23.6597 12.7715 37.103 12.7715C44.908 12.7715 51.9005 16.4576 56.357 22.208Z" fill="#003375"/>
</svg>
