<svg width="25" height="25" viewBox="0 0 25 25" fill="none" xmlns="http://www.w3.org/2000/svg">
<path d="M18.5 10.25C18.5 7.34375 16.9062 4.625 14.375 3.125C11.7969 1.67188 8.65625 1.67188 6.125 3.125C3.54688 4.625 2 7.34375 2 10.25C2 13.2031 3.54688 15.9219 6.125 17.4219C8.65625 18.875 11.7969 18.875 14.375 17.4219C16.9062 15.9219 18.5 13.2031 18.5 10.25ZM16.5781 17.6562C14.8906 19.1562 12.6406 20 10.25 20C4.85938 20 0.5 15.6406 0.5 10.25C0.5 4.90625 4.85938 0.5 10.25 0.5C15.5938 0.5 20 4.90625 20 10.25C20 12.6875 19.1094 14.8906 17.6562 16.625L24.2656 23.2344C24.5469 23.5156 24.5469 24.0312 24.2656 24.3125C23.9844 24.5938 23.4688 24.5938 23.1875 24.3125L16.5781 17.6562Z" fill="white"/>
</svg>
