<svg width="12" height="16" viewBox="0 0 12 16" fill="none" xmlns="http://www.w3.org/2000/svg">
<path d="M10.2656 2.5H10.5H10.6875H11.25V3.0625V6.71875C11.6719 6.92969 12 7.49219 12 8.125C12 8.78125 11.6719 9.34375 11.25 9.55469V13.1875V13.75H10.6875H10.5H10.2656L10.1016 13.5859L9.07031 12.5781C7.94531 11.4531 6.44531 10.7969 4.875 10.7734V13.375V14.5H3.75H2.625H1.5V13.375V10.75H1.125H0V9.625V6.625V5.5H1.125H3.75H4.6875C6.32812 5.5 7.89844 4.86719 9.07031 3.69531L10.1016 2.66406L10.2656 2.5ZM9.86719 11.7812L10.125 12.0391V4.23438L9.86719 4.49219C8.53125 5.82812 6.75 6.57812 4.875 6.625V9.625V9.64844C6.75 9.67188 8.53125 10.4453 9.86719 11.7812ZM1.125 6.625V9.625H1.5H2.625H3.75V6.625H1.125ZM2.625 10.75V13.375H3.75V10.75H2.625Z" fill="white"/>
</svg>
