<svg width="72" height="79" viewBox="0 0 72 79" fill="none" xmlns="http://www.w3.org/2000/svg">
<path d="M7.21355 0.5C3.23424 0.5 0 3.69363 0 7.66046V73.1467C0 77.0967 3.08184 79.3659 6.89181 78.1893L65.1082 56.7415C68.9182 55.5649 72 51.4132 72 47.4632V7.66046C72 3.71044 68.7658 0.5 64.7865 0.5H7.21355Z" fill="#204199"/>
<path d="M12.7003 21.3262V26.6041H14.6646V27.663H11.4473V21.3262H12.7003Z" fill="white"/>
<path d="M19.7949 22.3843H17.492V23.7963H19.6933V24.8552H17.492V26.5865H19.7949V27.6454H16.2559V21.3086H19.7949V22.3843Z" fill="white"/>
<path d="M25.6885 26.3351H23.1146L22.5558 27.663H21.2012L23.9444 21.3262H24.9265L27.6019 27.663H26.2473L25.6885 26.3351ZM25.3329 25.3266L24.4185 23.0406L23.5041 25.3266H25.3329Z" fill="white"/>
<path d="M31.0059 21.3262C31.8864 21.3262 32.3436 21.5615 32.6315 21.7968C33.1225 22.2002 33.258 22.7381 33.258 23.2255C33.258 23.8475 33.004 24.3853 32.5129 24.7215C32.3436 24.8392 32.1235 24.94 31.8187 24.9904L33.8168 27.663H32.2589L30.5487 25.1249H30.3963V27.663H29.1602V21.3262H31.0059ZM30.3963 24.2341H30.7519C30.9889 24.2341 31.9711 24.2004 31.9711 23.276C31.9711 22.3347 30.9889 22.3179 30.7688 22.3179H30.3963V24.2341Z" fill="white"/>
<path d="M35.2207 27.663V21.3262H36.0843L39.962 25.5451V21.3262H41.1981V27.663H40.3345L36.4568 23.4272V27.663H35.2207Z" fill="white"/>
<path d="M44.535 21.3262V27.663H43.2988V21.3262H44.535Z" fill="white"/>
<path d="M46.5488 27.663V21.3262H47.4124L51.2901 25.5451V21.3262H52.5263V27.663H51.6627L47.785 23.4272V27.663H46.5488Z" fill="white"/>
<path d="M57.6074 24.2674H60.5368V24.3514C60.5368 24.7716 60.486 26.1163 59.6055 26.9736C58.9451 27.6291 58.1323 27.814 57.3365 27.814C56.5406 27.814 55.7109 27.6459 55.0166 26.9567C54.7965 26.7382 54.0684 25.9482 54.0684 24.5195C54.0684 23.2925 54.6272 22.5529 54.9997 22.1663C55.4738 21.6789 56.2866 21.1914 57.5227 21.1914C57.9969 21.1914 58.5049 21.2754 58.9959 21.5276C59.4023 21.7293 59.8595 22.1159 60.1982 22.6874L59.1145 23.2589C58.8943 22.8386 58.5726 22.6201 58.3694 22.5025C58.0985 22.368 57.7598 22.3008 57.4719 22.3008C56.9639 22.3008 56.3882 22.4857 55.9987 22.8555C55.6432 23.2084 55.3553 23.8135 55.3553 24.5195C55.3553 25.3599 55.7109 25.8642 55.9818 26.1331C56.2697 26.4021 56.7269 26.671 57.4042 26.671C57.8275 26.671 58.3017 26.5533 58.6573 26.2844C58.9113 26.0995 59.1483 25.7633 59.2669 25.3095H57.6243V24.2674H57.6074Z" fill="white"/>
<path d="M18.2043 38.7388H17.2729L15.0547 32.402H16.3755L17.7979 36.7218L19.3557 32.3516H20.05L21.5232 36.7218L23.0472 32.402H24.368L21.9973 38.7388H21.066L19.6605 34.7216L18.2043 38.7388Z" fill="white"/>
<path d="M27.1111 32.4023V38.7392H25.875V32.4023H27.1111Z" fill="white"/>
<path d="M32.429 33.848C32.0565 33.3606 31.6162 33.3101 31.3792 33.3101C30.7018 33.3101 30.4986 33.7303 30.4986 34.0497C30.4986 34.201 30.5494 34.3523 30.7018 34.4699C30.8542 34.6212 31.0574 34.6884 31.4638 34.8229C31.9549 34.991 32.429 35.1591 32.7508 35.4616C33.0386 35.7138 33.2926 36.1508 33.2926 36.7895C33.2926 38.0333 32.3952 38.8738 31.0744 38.8738C29.906 38.8738 29.2117 38.1678 28.873 37.6804L29.6858 36.9072C29.9906 37.5291 30.5833 37.7476 31.0236 37.7476C31.5824 37.7476 32.0057 37.4114 32.0057 36.8735C32.0057 36.6382 31.921 36.4701 31.7517 36.3021C31.5146 36.0835 31.1252 35.9659 30.7696 35.8314C30.4309 35.7138 30.0245 35.5625 29.7028 35.2767C29.4996 35.0918 29.1948 34.7389 29.1948 34.1001C29.1948 33.1757 29.8213 32.2344 31.2437 32.2344C31.6501 32.2344 32.3952 32.3184 33.0556 32.974L32.429 33.848Z" fill="white"/>
<path d="M36.6783 32.4023C37.5758 32.4023 38.3378 32.5032 39.049 33.0243C39.8279 33.5958 40.2682 34.5202 40.2682 35.5792C40.2682 36.6381 39.8279 37.5458 38.9813 38.1341C38.2362 38.6551 37.5419 38.7392 36.6445 38.7392H35.002V32.4023H36.6783ZM36.255 37.6802H36.6445C36.9662 37.6802 37.6435 37.6634 38.2023 37.26C38.7103 36.907 38.9982 36.2515 38.9982 35.5792C38.9982 34.9068 38.7273 34.2681 38.2193 33.8815C37.7113 33.4949 37.0678 33.4613 36.6445 33.4613H36.255V37.6802Z" fill="white"/>
<path d="M48.3618 35.5789C48.3618 37.5119 46.9564 38.8902 44.9583 38.8902C42.9432 38.8902 41.5547 37.5119 41.5547 35.5789C41.5547 33.6459 42.9601 32.2676 44.9583 32.2676C46.9733 32.2676 48.3618 33.6459 48.3618 35.5789ZM47.0749 35.5789C47.0749 34.3014 46.1944 33.3769 44.9583 33.3769C43.7221 33.3769 42.8416 34.2846 42.8416 35.5789C42.8416 36.8563 43.7221 37.764 44.9583 37.764C46.1944 37.764 47.0749 36.8563 47.0749 35.5789Z" fill="white"/>
<path d="M50.6144 32.4023H51.5118L53.2052 36.4364L54.9831 32.4023H55.8806L56.9474 38.7392H55.6774L55.1017 34.8396L53.3914 38.7392H52.9681L51.3256 34.8396L50.6821 38.7392H49.4121L50.6144 32.4023Z" fill="white"/>
<path d="M20.6087 44.9417C20.2362 44.4543 19.7959 44.4039 19.5589 44.4039C18.8815 44.4039 18.6783 44.8241 18.6783 45.1435C18.6783 45.2947 18.7291 45.446 18.8815 45.5637C19.0339 45.7149 19.2371 45.7822 19.6435 45.9166C20.1346 46.0847 20.6087 46.2528 20.9304 46.5554C21.2183 46.8075 21.4723 47.2445 21.4723 47.8832C21.4723 49.1271 20.5748 49.9675 19.2541 49.9675C18.0857 49.9675 17.3914 49.2616 17.0527 48.7741L17.8655 48.0009C18.1703 48.6228 18.763 48.8413 19.2033 48.8413C19.762 48.8413 20.1854 48.5052 20.1854 47.9673C20.1854 47.732 20.1007 47.5639 19.9314 47.3958C19.6943 47.1773 19.3049 47.0596 18.9493 46.9252C18.6106 46.8075 18.2042 46.6562 17.8825 46.3705C17.6793 46.1856 17.3745 45.8326 17.3745 45.1939C17.3745 44.2694 18.001 43.3281 19.4234 43.3281C19.8298 43.3281 20.5748 43.4122 21.2352 44.0677L20.6087 44.9417Z" fill="white"/>
<path d="M26.7383 44.5552H24.4353V45.9672H26.6367V47.0261H24.4353V48.7574H26.7383V49.8163H23.1992V43.4795H26.7383V44.5552Z" fill="white"/>
<path d="M30.6172 43.4961C31.4977 43.4961 31.9549 43.7314 32.2428 43.9667C32.7339 44.3701 32.8693 44.908 32.8693 45.3955C32.8693 46.0174 32.6153 46.5553 32.1243 46.8914C31.9549 47.0091 31.7348 47.1099 31.43 47.1604L33.4281 49.8329H31.8703L30.16 47.2948H30.0076V49.8329H28.7715V43.4961H30.6172ZM30.0076 46.404H30.3632C30.6003 46.404 31.5824 46.3704 31.5824 45.4459C31.5824 44.5046 30.6003 44.4878 30.3801 44.4878H30.0076V46.404Z" fill="white"/>
<path d="M35.3918 43.4961L37.0851 47.7487L38.7953 43.4961H40.15L37.4576 49.8329H36.7126L34.0371 43.4961H35.3918Z" fill="white"/>
<path d="M42.9939 43.4961V49.8329H41.7578V43.4961H42.9939Z" fill="white"/>
<path d="M49.5135 49.5975C49.124 49.7992 48.616 49.9673 47.9387 49.9673C46.8211 49.9673 46.1438 49.5807 45.6019 49.0765C44.8569 48.3705 44.5859 47.5805 44.5859 46.656C44.5859 45.513 45.0601 44.6726 45.6019 44.1852C46.2454 43.58 47.0413 43.3447 47.9387 43.3447C48.3959 43.3447 48.9208 43.4288 49.5135 43.7313V45.1769C48.9378 44.5045 48.2096 44.4709 47.9726 44.4709C46.6857 44.4709 45.8559 45.513 45.8559 46.6896C45.8559 48.1016 46.9397 48.8579 48.0234 48.8579C48.616 48.8579 49.141 48.6058 49.5135 48.1688V49.5975Z" fill="white"/>
<path d="M54.916 44.5552H52.6131V45.9672H54.8144V47.0261H52.6131V48.7574H54.916V49.8163H51.377V43.4795H54.916V44.5552Z" fill="white"/>
</svg>
