<svg width="227" height="43" viewBox="0 0 227 43" fill="none" xmlns="http://www.w3.org/2000/svg">
<path d="M226.845 27.7422H218.621V42.585H226.845V40.0784H221.502V36.0483H226.623V33.5663H221.502V30.2488H226.845V27.7422Z" fill="white"/>
<path d="M208.798 37.1298H212.639C212.393 38.1865 211.826 38.9483 211.235 39.3906C210.423 40.005 209.29 40.2753 208.33 40.2753C206.754 40.2753 205.695 39.661 205.031 38.9975C204.415 38.4077 203.553 37.2281 203.553 35.2376C203.553 33.5666 204.194 32.1413 205.055 31.3303C205.966 30.4456 207.296 30.0279 208.478 30.0279C209.167 30.0279 209.955 30.1753 210.571 30.4948C211.038 30.7405 211.802 31.2566 212.319 32.2396L214.83 30.888C214.042 29.561 213.008 28.6763 212.048 28.1848C210.915 27.595 209.733 27.3984 208.625 27.3984C205.745 27.3984 203.874 28.5289 202.766 29.6593C201.879 30.5439 200.574 32.3133 200.574 35.1639C200.574 38.506 202.273 40.3736 202.79 40.8651C204.415 42.487 206.336 42.8556 208.182 42.8556C210.029 42.8556 211.925 42.4379 213.451 40.8897C215.495 38.8746 215.643 35.7537 215.643 34.7461V34.6478H208.822V37.1298H208.798Z" fill="white"/>
<path d="M197.004 27.7422H188.756V42.585H197.004V40.0784H191.661V36.0483H196.782V33.5663H191.661V30.2488H197.004V27.7422Z" fill="white"/>
<path d="M177.209 27.7422V42.585H184.694V40.0784H180.114V27.7422H177.209Z" fill="white"/>
<path d="M165.439 27.7422V42.585H172.924V40.0784H168.345V27.7422H165.439Z" fill="white"/>
<path d="M154.188 27.4229C149.51 27.4229 146.26 30.6666 146.26 35.1883C146.26 39.71 149.51 42.9292 154.188 42.9292C158.866 42.9292 162.116 39.71 162.116 35.1883C162.116 30.6666 158.866 27.4229 154.188 27.4229ZM154.188 40.2997C151.283 40.2997 149.239 38.1864 149.239 35.1883C149.239 32.1902 151.283 30.0523 154.188 30.0523C157.093 30.0523 159.137 32.1902 159.137 35.1883C159.137 38.1864 157.093 40.2997 154.188 40.2997Z" fill="white"/>
<path d="M143.575 38.6778C142.713 39.71 141.482 40.2997 140.104 40.2997C137.617 40.2997 135.081 38.5304 135.081 35.2374C135.081 32.5097 137.026 30.0523 140.005 30.0523C140.547 30.0523 142.221 30.1752 143.6 31.7233V28.3321C142.246 27.5949 140.99 27.4229 139.956 27.4229C137.838 27.4229 135.992 27.9881 134.49 29.3888C133.21 30.5683 132.102 32.5097 132.102 35.1883C132.102 37.3754 132.766 39.2185 134.49 40.8649C135.746 42.0445 137.321 42.9292 139.931 42.9292C141.532 42.9292 142.713 42.536 143.6 42.0691V38.6778H143.575Z" fill="white"/>
<path d="M108.39 42.585V32.657L117.427 42.585H119.446V27.7422H116.54V37.6456L107.504 27.7422H105.51V42.585H108.39Z" fill="white"/>
<path d="M96.8933 27.7422H94.6281L88.2266 42.5604H91.3781L92.683 39.4395H98.6661L99.971 42.5604H103.098L96.8933 27.7422ZM93.594 37.105L95.7115 31.7724L97.8289 37.105H93.594Z" fill="white"/>
<path d="M85.0986 38.6778C84.2369 39.71 83.0058 40.2997 81.627 40.2997C79.1402 40.2997 76.6042 38.5304 76.6042 35.2374C76.6042 32.5097 78.5493 30.0523 81.5285 30.0523C82.0702 30.0523 83.7444 30.1752 85.1232 31.7233V28.3321C83.769 27.5949 82.5134 27.4229 81.4793 27.4229C79.3618 27.4229 77.5152 27.9881 76.0133 29.3888C74.733 30.5683 73.625 32.5097 73.625 35.1883C73.625 37.3754 74.2898 39.2185 76.0133 40.8649C77.269 42.0445 78.8448 42.9292 81.4546 42.9292C83.055 42.9292 84.2369 42.536 85.1232 42.0691V38.6778H85.0986Z" fill="white"/>
<path d="M69.5636 27.7422H66.6582V42.5604H69.5636V27.7422Z" fill="white"/>
<path d="M55.5039 27.7422V42.585H62.9888V40.0784H58.4092V27.7422H55.5039Z" fill="white"/>
<path d="M44.5224 37.1298H48.3634C48.1171 38.1865 47.5508 38.9483 46.9599 39.3906C46.1474 40.005 45.0148 40.2753 44.0546 40.2753C42.4788 40.2753 41.4201 39.661 40.7553 38.9975C40.1398 38.4077 39.278 37.2281 39.278 35.2376C39.278 33.5666 39.9182 32.1413 40.7799 31.3303C41.6909 30.4456 43.0205 30.0279 44.2023 30.0279C44.8917 30.0279 45.6796 30.1753 46.2952 30.4948C46.763 30.7405 47.5262 31.2566 48.0433 32.2396L50.5547 30.888C49.7668 29.561 48.7327 28.6763 47.7725 28.1848C46.6399 27.595 45.458 27.3984 44.3501 27.3984C41.4693 27.3984 39.5981 28.5289 38.4901 29.6593C37.6038 30.5439 36.2988 32.3133 36.2988 35.1639C36.2988 38.506 37.9977 40.3736 38.5148 40.8651C40.1398 42.487 42.0603 42.8556 43.9069 42.8556C45.7535 42.8556 47.6493 42.4379 49.1759 40.8897C51.2195 38.8746 51.3672 35.7537 51.3672 34.7461V34.6478H44.547V37.1298H44.5224Z" fill="white"/>
<path d="M21.6502 42.585V32.657L30.711 42.585H32.7053V27.7422H29.8V37.6456L20.7639 27.7422H18.7695V42.585H21.6502Z" fill="white"/>
<path d="M9.21559 27.7422H6.95042L0.548828 42.5604H3.70038L5.00532 39.4395H10.9883L12.2933 42.5604H15.4202L9.21559 27.7422ZM5.91631 37.105L8.03376 31.7724L10.1512 37.105H5.91631Z" fill="white"/>
<path d="M217.662 0.587891V18.7974H226.846V15.7502H221.208V0.587891H217.662Z" fill="white"/>
<path d="M205.99 0.587891V18.7974H215.199V15.7502H209.56V0.587891H205.99Z" fill="white"/>
<path d="M196.24 0.587891H193.458L185.604 18.822H189.469L191.094 14.9884H198.456L200.081 18.822H203.922L196.24 0.587891ZM192.177 12.0886L194.787 5.52731L197.397 12.0886H192.177Z" fill="white"/>
<path d="M183.856 2.30788C181.985 0.391091 179.843 0.169922 178.685 0.169922C174.623 0.169922 172.825 2.84851 172.825 5.5271C172.825 7.39474 173.663 8.40228 174.278 8.91834C175.214 9.72929 176.346 10.1716 177.307 10.4911C178.341 10.8351 179.449 11.2037 180.138 11.8181C180.63 12.285 180.852 12.8011 180.852 13.4646C180.852 14.9882 179.646 15.9711 178.021 15.9711C176.74 15.9711 175.066 15.3076 174.18 13.5383L171.865 15.75C172.825 17.1507 174.795 19.1904 178.168 19.1904C181.935 19.1904 184.521 16.7575 184.521 13.2188C184.521 11.3512 183.782 10.1225 182.97 9.38525C182.034 8.54973 180.704 8.05824 179.276 7.56676C178.119 7.149 177.528 6.92783 177.085 6.53464C176.642 6.14146 176.519 5.74827 176.519 5.30593C176.519 4.37211 177.11 3.16797 179.03 3.16797C179.695 3.16797 180.951 3.31542 182.009 4.71615L183.856 2.30788Z" fill="white"/>
<path d="M169.625 2.30788C167.754 0.391091 165.612 0.169922 164.455 0.169922C160.392 0.169922 158.595 2.84851 158.595 5.5271C158.595 7.39474 159.432 8.40228 160.048 8.91834C160.983 9.72929 162.116 10.1716 163.076 10.4911C164.11 10.8351 165.218 11.2037 165.908 11.8181C166.4 12.285 166.622 12.8011 166.622 13.4646C166.622 14.9882 165.415 15.9711 163.79 15.9711C162.51 15.9711 160.836 15.3076 159.949 13.5383L157.635 15.75C158.595 17.1507 160.565 19.1904 163.938 19.1904C167.705 19.1904 170.29 16.7575 170.29 13.2188C170.29 11.3512 169.552 10.1225 168.739 9.38525C167.803 8.54973 166.474 8.05824 165.046 7.56676C163.889 7.149 163.298 6.92783 162.855 6.53464C162.411 6.14146 162.288 5.74827 162.288 5.30593C162.288 4.37211 162.879 3.16797 164.8 3.16797C165.464 3.16797 166.72 3.31542 167.779 4.71615L169.625 2.30788Z" fill="white"/>
<path d="M148.967 0.587891H146.184L138.33 18.822H142.196L143.821 14.9884H151.183L152.808 18.822H156.648L148.967 0.587891ZM144.904 12.0886L147.514 5.52731L150.124 12.0886H144.904Z" fill="white"/>
<path d="M124.371 0.587891H120.801V18.7974H124.371V10.6879H132.077V18.7974H135.648V0.587891H132.077V7.61611H124.371V0.587891Z" fill="white"/>
<path d="M109.278 2.30788C107.407 0.391091 105.264 0.169922 104.107 0.169922C100.045 0.169922 98.2474 2.84851 98.2474 5.5271C98.2474 7.39474 99.0845 8.40228 99.7 8.91834C100.636 9.72929 101.768 10.1716 102.728 10.4911C103.763 10.8351 104.871 11.2037 105.56 11.8181C106.052 12.285 106.274 12.8011 106.274 13.4646C106.274 14.9882 105.068 15.9711 103.442 15.9711C102.162 15.9711 100.488 15.3076 99.6015 13.5383L97.2871 15.75C98.2473 17.1507 100.217 19.1904 103.59 19.1904C107.357 19.1904 109.943 16.7575 109.943 13.2188C109.943 11.3512 109.204 10.1225 108.391 9.38525C107.456 8.54973 106.126 8.05824 104.698 7.56676C103.541 7.149 102.95 6.92783 102.507 6.53464C102.064 6.14146 101.941 5.74827 101.941 5.30593C101.941 4.37211 102.531 3.16797 104.452 3.16797C105.117 3.16797 106.372 3.31542 107.431 4.71615L109.278 2.30788Z" fill="white"/>
<path d="M89.1131 0.587891H86.3308L78.4766 18.822H82.3421L83.9672 14.9884H91.329L92.954 18.822H96.795L89.1131 0.587891ZM85.0505 12.0886L87.6604 5.52731L90.2703 12.0886H85.0505Z" fill="white"/>
<path d="M54.9863 18.7974H58.6057L60.4769 7.56697L65.155 18.7974H66.3615L71.2611 7.56697L72.8862 18.7974H76.5055L73.4278 0.587891H70.8672L65.7952 12.1623L60.9693 0.587891H58.3841L54.9863 18.7974Z" fill="white"/>
<path d="M44.0294 0.169922C38.2926 0.169922 34.2793 4.15094 34.2793 9.70472C34.2793 15.2585 38.268 19.2149 44.0294 19.2149C49.7662 19.2149 53.7795 15.2585 53.7795 9.70472C53.7795 4.15094 49.7908 0.169922 44.0294 0.169922ZM44.0294 15.9957C40.4593 15.9957 37.9479 13.3908 37.9479 9.70472C37.9479 6.01858 40.4593 3.38915 44.0294 3.38915C47.5995 3.38915 50.1109 6.01858 50.1109 9.70472C50.1109 13.3908 47.5995 15.9957 44.0294 15.9957Z" fill="white"/>
<path d="M20.2947 0.587891H16.7246V18.7974H20.2947V10.6879H28.0013V18.7974H31.5714V0.587891H28.0013V7.61611H20.2947V0.587891Z" fill="white"/>
<path d="M13.3277 3.63509V0.587891H1.55859V3.63509H5.67038V18.7974H9.21587V3.63509H13.3277Z" fill="white"/>
</svg>
