<svg width="26" height="24" viewBox="0 0 26 24" fill="none" xmlns="http://www.w3.org/2000/svg">
<path d="M25.2344 5.85938C25.7969 7.82812 25.7969 12.0469 25.7969 12.0469C25.7969 12.0469 25.7969 16.2188 25.2344 18.2344C24.9531 19.3594 24.0625 20.2031 22.9844 20.4844C20.9688 21 13 21 13 21C13 21 4.98438 21 2.96875 20.4844C1.89062 20.2031 1 19.3594 0.71875 18.2344C0.15625 16.2188 0.15625 12.0469 0.15625 12.0469C0.15625 12.0469 0.15625 7.82812 0.71875 5.85938C1 4.73438 1.89062 3.84375 2.96875 3.5625C4.98438 3 13 3 13 3C13 3 20.9688 3 22.9844 3.5625C24.0625 3.84375 24.9531 4.73438 25.2344 5.85938ZM10.375 15.8438L17.0312 12.0469L10.375 8.25V15.8438Z" fill="white"/>
</svg>
