<svg width="21" height="21" viewBox="0 0 21 21" fill="none" xmlns="http://www.w3.org/2000/svg">
<path d="M15.1875 7.58691L11.9062 10.8682L15.1875 14.1807C15.5938 14.5557 15.5938 15.2119 15.1875 15.5869C14.8125 15.9932 14.1562 15.9932 13.7812 15.5869L10.5 12.3057L7.1875 15.5869C6.8125 15.9932 6.15625 15.9932 5.78125 15.5869C5.375 15.2119 5.375 14.5557 5.78125 14.1807L9.0625 10.8682L5.78125 7.58691C5.375 7.21191 5.375 6.55566 5.78125 6.18066C6.15625 5.77441 6.8125 5.77441 7.1875 6.18066L10.5 9.46191L13.7812 6.18066C14.1562 5.77441 14.8125 5.77441 15.1875 6.18066C15.5938 6.55566 15.5938 7.21191 15.1875 7.58691Z" fill="white" fill-opacity="0.5"/>
</svg>
