<svg width="92" height="95" viewBox="0 0 92 95" fill="none" xmlns="http://www.w3.org/2000/svg">
<path d="M46.0314 15.2539C29.463 15.2539 15.9785 28.7384 15.9785 45.3068C15.9785 60.9682 28.042 73.8782 43.3708 75.2388C42.5242 75.1783 41.7079 75.0574 40.8916 74.9062V45.2766H25.4419V35.0574H40.8916V21.331H51.1713V35.0574H66.621V45.3068H51.1713V74.9364C50.3549 75.0876 49.5386 75.1783 48.692 75.269C64.0208 73.9085 76.0843 60.9984 76.0843 45.3371C76.1146 28.7384 62.5998 15.2539 46.0314 15.2539Z" fill="#204199" stroke="#034A9A" stroke-width="0.25" stroke-miterlimit="10"/>
<path d="M48.5707 75.2686C48.1777 75.2988 47.7846 75.329 47.3916 75.3593C47.8149 75.329 48.2079 75.2988 48.5707 75.2686Z" fill="#03499A"/>
<path d="M46.0316 75.3593C45.6386 75.3593 45.2153 75.3593 44.8223 75.3291C45.2455 75.3593 45.6386 75.3593 46.0316 75.3593Z" fill="#03499A"/>
<g opacity="0.5">
<path d="M40.9199 74.8457C41.1618 74.8759 41.3734 74.9364 41.6153 74.9666C41.3734 74.9062 41.1316 74.8759 40.9199 74.8457Z" fill="black"/>
<path d="M41.7059 74.9668C41.6757 74.9668 41.6455 74.9668 41.6152 74.9365C41.6152 74.9365 41.6757 74.9668 41.7059 74.9668Z" fill="black"/>
<path d="M49.2344 75.0879C49.3553 75.0879 49.4762 75.0576 49.5972 75.0576C49.4762 75.0879 49.3553 75.0879 49.2344 75.0879Z" fill="black"/>
<path d="M49.5977 75.0573C50.1116 74.9968 50.6559 74.9061 51.1698 74.8154C50.6559 74.9364 50.1116 74.9968 49.5977 75.0573Z" fill="black"/>
<path d="M43.4902 75.1787C43.8833 75.2089 44.2763 75.2392 44.6694 75.2694C44.2763 75.2089 43.8833 75.2089 43.4902 75.1787Z" fill="black"/>
<path d="M48.5688 75.1787C48.1757 75.2089 47.7827 75.2392 47.3896 75.2694C47.7827 75.2089 48.1757 75.2089 48.5688 75.1787Z" fill="black"/>
</g>
<path d="M51.1669 21.3311H40.8872V35.0574H25.4375V45.3371H40.8872V74.9667C42.5501 75.2691 44.2735 75.4202 46.0271 75.4202C47.7807 75.4202 49.504 75.2691 51.1669 74.9667V45.3371H66.6166V35.0574H51.1669V21.3311Z" fill="#C52032"/>
<path d="M46.0275 75.4509C44.4251 75.4509 42.8227 75.33 41.2505 75.0579V44.9445H25.8008V35.3904H41.2505V21.6641H50.8348V35.3904H66.2845V44.9445H50.8348V75.0579C49.2324 75.33 47.63 75.4509 46.0275 75.4509Z" fill="#EAEBEC"/>
<path d="M46.0273 26.4108V39.9558L50.8044 35.3904L50.8346 21.6641L46.0273 26.4108Z" fill="#9C9EA1"/>
<path d="M46.0273 39.9853L61.4166 39.9551L66.2541 44.9437H50.8044L46.0273 39.9853Z" fill="#808184"/>
<path d="M50.8346 75.0571L46.0273 69.8871V39.9854L50.8044 44.9438L50.8346 75.0571Z" fill="#9C9EA1"/>
<path d="M30.849 39.9854H46.0266L41.2496 44.9438L25.8301 44.974L30.849 39.9854Z" fill="#808184"/>
<path d="M41.25 75.0578L46.027 69.8877L50.8343 75.0578C50.8343 75.0578 45.7549 75.9648 41.25 75.0578Z" fill="#898B8D"/>
<path d="M66.2535 35.4199V44.9437L61.416 39.9551L66.2535 35.4199Z" fill="#9C9EA1"/>
<path d="M46.0257 90.3863C21.173 90.3863 0.946289 70.1595 0.946289 45.3069C0.946289 20.4543 21.173 0.227539 46.0257 0.227539C70.8783 0.227539 91.105 20.4543 91.105 45.3069C91.105 70.1595 70.8783 90.3863 46.0257 90.3863ZM46.0257 15.2842C38.0136 15.2842 30.455 18.3984 24.8012 24.0824C19.1171 29.7665 16.003 37.2948 16.003 45.3371C16.003 53.3795 19.1171 60.9078 24.8012 66.5919C30.4852 72.2759 38.0136 75.39 46.0257 75.39C54.0377 75.39 61.5963 72.2759 67.2501 66.5919C72.9342 60.9078 76.0483 53.3795 76.0483 45.3371C76.0483 37.2948 72.9342 29.7665 67.2501 24.0824C61.5963 18.3984 54.068 15.2842 46.0257 15.2842Z" fill="#E6E7E8"/>
<path d="M46.0255 90.507C21.0822 90.507 0.825195 70.2198 0.825195 45.3067C0.825195 20.3937 21.1124 0.106445 46.0255 0.106445C70.9386 0.106445 91.2258 20.3937 91.2258 45.3067C91.2258 70.2198 70.9688 90.507 46.0255 90.507ZM46.0255 0.378553C21.2334 0.378553 1.0973 20.5448 1.0973 45.3067C1.0973 70.0989 21.2636 90.2349 46.0255 90.2349C70.8176 90.2349 90.9537 70.0686 90.9537 45.3067C90.9839 20.5146 70.8176 0.378553 46.0255 0.378553ZM46.0255 75.4806C37.9529 75.4806 30.3944 72.3362 24.6801 66.6522C18.996 60.9681 15.8516 53.3793 15.8516 45.3067C15.8516 37.2342 18.996 29.6756 24.6801 23.9613C30.3944 18.2773 37.9529 15.1329 46.0255 15.1329C54.0981 15.1329 61.6566 18.2773 67.3709 23.9613C73.055 29.6756 76.1993 37.2342 76.1993 45.3067C76.1993 53.3793 73.055 60.9379 67.3709 66.6522C61.6566 72.3362 54.0981 75.4806 46.0255 75.4806ZM46.0255 15.405C38.0436 15.405 30.5153 18.5191 24.8917 24.173C19.2379 29.8268 16.1238 37.3249 16.1238 45.3067C16.1238 53.2886 19.2379 60.817 24.8917 66.4405C30.5455 72.0944 38.0436 75.2085 46.0255 75.2085C54.0074 75.2085 61.5357 72.0944 67.1593 66.4405C72.8131 60.7867 75.9272 53.2886 75.9272 45.3067C75.9272 37.3249 72.8131 29.7965 67.1593 24.173C61.5357 18.5191 54.0074 15.405 46.0255 15.405Z" fill="#929497"/>
<path d="M46.0266 0.953125C21.5368 0.953125 1.67285 20.8171 1.67285 45.3069C1.67285 69.7967 21.5368 89.6606 46.0266 89.6606C70.5164 89.6606 90.3803 69.7967 90.3803 45.3069C90.3803 20.8171 70.5164 0.953125 46.0266 0.953125ZM67.7953 67.0453C61.9903 72.8503 54.2503 76.0552 46.0568 76.0552C37.8633 76.0552 30.1233 72.8503 24.3184 67.0453C18.5134 61.2403 15.3085 53.5004 15.3085 45.3069C15.3085 37.0831 18.5134 29.3734 24.3184 23.5684C30.1233 17.7634 37.8633 14.5586 46.0568 14.5586C54.2503 14.5586 61.9903 17.7634 67.7953 23.5684C73.6003 29.3734 76.8051 37.1134 76.8051 45.3069C76.8051 53.5306 73.6003 61.2403 67.7953 67.0453Z" fill="#C52032"/>
<path d="M84.1226 79.1387H9.05077C4.87843 79.1387 1.49219 82.5249 1.49219 86.667C1.49219 90.8394 4.87843 94.1954 9.05077 94.1954H84.1226C88.2949 94.1954 91.6811 90.8091 91.6811 86.667C91.6509 82.5249 88.2647 79.1387 84.1226 79.1387ZM84.183 93.5302H9.14147C5.36218 93.5302 2.30851 90.4765 2.30851 86.6973C2.30851 82.918 5.36218 79.8643 9.14147 79.8643H84.2133C87.9926 79.8643 91.0462 82.918 91.0462 86.6973C91.016 90.4765 87.9623 93.5302 84.183 93.5302Z" fill="#E6E7E8"/>
<path d="M84.1224 94.3766H9.05061C4.81781 94.3766 1.37109 90.9299 1.37109 86.6971C1.37109 82.4643 4.81781 79.0176 9.05061 79.0176H84.1224C88.3552 79.0176 91.8019 82.4643 91.8019 86.6971C91.8019 90.9299 88.3552 94.3766 84.1224 94.3766ZM9.05061 79.2897C4.96898 79.2897 1.6432 82.6155 1.6432 86.6971C1.6432 90.7787 4.96898 94.1045 9.05061 94.1045H84.1224C88.204 94.1045 91.5298 90.7787 91.5298 86.6971C91.5298 82.6155 88.204 79.2897 84.1224 79.2897H9.05061ZM84.1829 93.651H9.14131C5.30156 93.651 2.18742 90.5369 2.18742 86.6971C2.18742 84.8528 2.91304 83.0992 4.21312 81.7689C5.51319 80.4688 7.26679 79.7432 9.14131 79.7432H84.2131C86.0574 79.7432 87.811 80.4688 89.1413 81.7689C90.4414 83.069 91.167 84.8226 91.167 86.6971C91.167 88.5414 90.4414 90.295 89.1413 91.6253C87.811 92.9254 86.0574 93.651 84.1829 93.651ZM9.14131 80.0153C7.35749 80.0153 5.66437 80.7107 4.42476 81.9805C3.15492 83.2504 2.45953 84.9133 2.45953 86.6971C2.45953 90.3857 5.45273 93.3789 9.14131 93.3789H84.2131C85.9969 93.3789 87.6901 92.6835 88.9297 91.4136C90.1995 90.1438 90.8949 88.4809 90.8949 86.6971C90.8949 84.9133 90.1995 83.2202 88.9297 81.9805C87.6598 80.7107 85.9969 80.0153 84.2131 80.0153H9.14131Z" fill="#929497"/>
<path d="M9.14155 79.8643H84.2134C87.9927 79.8643 91.0463 82.9179 91.0463 86.6972C91.0463 90.4765 87.9927 93.5302 84.2134 93.5302H9.14155C5.36226 93.5302 2.30859 90.4765 2.30859 86.6972C2.30859 82.9179 5.36226 79.8643 9.14155 79.8643Z" fill="#204199"/>
<path d="M67.9141 72.1845L68.3978 73.3334L70.4538 71.5798L71.4515 72.759L70.0002 73.9986L70.7863 74.9056L72.2376 73.6358L73.0539 74.6033L71.2398 76.1755L72.1771 76.9313L74.747 74.6637L70.6049 69.8867L67.9141 72.1845Z" fill="white"/>
<path d="M23.5605 70.6133L20.1742 74.5135L18.9648 73.4855L18.209 74.3623L21.4138 77.1439L22.4116 76.4485L21.0812 75.3298L24.528 71.3691L23.5605 70.6133Z" fill="white"/>
<path d="M78.8294 67.5285C78.6177 67.0146 78.2852 66.5308 77.8014 66.168C76.3199 65.0191 74.2338 65.3214 73.1151 66.7727C72.9337 66.9843 72.7825 67.2564 72.6616 67.5285C72.3592 68.1937 72.1778 68.9496 72.2685 69.3728L74.5663 71.1869L76.2292 69.0705L75.5338 68.0425L74.3849 69.4938L73.5081 68.8286C73.5384 68.4053 73.7198 67.8914 73.9617 67.5285C73.9617 67.4983 73.9919 67.4983 73.9919 67.4681C74.5966 66.7122 75.8967 66.3192 76.8944 67.1053C77.0456 67.2262 77.1967 67.3774 77.3177 67.5285C77.9224 68.2844 78.0131 69.3124 77.4084 70.0985C76.8944 70.7636 76.3502 70.8846 75.7153 71.066L76.0176 72.2451C76.8642 72.0939 77.6503 71.7311 78.3154 70.8543C79.0713 69.8868 79.2527 68.617 78.8294 67.5285Z" fill="white"/>
<path d="M20.8702 67.8311L18.7538 69.494L17.2119 67.5287L17.1514 67.4683L19.3585 65.7752L18.5422 64.8379L15.0955 67.5287L13.4023 68.8591L14.2791 69.7056L16.2444 68.1939L17.8166 70.2196L15.7606 71.822L16.6072 72.6988L21.6865 68.7684L20.8702 67.8311Z" fill="white"/>
<path d="M14.9744 65.292C16.6071 64.4454 17.242 62.4197 16.4257 60.7871C15.5791 59.1544 13.5836 58.459 11.951 59.3056C10.3183 60.1521 9.68341 62.1778 10.4997 63.8105C11.3161 65.4734 13.3418 66.1385 14.9744 65.292ZM11.6184 63.2663C11.1044 62.2685 11.5277 60.9987 12.5254 60.4847C13.5232 59.9707 14.793 60.394 15.307 61.3918C15.821 62.3895 15.3977 63.6593 14.4 64.1733C13.4022 64.6873 12.1324 64.264 11.6184 63.2663Z" fill="white"/>
<path d="M75.8359 63.1756L76.7127 64.0524L77.9523 61.6639L79.3129 62.3593L78.4663 64.0826L79.4943 64.6269L80.3711 62.9035L81.4898 63.478L80.4013 65.6246L81.5502 65.9572L83.0922 62.9337L77.4384 60.0312L75.8359 63.1756Z" fill="white"/>
<path d="M14.339 55.9796L11.104 56.2214V56.1912L13.8855 53.9236L10.3784 53.1375V53.1073L13.4018 51.8979L13.0087 50.749L6.93164 53.3794V53.4096L11.5575 54.4678L7.8689 57.4308V57.4611L14.46 57.1587L14.339 55.9796Z" fill="white"/>
<path d="M79.0104 55.9492L78.3755 57.8842L78.0127 59.0029L79.0407 59.668L79.6151 57.8842L79.736 57.4609L81.0361 57.8842L84.8154 59.0936L85.0573 57.9145L84.9968 57.8842L79.0104 55.9492Z" fill="white"/>
<path d="M79.3428 54.951L80.4312 55.4952L80.9452 53.2579L86.1455 54.437L86.2664 53.2277L80.0684 51.8066L79.3428 54.951Z" fill="white"/>
<path d="M13.1298 49.298L11.4367 48.7235L11.3762 48.27L11.1948 46.3048L12.7368 45.3977L12.4042 44.0977L6.29688 48.0584V48.0886L6.81086 48.27L13.0694 50.6283L13.1298 49.298ZM9.98546 48.27L8.50398 47.8467L10.1669 46.9397L10.2878 48.27V48.3607L9.98546 48.27Z" fill="white"/>
<path d="M8.23163 42.9791C10.469 43.2512 10.1062 40.4092 11.3458 40.5603C11.7388 40.6208 12.0412 41.0139 11.9807 41.4674C11.89 42.1628 11.5272 42.3139 11.1644 42.586L11.9202 43.5233C12.6458 43.0698 13.0389 42.4349 13.1598 41.6488C13.311 40.4696 12.6761 39.4114 11.5272 39.2905C9.04796 38.9882 9.47124 41.8302 8.41304 41.7093C7.83858 41.6488 7.68741 41.2255 7.74788 40.8022C7.77812 40.4696 8.11069 40.0464 8.44327 39.7743L7.65718 38.8975C7.11296 39.1998 6.65945 39.9254 6.59898 40.5603C6.41757 41.8302 7.05249 42.8279 8.23163 42.9791Z" fill="white"/>
<path d="M84.0591 44.3092C82.2148 44.1278 80.5821 45.4883 80.4007 47.3326C80.3705 47.6652 80.3705 47.9675 80.431 48.2699C80.7031 49.6909 81.852 50.87 83.3939 51.0212C85.1475 51.2026 86.7197 49.963 87.022 48.2699C87.0523 48.1792 87.0523 48.0885 87.0523 47.9978C87.2337 46.1535 85.9034 44.4906 84.0591 44.3092ZM85.722 48.2699C85.4499 49.2072 84.5126 49.8421 83.5148 49.7514C82.6683 49.6607 81.9729 49.056 81.731 48.2699C81.6403 47.9978 81.6403 47.7559 81.6403 47.4838C81.7613 46.3651 82.7892 45.5186 83.9079 45.6093C85.0266 45.7302 85.8731 46.7582 85.7824 47.8768C85.7824 47.9978 85.7522 48.1187 85.722 48.2699Z" fill="white"/>
<path d="M16.2744 30.3104L17.1209 29.3127L16.9093 29.0103L16.1232 27.8312L17.4233 25.7753L19.1769 25.9869L19.6908 24.7775L12.4648 24.1729V24.2031L15.458 29.0406L16.2744 30.3104ZM14.3998 25.352L16.2441 25.6543L15.4883 26.8637L14.3998 25.352Z" fill="white"/>
<path d="M76.6523 30.099L77.2873 31.1572L80.613 29.6757L78.7083 34.6644V34.6946L84.7854 32.0038L84.1504 30.9456L80.7642 32.4573L82.1247 29.0106L82.7294 27.4082V27.3779L79.1013 29.0106L76.6523 30.099Z" fill="white"/>
<path d="M14.6109 34.5735L12.1014 33.606L13.0085 31.2175L15.6086 32.2152L15.9714 31.036L10.6804 29.0104L9.89433 28.708L9.83386 29.0104L9.59199 29.9174L11.92 30.7942L10.9828 33.1827L8.53379 32.2454L8.23145 33.4548L14.2481 35.7526L14.6109 34.5735Z" fill="white"/>
<path d="M83.0918 38.1414C82.5476 38.2018 82.0638 38.3832 81.6405 38.6554C80.6428 39.2903 80.0381 40.4392 80.2195 41.7997C80.2498 42.0718 80.4009 42.5556 80.5823 42.7975L82.1243 42.7672C81.8219 42.4649 81.5196 42.1021 81.4591 41.5881C81.3382 40.5299 82.0941 39.5322 83.2732 39.4112C84.3314 39.2903 85.4198 39.9252 85.571 41.0439C85.6315 41.5579 85.5105 42.0114 85.2687 42.3742L86.7199 41.9811C86.8408 41.709 86.8711 41.2253 86.8106 40.9229C86.6897 39.9252 86.1455 39.1089 85.4198 38.6251C84.7244 38.2321 83.9384 38.0204 83.0918 38.1414Z" fill="white"/>
<path d="M73.4172 25.0801L75.1708 24.7475L76.5616 26.743L75.6848 28.2849L76.35 28.9803L76.5918 29.2222L76.7128 28.9803L79.9478 22.8125L72.8428 23.9009L73.4172 25.0801ZM78.1338 24.1126L77.136 25.6848L76.3197 24.5056L78.1338 24.1126Z" fill="white"/>
<path d="M68.3073 19.638L68.5189 19.3659L72.2982 14.4982L71.2703 13.8633L67.3096 18.9426L67.9445 19.3659L68.3073 19.638Z" fill="white"/>
<path d="M65.4353 16.1L67.2192 13.3487L68.3378 11.6555L67.2192 11.1113L65.7679 13.3487L63.7725 16.4326L66.4633 18.1862L67.3703 17.3698L65.4353 16.1Z" fill="white"/>
<path d="M21.4746 16.675C21.0816 16.2214 21.263 15.8284 21.5955 15.5563C21.8676 15.3446 22.3514 15.2237 22.8049 15.2842V14.105C22.17 13.9841 21.3839 14.1957 20.9002 14.619C19.9629 15.4353 19.7512 16.5843 20.5373 17.5215C22.0188 19.2146 23.6212 16.8564 24.4678 17.8239C24.7097 18.1262 24.6492 18.61 24.3469 18.9123C23.8329 19.3658 23.4398 19.2449 22.9863 19.1844V19.3658L22.9258 20.3938C23.7724 20.5449 24.4678 20.3635 25.0725 19.8193C25.2237 19.6682 25.3748 19.517 25.4958 19.3658C26.04 18.61 26.0702 17.7029 25.4655 16.9773C23.7724 15.1028 22.17 17.4913 21.4746 16.675Z" fill="white"/>
<path d="M76.3193 18.3079C75.0192 16.9171 73.0238 16.9473 71.6935 18.2172C71.3307 18.5497 71.0586 18.9428 70.8469 19.3661C70.3329 20.4847 70.5143 21.815 71.4818 22.8732C71.6632 23.0849 72.0563 23.3872 72.3586 23.4779L73.5982 22.5407C73.175 22.4802 72.7214 22.3593 72.3586 21.9964C71.6935 21.3011 71.6632 20.1824 72.3284 19.3963C72.3889 19.3358 72.4796 19.2451 72.54 19.1544C73.3261 18.4288 74.596 18.3079 75.3518 19.1242C75.4425 19.2149 75.503 19.3056 75.5635 19.3661C75.7751 19.6986 75.8658 20.0312 75.896 20.3638L76.7124 19.3661L76.8333 19.2149C76.7728 18.9125 76.531 18.5497 76.3193 18.3079Z" fill="white"/>
<path d="M21.5051 20.3335C19.6305 18.7008 18.3909 21.301 17.5746 20.5753C17.1211 20.1823 17.242 19.7892 17.5444 19.4567C17.5746 19.4264 17.6048 19.3962 17.6351 19.366C17.877 19.1543 18.3002 19.0334 18.6933 19.0032L18.5119 17.8542C17.877 17.7938 17.1211 18.1566 16.6978 18.6403C16.4862 18.8822 16.335 19.1241 16.2443 19.366C15.9117 20.1218 16.0629 20.9382 16.7583 21.5428C18.4514 23.0243 19.7212 20.4544 20.6887 21.301C20.9911 21.5428 20.9911 22.0568 20.719 22.3894C20.2655 22.9034 19.8724 22.8429 19.3887 22.8731L19.4794 24.0825C20.3259 24.1128 21.0213 23.8104 21.5353 23.236C22.2912 22.2987 22.3819 21.0893 21.5051 20.3335Z" fill="white"/>
<path d="M61.6556 11.2025L60.809 12.1095L62.5021 12.8654L62.2905 13.3189L62.0486 13.8631C61.6253 13.9236 61.0509 13.8934 60.6276 13.712C60.416 13.6213 60.2346 13.5003 60.0532 13.3189C59.4787 12.7747 59.1461 11.8677 59.5694 10.9606C60.0531 9.84196 61.2625 9.26751 62.351 9.75126C63.1068 10.0838 63.3487 10.5978 63.6813 11.1723L64.7697 10.5978C64.4371 9.81173 63.8627 9.14657 62.8649 8.69306C61.2625 7.99767 59.2368 8.60236 58.4507 10.3559C57.9972 11.3537 58.0879 12.4421 58.5717 13.3189C58.9042 13.9236 59.4485 14.4678 60.1741 14.7702C61.0509 15.1632 62.351 15.2237 62.9254 14.9516L63.651 13.3189L64.1045 12.2909L61.6556 11.2025Z" fill="white"/>
<path d="M26.4629 10.749L26.6141 13.3492L26.9164 17.9448L28.1258 17.461L27.9746 15.7075L30.091 14.4981L31.5423 15.526L32.5702 14.7097L30.4841 13.3794L26.4629 10.749ZM27.8234 14.5283L27.642 13.3492L27.5513 12.7143L28.4281 13.3492L29.063 13.8329L27.8234 14.5283Z" fill="white"/>
<path d="M36.1378 12.1393L33.9911 13.0161L31.9957 8.08789L30.9072 8.69258L32.812 13.3487L33.2957 14.558L36.2889 13.3487L36.1378 12.1393Z" fill="white"/>
<path d="M37.3781 7.33285L37.1665 6.45605L36.0176 6.87934L36.1083 7.33285L37.4386 13.0774L40.583 12.3517L40.6132 11.1121L38.3759 11.6564L37.3781 7.33285Z" fill="white"/>
<path d="M55.6091 7.33281L55.1253 10.1144L53.2206 7.33281L52.0414 5.66992H52.0112L51.7391 7.33281L50.8623 12.2005L52.1019 12.261L52.7368 8.69335L55.8207 13.0773H55.851L56.8487 7.33281L56.9999 6.54672L55.7603 6.45601L55.6091 7.33281Z" fill="white"/>
<path d="M47.143 5.33691L46.0546 7.33238L43.7266 11.6559L44.9964 11.8978L45.7825 10.3256L48.2012 10.4163L48.8966 12.0489L50.1967 11.8978L48.0501 7.33238L47.143 5.33691ZM46.3267 9.26737L47.0826 7.57425L47.7477 9.32784L46.3267 9.26737Z" fill="white"/>
<path fill-rule="evenodd" clip-rule="evenodd" d="M7.62835 85.9116L8.23304 87.3628H7.02367L7.62835 85.9116ZM6.02593 89.6304L6.66086 88.2699H8.71679L9.35171 89.6304L10.4401 89.4792L7.62835 84.0371H7.59812L4.9375 89.4792L6.02593 89.6304ZM13.4938 89.6304L13.8869 86.9093H13.9171L15.2474 89.6304H15.2776L16.5777 86.9093H16.6079L17.0312 89.6304L18.0592 89.5095L17.0312 84.0068L15.2776 87.6047L13.524 84.0068H13.4938L12.4961 89.5095L13.4938 89.6304ZM18.3313 86.8186C18.3313 88.3606 19.6011 89.6304 21.1733 89.6304C22.7153 89.6304 24.0154 88.3908 24.0154 86.8186C24.0154 85.2464 22.7455 84.0068 21.1733 84.0068C19.6011 84.0068 18.3313 85.2767 18.3313 86.8186ZM19.3895 86.8186C19.3895 85.8511 20.1756 85.065 21.1431 85.065C22.1106 85.065 22.8967 85.8511 22.8967 86.8186C22.8967 87.7861 22.1106 88.5722 21.1431 88.5722C20.2058 88.5722 19.3895 87.7861 19.3895 86.8186ZM24.7107 89.5699L25.7387 89.5095V86.8186H25.7689L27.583 89.6304L28.7017 89.3583L27.2504 87.2117C27.8853 87 28.2784 86.4558 28.2784 85.7907C28.2784 84.6418 27.4621 84.1278 26.4341 84.1278H24.7107V89.5699ZM25.7387 85.1557H26.1318C26.6457 85.1557 27.0993 85.2162 27.0993 85.8511C27.0993 86.4558 26.6155 86.607 26.1015 86.607H25.7387V85.1557ZM32.0274 89.5095L32.36 88.5117H30.0924V87.2117H31.7251V86.2139H30.0924V85.1557H32.1181L31.9367 84.158H29.0342V89.5397H32.0274V89.5095ZM38.1348 89.5095L38.4674 88.5117H36.1998V87.2117H37.8324V86.2139H36.1998V85.1557H38.2255L38.0441 84.158H35.1718V89.5397H38.1348V89.5095ZM38.4674 89.2676L39.4651 89.6304L40.7047 87.6954L41.9745 89.6304L42.9723 89.2676L41.3094 86.7582L42.8513 84.3697L41.8838 84.0068L40.7047 85.9418L39.5256 84.0068L38.5883 84.3697L40.1302 86.7582L38.4674 89.2676ZM46.933 88.1489C46.6609 88.3908 46.3283 88.6025 45.8748 88.6025C44.9677 88.6025 44.2119 87.8466 44.2119 86.8489C44.2119 85.9418 44.877 85.0953 45.8143 85.0953C46.2678 85.0953 46.6306 85.2464 46.9027 85.4883L46.7213 84.2487C46.5097 84.1278 46.1166 84.0673 45.8445 84.0673C44.2421 84.0673 43.1234 85.3371 43.1234 86.8791C43.1234 88.4513 44.2119 89.6909 45.8748 89.6909C46.1166 89.6909 46.5399 89.6304 46.7516 89.4792L46.933 88.1489ZM50.7425 89.5095L51.0751 88.5117H48.7773V87.2117H50.4099V86.2139H48.7773V85.1557H50.803L50.6216 84.158H47.7493V89.5397H50.7425V89.5095ZM54.4008 89.5095L54.673 88.5117H52.7077V84.0068L51.6798 84.1278V89.5095H54.4008ZM57.8778 89.5095L58.1499 88.5117H56.1847V84.0068L55.1567 84.1278V89.5095H57.8778ZM61.5966 89.5095L61.9292 88.5117H59.6616V87.2117H61.2943V86.2139H59.6616V85.1557H61.6873L61.5059 84.158H58.6336V89.5397H61.5966V89.5095ZM63.5316 89.5095V86.4256L66.7364 89.6304H66.7667V84.0068L65.7387 84.1278V87.2419L62.5339 84.0068H62.5036V89.6304L63.5316 89.5095ZM67.2202 85.1557H68.6714V89.6002L69.6994 89.5397V85.1557H71.0297V84.158H67.4318L67.2202 85.1557ZM76.5928 87.2117L77.651 89.6304H77.6813L80.0093 84.1278L78.9209 84.0068L77.6208 87.3024L77.1068 86.1535L77.9534 84.1278L77.0463 84.0068L76.6231 85.0348L76.1998 84.0068L75.2928 84.1278L76.1091 86.1535L75.5951 87.3628L74.295 84.0371L73.2368 84.158L75.5649 89.6607H75.5951L76.5928 87.2117ZM81.9745 85.9116L82.5792 87.3628H81.3699L81.9745 85.9116ZM80.3419 89.6304L80.9768 88.2699H83.0327L83.6677 89.6304L84.7863 89.4792L81.9745 84.0371L79.2837 89.4792L80.3419 89.6304ZM85.8748 87.6047L84.998 89.449L86.0562 89.6607L88.4447 84.3092L87.4167 84.0371L86.3585 86.5163L85.1189 84.0371L84.1212 84.3092L85.8748 87.6047Z" fill="white"/>
<path d="M40.8874 45.3369H26.2842V46.5765H40.8874V45.3369Z" fill="#003375"/>
<path d="M52.3461 22.3594H51.167V35.0578H52.3461V22.3594Z" fill="#003375"/>
<path d="M66.6167 36.0244H67.8563V46.546H52.5578V74.5127C52.2554 74.5732 51.4996 74.7243 51.167 74.7848V45.3668H66.6167V36.0244Z" fill="#003375"/>
<path d="M69.7011 26.9547C64.1985 20.4543 56.005 16.3122 46.8137 16.3122C30.2756 16.3122 16.8515 29.7665 16.8515 46.2744C16.8515 53.1679 19.2098 59.5473 23.1403 64.6267C18.726 59.3961 16.0654 52.6539 16.0654 45.3069C16.0654 28.7688 29.5197 15.3447 46.0276 15.3447C55.6421 15.3447 64.2287 19.8799 69.7011 26.9547Z" fill="#003375"/>
</svg>
