<svg width="19" height="13" viewBox="0 0 19 13" fill="none" xmlns="http://www.w3.org/2000/svg">
<path d="M2.5 0.130859H16.5C17.5938 0.130859 18.5 1.03711 18.5 2.13086V4.03711C18.5 4.34961 18.2812 4.63086 18 4.72461C17.4062 4.94336 17 5.50586 17 6.13086C17 6.78711 17.4062 7.34961 18 7.56836C18.2812 7.66211 18.5 7.94336 18.5 8.25586V10.1309C18.5 11.2559 17.5938 12.1309 16.5 12.1309H2.5C1.375 12.1309 0.5 11.2559 0.5 10.1309V8.25586C0.5 7.94336 0.6875 7.66211 1 7.56836C1.5625 7.34961 2 6.78711 2 6.13086C2 5.50586 1.5625 4.94336 1 4.72461C0.6875 4.63086 0.5 4.34961 0.5 4.03711V2.13086C0.5 1.03711 1.375 0.130859 2.5 0.130859ZM2 2.13086V3.53711C2.875 4.06836 3.5 5.03711 3.5 6.13086C3.5 7.25586 2.875 8.22461 2 8.75586V10.1309C2 10.4121 2.21875 10.6309 2.5 10.6309H16.5C16.75 10.6309 17 10.4121 17 10.1309V8.75586C16.0938 8.22461 15.5 7.25586 15.5 6.13086C15.5 5.03711 16.0938 4.06836 17 3.53711V2.13086C17 1.88086 16.75 1.63086 16.5 1.63086H2.5C2.21875 1.63086 2 1.88086 2 2.13086ZM13 7.63086V4.63086H6V7.63086H13ZM4.5 4.13086C4.5 3.59961 4.9375 3.13086 5.5 3.13086H13.5C14.0312 3.13086 14.5 3.59961 14.5 4.13086V8.13086C14.5 8.69336 14.0312 9.13086 13.5 9.13086H5.5C4.9375 9.13086 4.5 8.69336 4.5 8.13086V4.13086Z" fill="#193154"/>
</svg>
