<svg width="25" height="24" viewBox="0 0 25 24" fill="none" xmlns="http://www.w3.org/2000/svg">
<path d="M12.5 22C8.90625 22 5.625 20.125 3.82812 17C2.03125 13.9141 2.03125 10.125 3.82812 7C5.625 3.91406 8.90625 2 12.5 2C16.0547 2 19.3359 3.91406 21.1328 7C22.9297 10.125 22.9297 13.9141 21.1328 17C19.3359 20.125 16.0547 22 12.5 22ZM16.9141 10.1641H16.875C17.2656 9.8125 17.2656 9.22656 16.875 8.83594C16.5234 8.48438 15.9375 8.48438 15.5859 8.83594L11.25 13.2109L9.41406 11.375C9.02344 10.9844 8.4375 10.9844 8.08594 11.375C7.69531 11.7266 7.69531 12.3125 8.08594 12.6641L10.5859 15.1641C10.9375 15.5547 11.5234 15.5547 11.9141 15.1641L16.9141 10.1641Z" fill="#67CDA9"/>
</svg>
